<svg width="24" height="24" viewBox="0 0 24 24" fill="none" xmlns="http://www.w3.org/2000/svg">
<g opacity="0.6" clip-path="url(#clip0_8_19006)">
<path d="M23.4059 4.88235C23.7294 4.88235 23.9941 4.61765 24 4.29412V0.594118C24 0.264706 23.7353 0 23.4059 0H19.7059C19.3824 0 19.1176 0.264706 19.1176 0.594118V1.88235H4.88235V0.594118C4.88235 0.270588 4.61765 0.00588235 4.29412 0H0.594118C0.270588 0 0.00588235 0.264706 0 0.594118V4.29412C0 4.61765 0.264706 4.88235 0.594118 4.88235H1.88235V19.1176H0.594118C0.270588 19.1176 0.00588235 19.3824 0 19.7059V23.4059C0 23.7294 0.264706 23.9941 0.594118 24H4.29412C4.61765 24 4.88235 23.7353 4.88235 23.4059V22.1176H19.1176V23.4059C19.1176 23.7294 19.3824 23.9941 19.7059 24H23.4059C23.7294 24 23.9941 23.7353 24 23.4059V19.7059C24 19.3824 23.7353 19.1176 23.4059 19.1176H22.1176V4.88235H23.4059ZM1.17647 3.70588V1.17647H3.70588V3.70588H1.17647ZM3.70588 22.8235H1.17647V20.2941H3.70588V22.8235ZM19.1176 19.7059V20.9412H4.88235V19.7059C4.88235 19.3824 4.61765 19.1176 4.29412 19.1176H3.05882V4.88235H4.29412C4.61765 4.88235 4.88235 4.61765 4.88235 4.29412V3.05882H19.1176V4.29412C19.1176 4.61765 19.3824 4.88235 19.7059 4.88235H20.9412V19.1176H19.7059C19.3824 19.1176 19.1176 19.3824 19.1176 19.7059ZM22.8235 20.2941V22.8235H20.2941V20.2941H22.8235ZM20.2941 3.70588V1.17647H22.8235V3.70588H20.2941Z" fill="#262332"/>
</g>
<defs>
<clipPath id="clip0_8_19006">
<rect width="24" height="24" fill="white"/>
</clipPath>
</defs>
</svg>
