<svg width="24" height="24" viewBox="0 0 24 24" fill="none" xmlns="http://www.w3.org/2000/svg">
<path fill-rule="evenodd" clip-rule="evenodd" d="M12 3C12.5523 3 13 3.44772 13 4V20C13 20.5523 12.5523 21 12 21C11.4477 21 11 20.5523 11 20V4C11 3.44772 11.4477 3 12 3ZM18 8C18.5523 8 19 8.44772 19 9L19 20C19 20.5523 18.5523 21 18 21C17.4477 21 17 20.5523 17 20L17 9C17 8.44772 17.4477 8 18 8ZM7 12C7 11.4477 6.55228 11 6 11C5.44772 11 5 11.4477 5 12V20C5 20.5523 5.44772 21 6 21C6.55229 21 7 20.5523 7 20L7 12Z" fill="white"/>
</svg>
