<svg width="24" height="24" viewBox="0 0 24 24" fill="none" xmlns="http://www.w3.org/2000/svg">
<g opacity="0.6" clip-path="url(#clip0_8_18982)">
<path d="M22.3728 10.5742C22.5974 10.5742 22.7795 10.3921 22.7795 10.1675V0.406699C22.7795 0.182101 22.5974 0 22.3728 0C20.613 0 17.8992 1.39743 17.8992 3.25359V3.66029H9.35849C8.2359 3.66168 7.32639 4.57119 7.325 5.69378V7.63176C6.91909 7.99199 6.64525 8.47752 6.54655 9.01131C4.0863 9.38028 2.21624 11.4148 2.05499 13.8973C1.48883 14.0869 1.14409 14.6592 1.2408 15.2484C1.33771 15.8376 1.84767 16.2695 2.44461 16.2679H14.6456C15.2425 16.2695 15.7525 15.8376 15.8494 15.2484C15.9461 14.6592 15.6014 14.0869 15.0352 13.8973C14.8739 11.4148 13.0039 9.38028 10.5436 9.01131C10.4449 8.47752 10.1711 7.99199 9.76519 7.63176V6.10048H17.8992V7.32058C17.8992 9.17673 20.613 10.5742 22.3728 10.5742ZM18.7126 3.25359C18.7126 2.0742 20.5882 1.02727 21.9661 0.842192V9.73197C20.5882 9.54689 18.7126 8.49996 18.7126 7.32058V3.25359ZM9.69191 8.94737H7.39827C7.53569 8.53452 7.84548 8.13397 8.13839 8.13397H8.95179C9.24589 8.13397 9.55449 8.53452 9.69191 8.94737ZM14.6456 15.4545H2.44461C2.22002 15.4545 2.03791 15.2724 2.03791 15.0478C2.03791 14.8233 2.22002 14.6412 2.44461 14.6412H14.6456C14.8702 14.6412 15.0523 14.8233 15.0523 15.0478C15.0523 15.2724 14.8702 15.4545 14.6456 15.4545ZM14.2206 13.8278H2.86958C3.08266 11.5254 5.01289 9.76355 7.325 9.76077H9.76519C12.0773 9.76355 14.0075 11.5254 14.2206 13.8278ZM9.35849 5.28708C9.13389 5.28708 8.95179 5.46918 8.95179 5.69378V7.32058H8.13839V5.69378C8.13839 5.01999 8.6847 4.47369 9.35849 4.47369H17.8992V5.28708H9.35849Z" fill="#262332" stroke="#262332" stroke-width="0.2"/>
<path d="M3.25774 17.4875C3.25774 17.2629 3.07563 17.0808 2.85104 17.0808C2.62644 17.0808 2.44434 17.2629 2.44434 17.4875V17.8942C2.44434 18.1188 2.62644 18.3009 2.85104 18.3009C3.07563 18.3009 3.25774 18.1188 3.25774 17.8942V17.4875Z" fill="#262332" stroke="#262332" stroke-width="0.2"/>
<path d="M4.88469 17.4875C4.88469 17.2629 4.70259 17.0808 4.47799 17.0808C4.25339 17.0808 4.07129 17.2629 4.07129 17.4875V19.9277C4.07129 20.1523 4.25339 20.3344 4.47799 20.3344C4.70259 20.3344 4.88469 20.1523 4.88469 19.9277V17.4875Z" fill="#262332" stroke="#262332" stroke-width="0.2"/>
<path d="M6.51164 17.4875C6.51164 17.2629 6.32954 17.0808 6.10494 17.0808C5.88034 17.0808 5.69824 17.2629 5.69824 17.4875V17.8942C5.69824 18.1188 5.88034 18.3009 6.10494 18.3009C6.32954 18.3009 6.51164 18.1188 6.51164 17.8942V17.4875Z" fill="#262332" stroke="#262332" stroke-width="0.2"/>
<path d="M8.13859 17.4875C8.13859 17.2629 7.95649 17.0808 7.73189 17.0808C7.5073 17.0808 7.3252 17.2629 7.3252 17.4875V19.9277C7.3252 20.1523 7.5073 20.3344 7.73189 20.3344C7.95649 20.3344 8.13859 20.1523 8.13859 19.9277V17.4875Z" fill="#262332" stroke="#262332" stroke-width="0.2"/>
<path d="M9.76555 17.4875C9.76555 17.2629 9.58345 17.0808 9.35885 17.0808C9.13425 17.0808 8.95215 17.2629 8.95215 17.4875V17.8942C8.95215 18.1188 9.13425 18.3009 9.35885 18.3009C9.58345 18.3009 9.76555 18.1188 9.76555 17.8942V17.4875Z" fill="#262332" stroke="#262332" stroke-width="0.2"/>
<path d="M11.3925 17.4875C11.3925 17.2629 11.2104 17.0808 10.9858 17.0808C10.7612 17.0808 10.5791 17.2629 10.5791 17.4875V19.9277C10.5791 20.1523 10.7612 20.3344 10.9858 20.3344C11.2104 20.3344 11.3925 20.1523 11.3925 19.9277V17.4875Z" fill="#262332" stroke="#262332" stroke-width="0.2"/>
<path d="M13.0195 17.4875C13.0195 17.2629 12.8374 17.0808 12.6128 17.0808C12.3882 17.0808 12.2061 17.2629 12.2061 17.4875V17.8942C12.2061 18.1188 12.3882 18.3009 12.6128 18.3009C12.8374 18.3009 13.0195 18.1188 13.0195 17.8942V17.4875Z" fill="#262332" stroke="#262332" stroke-width="0.2"/>
<path d="M4.47799 21.1475C4.25339 21.1475 4.07129 21.3296 4.07129 21.5542V22.7743C4.07129 22.9989 4.25339 23.181 4.47799 23.181C4.70259 23.181 4.88469 22.9989 4.88469 22.7743V21.5542C4.88469 21.3296 4.70259 21.1475 4.47799 21.1475Z" fill="#262332" stroke="#262332" stroke-width="0.2"/>
<path d="M7.73189 21.1475C7.5073 21.1475 7.3252 21.3296 7.3252 21.5542V22.7743C7.3252 22.9989 7.5073 23.181 7.73189 23.181C7.95649 23.181 8.13859 22.9989 8.13859 22.7743V21.5542C8.13859 21.3296 7.95649 21.1475 7.73189 21.1475Z" fill="#262332" stroke="#262332" stroke-width="0.2"/>
<path d="M10.9858 21.1475C10.7612 21.1475 10.5791 21.3296 10.5791 21.5542V22.7743C10.5791 22.9989 10.7612 23.181 10.9858 23.181C11.2104 23.181 11.3925 22.9989 11.3925 22.7743V21.5542C11.3925 21.3296 11.2104 21.1475 10.9858 21.1475Z" fill="#262332" stroke="#262332" stroke-width="0.2"/>
<path d="M14.2387 21.1475C14.0141 21.1475 13.832 21.3296 13.832 21.5542V22.7743C13.832 22.9989 14.0141 23.181 14.2387 23.181C14.4633 23.181 14.6454 22.9989 14.6454 22.7743V21.5542C14.6454 21.3296 14.4633 21.1475 14.2387 21.1475Z" fill="#262332" stroke="#262332" stroke-width="0.2"/>
<path d="M14.6454 17.4875C14.6454 17.2629 14.4633 17.0808 14.2387 17.0808C14.0141 17.0808 13.832 17.2629 13.832 17.4875V19.9277C13.832 20.1523 14.0141 20.3344 14.2387 20.3344C14.4633 20.3344 14.6454 20.1523 14.6454 19.9277V17.4875Z" fill="#262332" stroke="#262332" stroke-width="0.2"/>
<path d="M3.25774 19.521C3.25774 19.2964 3.07563 19.1143 2.85104 19.1143C2.62644 19.1143 2.44434 19.2964 2.44434 19.521V21.9612C2.44434 22.1858 2.62644 22.3679 2.85104 22.3679C3.07563 22.3679 3.25774 22.1858 3.25774 21.9612V19.521Z" fill="#262332" stroke="#262332" stroke-width="0.2"/>
<path d="M6.51164 19.521C6.51164 19.2964 6.32954 19.1143 6.10494 19.1143C5.88034 19.1143 5.69824 19.2964 5.69824 19.521V21.9612C5.69824 22.1858 5.88034 22.3679 6.10494 22.3679C6.32954 22.3679 6.51164 22.1858 6.51164 21.9612V19.521Z" fill="#262332" stroke="#262332" stroke-width="0.2"/>
<path d="M9.76555 19.521C9.76555 19.2964 9.58345 19.1143 9.35885 19.1143C9.13425 19.1143 8.95215 19.2964 8.95215 19.521V21.9612C8.95215 22.1858 9.13425 22.3679 9.35885 22.3679C9.58345 22.3679 9.76555 22.1858 9.76555 21.9612V19.521Z" fill="#262332" stroke="#262332" stroke-width="0.2"/>
<path d="M13.0195 19.521C13.0195 19.2964 12.8374 19.1143 12.6128 19.1143C12.3882 19.1143 12.2061 19.2964 12.2061 19.521V21.9612C12.2061 22.1858 12.3882 22.3679 12.6128 22.3679C12.8374 22.3679 13.0195 22.1858 13.0195 21.9612V19.521Z" fill="#262332" stroke="#262332" stroke-width="0.2"/>
<path d="M3.00565 23.2102C2.93059 23.1812 2.84877 23.1743 2.76973 23.1904C2.74491 23.1953 2.72048 23.2019 2.69665 23.2102C2.67143 23.2225 2.64681 23.236 2.62298 23.2509C2.60193 23.266 2.58167 23.2823 2.56241 23.2998C2.52647 23.3393 2.49767 23.3848 2.47702 23.434C2.45418 23.4823 2.44306 23.5355 2.44445 23.5889C2.44247 23.7545 2.54116 23.9047 2.69387 23.9688C2.84639 24.0327 3.02273 23.9978 3.1395 23.8804C3.25626 23.7631 3.29022 23.5867 3.22528 23.4344C3.20562 23.3846 3.17663 23.3391 3.13989 23.3002C3.09938 23.2644 3.0541 23.2342 3.00565 23.2102Z" fill="#262332" stroke="#262332" stroke-width="0.2"/>
<path d="M5.81622 23.3006C5.77948 23.3396 5.75049 23.385 5.73083 23.4349C5.66589 23.5862 5.69985 23.7618 5.81622 23.8781C5.85514 23.9149 5.90062 23.9439 5.95046 23.9635C6.10178 24.0285 6.27733 23.9947 6.3937 23.8781C6.51027 23.7618 6.54403 23.5862 6.47909 23.4349C6.45844 23.3856 6.42964 23.3402 6.3937 23.3006C6.23066 23.1501 5.97926 23.1501 5.81622 23.3006Z" fill="#262332" stroke="#262332" stroke-width="0.2"/>
<path d="M9.58247 23.2502C9.56082 23.2345 9.53759 23.221 9.51336 23.2095C9.48814 23.2007 9.46213 23.194 9.43572 23.1896C9.35827 23.1737 9.27784 23.1807 9.20437 23.2095C9.15572 23.2335 9.11064 23.2637 9.07013 23.2994C9.03339 23.3383 9.0044 23.3838 8.98474 23.4337C8.9198 23.585 8.95376 23.7605 9.07013 23.8769C9.10964 23.9128 9.15512 23.9416 9.20437 23.9623C9.35569 24.0272 9.53124 23.9935 9.64761 23.8769C9.76417 23.7605 9.79793 23.585 9.733 23.4337C9.71234 23.3844 9.68355 23.3389 9.64761 23.2994C9.62755 23.281 9.6059 23.2645 9.58247 23.2502Z" fill="#262332" stroke="#262332" stroke-width="0.2"/>
<path d="M12.3231 23.3006C12.2864 23.3396 12.2574 23.385 12.2378 23.4349C12.2149 23.4831 12.2038 23.536 12.2052 23.5894C12.2042 23.6976 12.2467 23.8017 12.3231 23.8781C12.3627 23.9141 12.4081 23.9429 12.4574 23.9635C12.5825 24.0171 12.7261 24.004 12.8393 23.9286C12.9524 23.8531 13.02 23.7254 13.0186 23.5894C13.0198 23.536 13.0086 23.4831 12.986 23.4349C12.9653 23.3856 12.9366 23.3402 12.9006 23.3006C12.7376 23.1501 12.4862 23.1501 12.3231 23.3006Z" fill="#262332" stroke="#262332" stroke-width="0.2"/>
</g>
<defs>
<clipPath id="clip0_8_18982">
<rect width="24" height="24" fill="white"/>
</clipPath>
</defs>
</svg>
