<svg width="24" height="22" viewBox="0 0 24 22" fill="none" xmlns="http://www.w3.org/2000/svg">
<path d="M23.6 12.6H23.2V11.4C23.1989 10.6057 22.728 9.88727 22 9.56958V3.39998C21.9999 3.24098 21.9057 3.09718 21.76 3.03358C21.9161 2.78348 21.9992 2.49478 22 2.19998C22 1.31633 21.2836 0.599976 20.4 0.599976C19.5163 0.599976 18.8 1.31633 18.8 2.19998C18.8017 2.48168 18.8785 2.75783 19.0224 2.99998H4.9776C5.12155 2.75783 5.19835 2.48168 5.2 2.19998C5.2 1.31633 4.48365 0.599976 3.6 0.599976C2.71635 0.599976 2 1.31633 2 2.19998C2.00085 2.49478 2.08395 2.78348 2.24 3.03358C2.0943 3.09718 2.0001 3.24098 2 3.39998V9.56958C1.272 9.88727 0.80105 10.6057 0.8 11.4V12.6H0.4C0.1791 12.6 0 12.7791 0 13V18.6C0 18.8209 0.1791 19 0.4 19H0.8V21C0.8 21.2209 0.9791 21.4 1.2 21.4H2.8C3.0209 21.4 3.2 21.2209 3.2 21V19H20.8V21C20.8 21.2209 20.9791 21.4 21.2 21.4H22.8C23.0209 21.4 23.2 21.2209 23.2 21V19H23.6C23.8209 19 24 18.8209 24 18.6V13C24 12.7791 23.8209 12.6 23.6 12.6ZM20.4 1.39998C20.8419 1.39998 21.2 1.75813 21.2 2.19998C21.2 2.64183 20.8419 2.99998 20.4 2.99998C19.9582 2.99998 19.6 2.64183 19.6 2.19998C19.6 1.75813 19.9582 1.39998 20.4 1.39998ZM3.6 1.39998C4.04185 1.39998 4.4 1.75813 4.4 2.19998C4.4 2.64183 4.04185 2.99998 3.6 2.99998C3.15815 2.99998 2.8 2.64183 2.8 2.19998C2.8 1.75813 3.15815 1.39998 3.6 1.39998ZM2.8 3.79998H21.2V9.39997H19.5896C19.8543 9.05583 19.9986 8.63418 20 8.19998V7.39998C19.9987 6.29598 19.104 5.40128 18 5.39998H14.8C13.696 5.40128 12.8013 6.29598 12.8 7.39998V8.19998C12.8014 8.63418 12.9457 9.05583 13.2104 9.39997H10.7896C11.0543 9.05583 11.1986 8.63418 11.2 8.19998V7.39998C11.1987 6.29598 10.304 5.40128 9.2 5.39998H6C4.896 5.40128 4.0013 6.29598 4 7.39998V8.19998C4.00145 8.63418 4.1457 9.05583 4.4104 9.39997H2.8V3.79998ZM19.2 7.39998V8.19998C19.2 8.86273 18.6628 9.39997 18 9.39997H14.8C14.1372 9.39997 13.6 8.86273 13.6 8.19998V7.39998C13.6 6.73723 14.1372 6.19998 14.8 6.19998H18C18.6628 6.19998 19.2 6.73723 19.2 7.39998ZM10.4 7.39998V8.19998C10.4 8.86273 9.86275 9.39997 9.2 9.39997H6C5.33725 9.39997 4.8 8.86273 4.8 8.19998V7.39998C4.8 6.73723 5.33725 6.19998 6 6.19998H9.2C9.86275 6.19998 10.4 6.73723 10.4 7.39998ZM1.6 11.4C1.6 10.7372 2.13725 10.2 2.8 10.2H21.2C21.8628 10.2 22.4 10.7372 22.4 11.4V12.6H1.6V11.4ZM2.4 20.6H1.6V19H2.4V20.6ZM22.4 20.6H21.6V19H22.4V20.6ZM23.2 18.2H0.8V13.4H23.2V18.2Z" fill="#262332" stroke="#262332" stroke-width="0.3"/>
</svg>
