<svg xmlns="http://www.w3.org/2000/svg" width="24" height="24" viewBox="0 0 24 24" fill="none">
  <g opacity="0.6" clip-path="url(#clip0_8_18970)">
    <path d="M23.6 13.6H23.2V12.4C23.1989 11.6057 22.728 10.8873 22 10.5696V4.39998C21.9999 4.24098 21.9057 4.09718 21.76 4.03358C21.9161 3.78348 21.9992 3.49478 22 3.19998C22 2.31633 21.2836 1.59998 20.4 1.59998C19.5163 1.59998 18.8 2.31633 18.8 3.19998C18.8017 3.48168 18.8785 3.75783 19.0224 3.99998H4.9776C5.12155 3.75783 5.19835 3.48168 5.2 3.19998C5.2 2.31633 4.48365 1.59998 3.6 1.59998C2.71635 1.59998 2 2.31633 2 3.19998C2.00085 3.49478 2.08395 3.78348 2.24 4.03358C2.0943 4.09718 2.0001 4.24098 2 4.39998V10.5696C1.272 10.8873 0.80105 11.6057 0.8 12.4V13.6H0.4C0.1791 13.6 0 13.7791 0 14V19.6C0 19.8209 0.1791 20 0.4 20H0.8V22C0.8 22.2209 0.9791 22.4 1.2 22.4H2.8C3.0209 22.4 3.2 22.2209 3.2 22V20H20.8V22C20.8 22.2209 20.9791 22.4 21.2 22.4H22.8C23.0209 22.4 23.2 22.2209 23.2 22V20H23.6C23.8209 20 24 19.8209 24 19.6V14C24 13.7791 23.8209 13.6 23.6 13.6ZM20.4 2.39998C20.8419 2.39998 21.2 2.75813 21.2 3.19998C21.2 3.64183 20.8419 3.99998 20.4 3.99998C19.9582 3.99998 19.6 3.64183 19.6 3.19998C19.6 2.75813 19.9582 2.39998 20.4 2.39998ZM3.6 2.39998C4.04185 2.39998 4.4 2.75813 4.4 3.19998C4.4 3.64183 4.04185 3.99998 3.6 3.99998C3.15815 3.99998 2.8 3.64183 2.8 3.19998C2.8 2.75813 3.15815 2.39998 3.6 2.39998ZM2.8 4.79998H21.2V10.4H19.5896C19.8543 10.0558 19.9986 9.63418 20 9.19998V8.39998C19.9987 7.29598 19.104 6.40128 18 6.39998H14.8C13.696 6.40128 12.8013 7.29598 12.8 8.39998V9.19998C12.8014 9.63418 12.9457 10.0558 13.2104 10.4H10.7896C11.0543 10.0558 11.1986 9.63418 11.2 9.19998V8.39998C11.1987 7.29598 10.304 6.40128 9.2 6.39998H6C4.896 6.40128 4.0013 7.29598 4 8.39998V9.19998C4.00145 9.63418 4.1457 10.0558 4.4104 10.4H2.8V4.79998ZM19.2 8.39998V9.19998C19.2 9.86273 18.6628 10.4 18 10.4H14.8C14.1372 10.4 13.6 9.86273 13.6 9.19998V8.39998C13.6 7.73723 14.1372 7.19998 14.8 7.19998H18C18.6628 7.19998 19.2 7.73723 19.2 8.39998ZM10.4 8.39998V9.19998C10.4 9.86273 9.86275 10.4 9.2 10.4H6C5.33725 10.4 4.8 9.86273 4.8 9.19998V8.39998C4.8 7.73723 5.33725 7.19998 6 7.19998H9.2C9.86275 7.19998 10.4 7.73723 10.4 8.39998ZM1.6 12.4C1.6 11.7372 2.13725 11.2 2.8 11.2H21.2C21.8628 11.2 22.4 11.7372 22.4 12.4V13.6H1.6V12.4ZM2.4 21.6H1.6V20H2.4V21.6ZM22.4 21.6H21.6V20H22.4V21.6ZM23.2 19.2H0.8V14.4H23.2V19.2Z" fill="#262332" stroke="#262332" stroke-width="0.3"/>
    <path d="M3.59961 17.6H1.99961C1.77871 17.6 1.59961 17.7791 1.59961 18C1.59961 18.2209 1.77871 18.4 1.99961 18.4H3.59961C3.82051 18.4 3.99961 18.2209 3.99961 18C3.99961 17.7791 3.82051 17.6 3.59961 17.6Z" fill="#262332" stroke="#262332" stroke-width="0.3"/>
    <path d="M21.9998 17.6H5.1998C4.9789 17.6 4.7998 17.7791 4.7998 18C4.7998 18.2209 4.9789 18.4 5.1998 18.4H21.9998C22.2207 18.4 22.3998 18.2209 22.3998 18C22.3998 17.7791 22.2207 17.6 21.9998 17.6Z" fill="#262332" stroke="#262332" stroke-width="0.3"/>
  </g>
  <defs>
    <clipPath id="clip0_8_18970">
      <rect width="24" height="24" fill="white"/>
    </clipPath>
  </defs>
</svg>