<svg width="61" height="61" viewBox="0 0 61 61" fill="none" xmlns="http://www.w3.org/2000/svg">
<g clip-path="url(#clip0_77_17003)">
<path d="M6.15135 59.9273C6.31138 60.4746 6.85951 60.8135 6.85951 60.8135C6.85951 60.8135 7.14818 60.2652 6.98815 59.7179C6.82813 59.1706 6.28 58.8317 6.28 58.8317C6.28 58.8317 5.99133 59.38 6.15135 59.9273Z" fill="#3F3D56"/>
<path d="M6.38649 59.8097C6.8256 60.2051 6.87924 60.8131 6.87924 60.8131C6.87924 60.8131 6.22093 60.7798 5.78182 60.3843C5.3427 59.9889 5.28906 59.381 5.28906 59.381C5.28906 59.381 5.94737 59.4142 6.38649 59.8097Z" fill="#6C63FF"/>
<path d="M8.56812 16.3346L6.63867 14.9065L17.4435 5.98149H44.8415V13.8355L27.0907 24.9025L8.56812 16.3346Z" fill="#262332"/>
<path d="M49.8365 10.9879V6.15978H46.1989V7.34219L44.8413 5.98149L35.9658 14.9065L32.4929 17.0485L27.1079 53.4465L35.2291 60.9597H54.1026V15.2635L49.8365 10.9879Z" fill="#F2F2F2"/>
<path d="M35.9661 14.9065H6.63867V60.9597H35.9661V14.9065Z" fill="white"/>
<path d="M23.4244 49.7141H18.022V60.9596H23.4244V49.7141Z" fill="#262332"/>
<path d="M12.2337 52.9272V51.1422H9.91846V52.9272H12.0408H12.2337Z" fill="#262332"/>
<path d="M12.0408 54.3551H9.91846V56.1401H12.2337V54.3551H12.0408Z" fill="#262332"/>
<path d="M16.0927 51.1422H13.7773V52.9272H16.0927V51.1422Z" fill="#262332"/>
<path d="M16.0927 54.3551H13.7773V56.1401H16.0927V54.3551Z" fill="#262332"/>
<path d="M28.055 52.9272V51.1422H25.7397V52.9272H27.8621H28.055Z" fill="#262332"/>
<path d="M27.8621 54.3551H25.7397V56.1401H28.055V54.3551H27.8621Z" fill="#262332"/>
<path d="M31.914 51.1422H29.5986V52.9272H31.914V51.1422Z" fill="#262332"/>
<path d="M31.914 54.3551H29.5986V56.1401H31.914V54.3551Z" fill="#262332"/>
<path d="M44.2626 17.2269V15.442H41.9473V17.2269H44.0697H44.2626Z" fill="#262332"/>
<path d="M44.0697 18.6551H41.9473V20.44H44.2626V18.6551H44.0697Z" fill="#262332"/>
<path d="M48.1215 15.442H45.8062V17.227H48.1215V15.442Z" fill="#262332"/>
<path d="M48.1215 18.6551H45.8062V20.4401H48.1215V18.6551Z" fill="#262332"/>
<path d="M44.2626 27.223V25.4379H41.9473V27.223H44.0697H44.2626Z" fill="#262332"/>
<path d="M44.0697 28.651H41.9473V30.436H44.2626V28.651H44.0697Z" fill="#262332"/>
<path d="M48.1215 25.4379H45.8062V27.2229H48.1215V25.4379Z" fill="#262332"/>
<path d="M48.1215 28.651H45.8062V30.436H48.1215V28.651Z" fill="#262332"/>
<path d="M44.2626 37.2191V35.4341H41.9473V37.2191H44.0697H44.2626Z" fill="#262332"/>
<path d="M44.0697 38.647H41.9473V40.432H44.2626V38.647H44.0697Z" fill="#262332"/>
<path d="M48.1215 35.4341H45.8062V37.2191H48.1215V35.4341Z" fill="#262332"/>
<path d="M48.1215 38.6472H45.8062V40.4322H48.1215V38.6472Z" fill="#262332"/>
<path d="M44.2626 47.2151V45.4301H41.9473V47.2151H44.0697H44.2626Z" fill="#262332"/>
<path d="M44.0697 48.6431H41.9473V50.4281H44.2626V48.6431H44.0697Z" fill="#262332"/>
<path d="M48.1215 45.4301H45.8062V47.2151H48.1215V45.4301Z" fill="#262332"/>
<path d="M48.1215 48.6431H45.8062V50.4281H48.1215V48.6431Z" fill="#262332"/>
<path d="M32.2999 17.227H9.91846V21.511H32.2999V17.227Z" fill="#262332"/>
<path d="M32.2999 25.795H9.91846V30.0791H32.2999V25.795Z" fill="#262332"/>
<path d="M32.2999 34.3631H9.91846V38.6471H32.2999V34.3631Z" fill="#262332"/>
<path d="M32.2999 42.931H9.91846V47.215H32.2999V42.931Z" fill="#262332"/>
<path d="M60.3646 60.8212H0.1875V60.9086H60.3646V60.8212Z" fill="#3F3D56"/>
</g>
<defs>
<clipPath id="clip0_77_17003">
<rect width="60.1771" height="60.5668" fill="white" transform="translate(0.1875 0.429153)"/>
</clipPath>
</defs>
</svg>
