<svg width="22" height="21" viewBox="0 0 22 21" fill="none" xmlns="http://www.w3.org/2000/svg">
<path fill-rule="evenodd" clip-rule="evenodd" d="M1 0C0.447715 0 0 0.447715 0 1C0 1.55228 0.447715 2 1 2H3.81249L4.55691 5.81838C4.56107 5.84573 4.56635 5.87271 4.57268 5.89929L6.09093 13.687L6.09111 13.6879C6.21773 14.3413 6.56504 14.9336 7.0789 15.3582C7.59081 15.7813 8.23487 16.0101 8.89964 15.9997H17.7185C18.3833 16.0101 19.0274 15.7813 19.5393 15.3582C20.0534 14.9334 20.4008 14.3407 20.5273 13.687L20.5273 13.687L20.5286 13.6797L21.9832 5.84918C22.0375 5.55699 21.959 5.2558 21.769 5.02727C21.579 4.79874 21.2972 4.66655 21 4.66655H6.37L5.61789 0.808647C5.52632 0.338982 5.11487 0 4.63636 0H1ZM8.05425 13.3057L6.75992 6.66655H19.7971L18.5637 13.3071L18.5631 13.31C18.5228 13.5144 18.4152 13.6926 18.2652 13.8166C18.1151 13.9406 17.9316 14.0035 17.7469 13.9999L17.7273 13.9997H8.89091L8.87124 13.9999C8.68661 14.0035 8.50308 13.9406 8.353 13.8166C8.2023 13.692 8.09431 13.5127 8.05452 13.3071L8.05425 13.3057ZM6 19C6 17.8954 6.89543 17 8 17C9.10457 17 10 17.8954 10 19C10 20.1046 9.10457 21 8 21C6.89543 21 6 20.1046 6 19ZM16 19C16 17.8954 16.8954 17 18 17C19.1046 17 20 17.8954 20 19C20 20.1046 19.1046 21 18 21C16.8954 21 16 20.1046 16 19Z" fill="white"/>
</svg>
