<svg width="24" height="24" viewBox="0 0 24 24" fill="none" xmlns="http://www.w3.org/2000/svg">
<path fill-rule="evenodd" clip-rule="evenodd" d="M9.22658 20.3393C9.1198 20.2954 9.01907 20.2323 8.9297 20.15C8.91658 20.1379 8.90385 20.1256 8.89151 20.113L0.376878 11.5984C-0.0136467 11.2079 -0.0136467 10.5747 0.376878 10.1842C0.767402 9.79364 1.40057 9.79364 1.79109 10.1842L9.54544 17.9385L22.2365 2.94002C22.5932 2.51841 23.2242 2.46583 23.6458 2.82257C24.0674 3.17932 24.12 3.81029 23.7632 4.2319L10.3788 20.0499C10.3645 20.0672 10.3496 20.0841 10.334 20.1006C10.264 20.1748 10.1851 20.2361 10.1003 20.2841C9.95214 20.3683 9.78701 20.4116 9.6214 20.414C9.48766 20.416 9.35318 20.3913 9.22658 20.3393Z" fill="white"/>
</svg>
