<svg width="24" height="24" viewBox="0 0 24 24" style="fill: white"
    xmlns="http://www.w3.org/2000/svg">
    <path fill-rule="evenodd" clip-rule="evenodd"
        d="M4.22112 4.22063C4.61164 3.8301 5.24481 3.8301 5.63533 4.22063L12.0001 10.5854L18.364 4.22152C18.7545 3.83099 19.3877 3.83099 19.7782 4.22152C20.1687 4.61204 20.1687 5.24521 19.7782 5.63573L13.4143 11.9996L19.7775 18.3628C20.168 18.7533 20.168 19.3865 19.7775 19.777C19.3869 20.1675 18.7538 20.1675 18.3633 19.777L12.0001 13.4138L5.63608 19.7779C5.24556 20.1684 4.6124 20.1684 4.22187 19.7779C3.83135 19.3873 3.83135 18.7542 4.22187 18.3637L10.5859 11.9996L4.22112 5.63484C3.83059 5.24432 3.83059 4.61115 4.22112 4.22063Z"
    />
</svg>