<svg width="12" height="12" viewBox="0 0 12 12" fill="none" xmlns="http://www.w3.org/2000/svg">
<path fill-rule="evenodd" clip-rule="evenodd" d="M0.819963 9.76615C0.429439 10.1567 0.429439 10.7898 0.819963 11.1804C1.21049 11.5709 1.84365 11.5709 2.23418 11.1804L6.00006 7.41448L9.76588 11.1803C10.1564 11.5708 10.7896 11.5708 11.1801 11.1803C11.5706 10.7898 11.5706 10.1566 11.1801 9.76609L7.41427 6.00027L11.1801 2.23444C11.5706 1.84392 11.5706 1.21075 11.1801 0.820229C10.7896 0.429705 10.1564 0.429705 9.76588 0.820229L6.00006 4.58605L2.23418 0.820173C1.84365 0.429649 1.21049 0.429649 0.819964 0.820173C0.429439 1.2107 0.429439 1.84386 0.819964 2.23439L4.58584 6.00027L0.819963 9.76615Z" fill="white"/>
</svg>
