<svg width="48" height="48" viewBox="0 0 48 48" fill="none" xmlns="http://www.w3.org/2000/svg">
<g filter="url(#filter0_i_1580_14337)">
<path d="M0 24C0 10.7452 10.7452 0 24 0V0C37.2548 0 48 10.7452 48 24V48H24C10.7452 48 0 37.2548 0 24V24Z" fill="url(#paint0_linear_1580_14337)"/>
</g>
<path d="M7 24C7 14.6112 14.6112 7 24 7V7C33.3888 7 41 14.6112 41 24V41H24C14.6112 41 7 33.3888 7 24V24Z" fill="url(#paint1_linear_1580_14337)"/>
<path fill-rule="evenodd" clip-rule="evenodd" d="M18 19C18 17.3431 19.3431 16 21 16C22.6569 16 24 17.3431 24 19C24 20.6569 22.6569 22 21 22C19.3431 22 18 20.6569 18 19ZM21 14C18.2386 14 16 16.2386 16 19C16 21.7614 18.2386 24 21 24C23.7614 24 26 21.7614 26 19C26 16.2386 23.7614 14 21 14ZM27 14C26.4477 14 26 14.4477 26 15C26 15.5523 26.4477 16 27 16C28.6569 16 30 17.3431 30 19C30 20.6569 28.6569 22 27 22C26.4477 22 26 22.4477 26 23C26 23.5523 26.4477 24 27 24C29.7614 24 32 21.7614 32 19C32 16.2386 29.7614 14 27 14ZM12 31C12 28.2386 14.2386 26 17 26H25C27.7614 26 30 28.2386 30 31V33C30 33.5523 29.5523 34 29 34C28.4477 34 28 33.5523 28 33V31C28 29.3431 26.6569 28 25 28H17C15.3431 28 14 29.3431 14 31V33C14 33.5523 13.5523 34 13 34C12.4477 34 12 33.5523 12 33V31ZM30.5 26C29.9477 26 29.5 26.4477 29.5 27C29.5 27.5523 29.9477 28 30.5 28H31C32.6569 28 34 29.3431 34 31V33C34 33.5523 34.4477 34 35 34C35.5523 34 36 33.5523 36 33V31C36 28.2386 33.7614 26 31 26H30.5Z" fill="white"/>
<defs>
<filter id="filter0_i_1580_14337" x="0" y="0" width="48" height="52" filterUnits="userSpaceOnUse" color-interpolation-filters="sRGB">
<feFlood flood-opacity="0" result="BackgroundImageFix"/>
<feBlend mode="normal" in="SourceGraphic" in2="BackgroundImageFix" result="shape"/>
<feColorMatrix in="SourceAlpha" type="matrix" values="0 0 0 0 0 0 0 0 0 0 0 0 0 0 0 0 0 0 127 0" result="hardAlpha"/>
<feOffset dy="4"/>
<feGaussianBlur stdDeviation="5"/>
<feComposite in2="hardAlpha" operator="arithmetic" k2="-1" k3="1"/>
<feColorMatrix type="matrix" values="0 0 0 0 0 0 0 0 0 0 0 0 0 0 0 0 0 0 0.25 0"/>
<feBlend mode="normal" in2="shape" result="effect1_innerShadow_1580_14337"/>
</filter>
<linearGradient id="paint0_linear_1580_14337" x1="24" y1="0" x2="24" y2="48" gradientUnits="userSpaceOnUse">
<stop stop-color="white"/>
<stop offset="1" stop-color="#F4F4F4"/>
</linearGradient>
<linearGradient id="paint1_linear_1580_14337" x1="24" y1="7" x2="24" y2="41" gradientUnits="userSpaceOnUse">
<stop stop-color="#FADA25"/>
<stop offset="1" stop-color="#F4B512"/>
</linearGradient>
</defs>
</svg>
