<svg width="21" height="21" viewBox="0 0 21 21" fill="none" xmlns="http://www.w3.org/2000/svg">
<path fill-rule="evenodd" clip-rule="evenodd" d="M12.4179 3.88671C12.8084 3.49618 13.4416 3.49618 13.8321 3.88671L17.2501 7.30471C17.6406 7.69523 17.6406 8.3284 17.2501 8.71892L9.5596 16.4094C9.39997 16.569 9.19103 16.67 8.96676 16.6958L5.10451 17.14C4.80137 17.1749 4.4989 17.0694 4.28313 16.8537C4.06737 16.6379 3.96192 16.3354 3.99679 16.0323L4.44104 12.17C4.46684 11.9458 4.56776 11.7368 4.72739 11.5772L12.4179 3.88671ZM13.125 6.00803L6.38811 12.7449L6.12767 15.0091L8.39189 14.7487L15.1288 8.01181L13.125 6.00803Z" fill="url(#paint0_linear_1556_17192)"/>
<defs>
<linearGradient id="paint0_linear_1556_17192" x1="10.7666" y1="3.59381" x2="10.7666" y2="17.1466" gradientUnits="userSpaceOnUse">
<stop stop-color="#4AB0F7"/>
<stop offset="1" stop-color="#317FEC"/>
</linearGradient>
</defs>
</svg>
