<svg width="61" height="61" viewBox="0 0 61 61" fill="none" xmlns="http://www.w3.org/2000/svg">
<g clip-path="url(#clip0_966_6046)">
<path d="M44.3721 14.5746V8.58826H49.7029V19.6838L44.3721 14.5746Z" fill="url(#paint0_linear_966_6046)"/>
<path d="M45.0049 14.9895V9.76044H48.9804V19.6839L45.0049 14.9895Z" fill="#262332"/>
<path d="M13.4538 18.3615H11.6133V52.0727H13.4538V18.3615Z" fill="url(#paint1_linear_966_6046)"/>
<path d="M13.0725 18.3615H12.0552V52.0727H13.0725V18.3615Z" fill="#795548"/>
<path d="M6.99653 21.9622L6.27002 22.6728L12.3028 28.8135L13.0293 28.1028L6.99653 21.9622Z" fill="#795548"/>
<path d="M18.6284 28.939L12.3745 33.3183L12.9589 34.1492L19.2128 29.77L18.6284 28.939Z" fill="#795548"/>
<path d="M53.7876 24.2752H8.41185C7.37551 24.2752 6.53613 24.7404 6.53613 25.3156V58.5544H55.6661V25.3156C55.6661 24.7404 54.824 24.2752 53.7876 24.2752Z" fill="url(#paint2_linear_966_6046)"/>
<path d="M30.9565 5.25665L7.28516 22.8011V57.2876H54.7698V24.0524L30.9565 5.25665Z" fill="white"/>
<path d="M31.0036 26.3409C33.9148 26.3409 36.2747 23.986 36.2747 21.0811C36.2747 18.1763 33.9148 15.8214 31.0036 15.8214C28.0924 15.8214 25.7324 18.1763 25.7324 21.0811C25.7324 23.986 28.0924 26.3409 31.0036 26.3409Z" fill="url(#paint3_linear_966_6046)"/>
<path d="M21.1213 31.2244H11.8032V40.5223H21.1213V31.2244Z" fill="url(#paint4_linear_966_6046)"/>
<path d="M50.0168 31.2244H40.6987V40.5223H50.0168V31.2244Z" fill="url(#paint5_linear_966_6046)"/>
<path d="M2.71974 31.5516L1.45752 24.5068L31.0605 1.8046L60.3645 24.9603L59.5513 31.2812L31.056 9.82579L2.71974 31.5516Z" fill="url(#paint6_linear_966_6046)"/>
<path d="M2.77746 30.1366L1.90918 25.2691L31.0532 2.57674L59.9126 25.2709L59.0389 30.1339L31.0487 8.12315L2.77746 30.1366Z" fill="#262332"/>
<path d="M36.6516 41.743H25.2627V57.2868H36.6516V41.743Z" fill="url(#paint7_linear_966_6046)"/>
<path d="M36.322 42.0721H25.5918V57.2868H36.322V42.0721Z" fill="#262332"/>
<path d="M20.8864 31.5524H12.2271V34.6051H20.8864V31.5524Z" fill="#262332"/>
<path d="M20.8864 34.6055H12.2271V40.1934H20.8864V34.6055Z" fill="#F4F4F4"/>
<path d="M49.6877 31.5524H41.0283V34.6051H49.6877V31.5524Z" fill="#262332"/>
<path d="M49.6877 34.6055H41.0283V40.1934H49.6877V34.6055Z" fill="#F4F4F4"/>
<path d="M30.9567 25.8241C31.5874 25.8241 32.212 25.7001 32.7947 25.4591C33.3774 25.2181 33.9068 24.8648 34.3527 24.4196C34.7985 23.9743 35.152 23.4457 35.393 22.864C35.6339 22.2824 35.7577 21.659 35.7571 21.0296H26.1563C26.1557 21.659 26.2794 22.2824 26.5204 22.864C26.7613 23.4457 27.1148 23.9743 27.5607 24.4196C28.0065 24.8648 28.5359 25.2181 29.1186 25.4591C29.7013 25.7001 30.3259 25.8241 30.9567 25.8241Z" fill="#262332"/>
<path opacity="0.2" d="M30.9567 25.7777C32.2298 25.7777 33.4508 25.273 34.3511 24.3747C35.2513 23.4764 35.7571 22.2581 35.7571 20.9877H26.1562C26.1563 22.2581 26.662 23.4764 27.5623 24.3747C28.4625 25.273 29.6835 25.7777 30.9567 25.7777Z" fill="#262332"/>
<path opacity="0.2" d="M30.9567 16.244C29.6843 16.244 28.464 16.7481 27.5639 17.6454C26.6637 18.5427 26.1574 19.7599 26.1562 21.0295H35.7571C35.7559 19.7599 35.2496 18.5427 34.3495 17.6454C33.4493 16.7481 32.229 16.244 30.9567 16.244Z" fill="#F4F4F4"/>
<path d="M30.9567 16.244C29.6843 16.244 28.464 16.7481 27.5639 17.6454C26.6637 18.5427 26.1574 19.7599 26.1562 21.0295H35.7571C35.7559 19.7599 35.2496 18.5427 34.3495 17.6454C33.4493 16.7481 32.229 16.244 30.9567 16.244Z" fill="#F4F4F4"/>
<path d="M33.8272 50.759C34.4509 50.759 34.9566 50.2545 34.9566 49.6321C34.9566 49.0097 34.4509 48.5051 33.8272 48.5051C33.2034 48.5051 32.6978 49.0097 32.6978 49.6321C32.6978 50.2545 33.2034 50.759 33.8272 50.759Z" fill="url(#paint8_linear_966_6046)"/>
<path d="M33.827 50.4782C34.2951 50.4782 34.6745 50.0996 34.6745 49.6325C34.6745 49.1655 34.2951 48.7869 33.827 48.7869C33.3589 48.7869 32.9795 49.1655 32.9795 49.6325C32.9795 50.0996 33.3589 50.4782 33.827 50.4782Z" fill="#D7D5F5"/>
<path d="M37.6862 55.0802H23.8506V59.588H37.6862V55.0802Z" fill="url(#paint9_linear_966_6046)"/>
<path d="M37.4033 55.4555H24.1323V59.306H37.4033V55.4555Z" fill="white"/>
</g>
<defs>
<linearGradient id="paint0_linear_966_6046" x1="44.3721" y1="14.1365" x2="49.7029" y2="14.1365" gradientUnits="userSpaceOnUse">
<stop stop-color="#808080" stop-opacity="0.25"/>
<stop offset="0.54" stop-color="#808080" stop-opacity="0.12"/>
<stop offset="1" stop-color="#808080" stop-opacity="0.1"/>
</linearGradient>
<linearGradient id="paint1_linear_966_6046" x1="667.947" y1="22211.5" x2="667.947" y2="9605.83" gradientUnits="userSpaceOnUse">
<stop stop-color="#808080" stop-opacity="0.25"/>
<stop offset="0.54" stop-color="#808080" stop-opacity="0.12"/>
<stop offset="1" stop-color="#808080" stop-opacity="0.1"/>
</linearGradient>
<linearGradient id="paint2_linear_966_6046" x1="35334.9" y1="27112.4" x2="35334.9" y2="14078.7" gradientUnits="userSpaceOnUse">
<stop stop-color="#808080" stop-opacity="0.25"/>
<stop offset="0.54" stop-color="#808080" stop-opacity="0.12"/>
<stop offset="1" stop-color="#808080" stop-opacity="0.1"/>
</linearGradient>
<linearGradient id="paint3_linear_966_6046" x1="5940.39" y1="3938.62" x2="5940.39" y2="2711.21" gradientUnits="userSpaceOnUse">
<stop stop-color="#808080" stop-opacity="0.25"/>
<stop offset="0.54" stop-color="#808080" stop-opacity="0.12"/>
<stop offset="1" stop-color="#808080" stop-opacity="0.1"/>
</linearGradient>
<linearGradient id="paint4_linear_966_6046" x1="3739.85" y1="4961.03" x2="3739.85" y2="4002.14" gradientUnits="userSpaceOnUse">
<stop stop-color="#808080" stop-opacity="0.25"/>
<stop offset="0.54" stop-color="#808080" stop-opacity="0.12"/>
<stop offset="1" stop-color="#808080" stop-opacity="0.1"/>
</linearGradient>
<linearGradient id="paint5_linear_966_6046" x1="6748.74" y1="4961.03" x2="6748.74" y2="4002.14" gradientUnits="userSpaceOnUse">
<stop stop-color="#808080" stop-opacity="0.25"/>
<stop offset="0.54" stop-color="#808080" stop-opacity="0.12"/>
<stop offset="1" stop-color="#808080" stop-opacity="0.1"/>
</linearGradient>
<linearGradient id="paint6_linear_966_6046" x1="32989.9" y1="12813.9" x2="32989.9" y2="2998.82" gradientUnits="userSpaceOnUse">
<stop stop-color="#808080" stop-opacity="0.25"/>
<stop offset="0.54" stop-color="#808080" stop-opacity="0.12"/>
<stop offset="1" stop-color="#808080" stop-opacity="0.1"/>
</linearGradient>
<linearGradient id="paint7_linear_966_6046" x1="6408.96" y1="11173.6" x2="6408.96" y2="8493.7" gradientUnits="userSpaceOnUse">
<stop stop-color="#808080" stop-opacity="0.25"/>
<stop offset="0.54" stop-color="#808080" stop-opacity="0.12"/>
<stop offset="1" stop-color="#808080" stop-opacity="0.1"/>
</linearGradient>
<linearGradient id="paint8_linear_966_6046" x1="1370.57" y1="1499.48" x2="1370.57" y2="1443.13" gradientUnits="userSpaceOnUse">
<stop stop-color="#808080" stop-opacity="0.25"/>
<stop offset="0.54" stop-color="#808080" stop-opacity="0.12"/>
<stop offset="1" stop-color="#808080" stop-opacity="0.1"/>
</linearGradient>
<linearGradient id="paint9_linear_966_6046" x1="7750.22" y1="3398.43" x2="7750.22" y2="3173.04" gradientUnits="userSpaceOnUse">
<stop stop-color="#808080" stop-opacity="0.25"/>
<stop offset="0.54" stop-color="#808080" stop-opacity="0.12"/>
<stop offset="1" stop-color="#808080" stop-opacity="0.1"/>
</linearGradient>
<clipPath id="clip0_966_6046">
<rect width="60.1771" height="60.5668" fill="white" transform="translate(0.1875 0.429153)"/>
</clipPath>
</defs>
</svg>
