<svg width="48" height="48" viewBox="0 0 48 48" fill="none" xmlns="http://www.w3.org/2000/svg">
<g filter="url(#filter0_i_3925_9704)">
<path d="M0 24C0 10.7452 10.7452 0 24 0C37.2548 0 48 10.7452 48 24V48H24C10.7452 48 0 37.2548 0 24Z" fill="url(#paint0_linear_3925_9704)"/>
</g>
<path d="M7 24C7 14.6112 14.6112 7 24 7C33.3888 7 41 14.6112 41 24V41H24C14.6112 41 7 33.3888 7 24Z" fill="url(#paint1_linear_3925_9704)"/>
<g clip-path="url(#clip0_3925_9704)">
<path d="M23.9996 15.5062C19.3027 15.5062 15.5059 19.3031 15.5059 24C15.5059 28.6969 19.3027 32.5219 23.9996 32.5219C28.6965 32.5219 32.5215 28.6969 32.5215 24C32.5215 19.3031 28.6965 15.5062 23.9996 15.5062ZM23.9996 31.2562C20.0059 31.2562 16.7715 27.9937 16.7715 24C16.7715 20.0062 20.0059 16.7719 23.9996 16.7719C27.9934 16.7719 31.2559 20.0344 31.2559 24.0281C31.2559 27.9937 27.9934 31.2562 23.9996 31.2562Z" fill="white"/>
<path d="M24.5057 18.4031C23.69 18.2625 22.8463 18.4875 22.2275 19.0219C21.6088 19.5563 21.2432 20.3156 21.2432 21.1594C21.2432 21.4688 21.2994 21.7781 21.4119 22.0875C21.5244 22.425 21.89 22.5938 22.2275 22.4813C22.565 22.3688 22.7338 22.0031 22.6213 21.6656C22.565 21.4969 22.5369 21.3281 22.5369 21.1594C22.5369 20.7094 22.7338 20.2875 23.0713 20.0063C23.4088 19.725 23.8588 19.5844 24.3369 19.6688C24.9275 19.7813 25.4338 20.2875 25.5463 20.8781C25.6588 21.5813 25.2932 22.2844 24.6463 22.5656C23.915 22.875 23.4369 23.6063 23.4369 24.45V26.1938C23.4369 26.5313 23.7182 26.8406 24.0838 26.8406C24.4213 26.8406 24.7307 26.5594 24.7307 26.1938V24.45C24.7307 24.1406 24.8994 23.8594 25.1525 23.7469C26.3619 23.2406 27.065 21.975 26.84 20.6813C26.5307 19.5281 25.6307 18.6 24.5057 18.4031Z" fill="white"/>
<path d="M24.0281 27.8812H23.9437C23.6062 27.8812 23.2969 28.1625 23.2969 28.5281C23.2969 28.8937 23.5781 29.175 23.9437 29.175H24.0281C24.3656 29.175 24.6469 28.8937 24.6469 28.5281C24.6469 28.1625 24.3937 27.8812 24.0281 27.8812Z" fill="white"/>
</g>
<defs>
<filter id="filter0_i_3925_9704" x="0" y="0" width="48" height="52" filterUnits="userSpaceOnUse" color-interpolation-filters="sRGB">
<feFlood flood-opacity="0" result="BackgroundImageFix"/>
<feBlend mode="normal" in="SourceGraphic" in2="BackgroundImageFix" result="shape"/>
<feColorMatrix in="SourceAlpha" type="matrix" values="0 0 0 0 0 0 0 0 0 0 0 0 0 0 0 0 0 0 127 0" result="hardAlpha"/>
<feOffset dy="4"/>
<feGaussianBlur stdDeviation="5"/>
<feComposite in2="hardAlpha" operator="arithmetic" k2="-1" k3="1"/>
<feColorMatrix type="matrix" values="0 0 0 0 0 0 0 0 0 0 0 0 0 0 0 0 0 0 0.25 0"/>
<feBlend mode="normal" in2="shape" result="effect1_innerShadow_3925_9704"/>
</filter>
<linearGradient id="paint0_linear_3925_9704" x1="24" y1="0" x2="24" y2="48" gradientUnits="userSpaceOnUse">
<stop stop-color="white"/>
<stop offset="1" stop-color="#F4F4F4"/>
</linearGradient>
<linearGradient id="paint1_linear_3925_9704" x1="24" y1="7" x2="24" y2="41" gradientUnits="userSpaceOnUse">
<stop stop-color="#F99992"/>
<stop offset="1" stop-color="#F44336"/>
</linearGradient>
<clipPath id="clip0_3925_9704">
<rect width="18" height="18" fill="white" transform="translate(15 15)"/>
</clipPath>
</defs>
</svg>
