<svg width="24" height="24" viewBox="0 0 24 24" fill="none" xmlns="http://www.w3.org/2000/svg">
<path fill-rule="evenodd" clip-rule="evenodd" d="M2.00049 0C0.895918 0 0.000488281 0.895431 0.000488281 2V23C0.000488281 23.3748 0.210049 23.7181 0.543384 23.8894C0.876719 24.0607 1.27786 24.0313 1.5826 23.8131L6.21043 20.5H22.0005C23.1051 20.5 24.0005 19.6046 24.0005 18.5V2C24.0005 0.89543 23.1051 0 22.0005 0H2.00049ZM2.00049 2L22.0005 2V18.5H6.21044C5.79286 18.5 5.38575 18.6307 5.04621 18.8738L2.00049 21.0542V2ZM19.0434 4.71884C19.4404 4.33491 19.451 3.70183 19.0671 3.30483C18.6832 2.90782 18.0501 2.89722 17.6531 3.28116L16.3487 4.54265L14.0659 6.75027L11.9955 8.75247C11.2635 8.3132 10.4154 8.08117 9.54813 8.08846C8.3558 8.09848 7.20886 8.56074 6.35598 9.38553C5.50202 10.2114 5.01129 11.3357 5.00066 12.5183C4.99004 13.7009 5.46053 14.8336 6.2999 15.6741L6.29986 15.6741L6.30749 15.6816C6.7339 16.0995 7.23978 16.43 7.79514 16.6557C8.35044 16.8813 8.94528 16.998 9.54568 17C10.1461 17.0019 10.7417 16.889 11.2985 16.667C11.8553 16.445 12.3634 16.1179 12.7927 15.7028C13.222 15.2876 13.564 14.7926 13.7973 14.2452C14.0306 13.6978 14.1502 13.11 14.1481 12.5158C14.1461 11.9216 14.0225 11.3346 13.7853 10.7888C13.6873 10.563 13.5707 10.3463 13.437 10.1407L15.4562 8.18795L17.0438 6.65262L18.3053 7.87258C18.7023 8.25651 19.3354 8.24591 19.7193 7.84891C20.1033 7.45191 20.0927 6.81883 19.6957 6.43489L18.4823 5.26149L19.0434 4.71884ZM9.56493 10.0884C10.2525 10.0826 10.9089 10.3375 11.3939 10.7886C11.6335 11.0182 11.8222 11.2894 11.951 11.5857C12.0803 11.8835 12.147 12.2019 12.1481 12.5227C12.1493 12.8436 12.0848 13.1624 11.9575 13.4609C11.8302 13.7596 11.6421 14.0332 11.4023 14.2651C11.1625 14.497 10.8758 14.6825 10.5578 14.8093C10.2398 14.936 9.89796 15.0011 9.55216 15C9.20637 14.9989 8.86498 14.9316 8.54794 14.8028C8.23265 14.6747 7.94864 14.4887 7.71126 14.257C7.24616 13.7893 6.99488 13.1711 7.00058 12.5362C7.0063 11.8997 7.2701 11.2838 7.74633 10.8232C8.22366 10.3616 8.87614 10.0942 9.56493 10.0884Z" fill="white"/>
</svg>
