<svg width="48" height="48" viewBox="0 0 48 48" fill="none" xmlns="http://www.w3.org/2000/svg">
<g filter="url(#filter0_i_1580_20153)">
<path d="M0 24C0 10.7452 10.7452 0 24 0C37.2548 0 48 10.7452 48 24V48H24C10.7452 48 0 37.2548 0 24Z" fill="url(#paint0_linear_1580_20153)"/>
</g>
<path d="M7 24C7 14.6112 14.6112 7 24 7C33.3888 7 41 14.6112 41 24V41H24C14.6112 41 7 33.3888 7 24Z" fill="url(#paint1_linear_1580_20153)"/>
<path fill-rule="evenodd" clip-rule="evenodd" d="M17 17.7778C17 17.3482 17.3482 17 17.7778 17H30.2222C30.6518 17 31 17.3482 31 17.7778V30.2222C31 30.6518 30.6518 31 30.2222 31H17.7778C17.3482 31 17 30.6518 17 30.2222V17.7778ZM17.7778 15C16.2437 15 15 16.2437 15 17.7778V30.2222C15 31.7563 16.2437 33 17.7778 33H30.2222C31.7563 33 33 31.7563 33 30.2222V17.7778C33 16.2437 31.7563 15 30.2222 15H17.7778ZM20 19C19.4477 19 19 19.4477 19 20C19 20.5523 19.4477 21 20 21H28C28.5523 21 29 20.5523 29 20C29 19.4477 28.5523 19 28 19H20ZM19 24C19 23.4477 19.4477 23 20 23H28C28.5523 23 29 23.4477 29 24C29 24.5523 28.5523 25 28 25H20C19.4477 25 19 24.5523 19 24ZM20 27C19.4477 27 19 27.4477 19 28C19 28.5523 19.4477 29 20 29H25C25.5523 29 26 28.5523 26 28C26 27.4477 25.5523 27 25 27H20Z" fill="white"/>
<defs>
<filter id="filter0_i_1580_20153" x="0" y="0" width="48" height="52" filterUnits="userSpaceOnUse" color-interpolation-filters="sRGB">
<feFlood flood-opacity="0" result="BackgroundImageFix"/>
<feBlend mode="normal" in="SourceGraphic" in2="BackgroundImageFix" result="shape"/>
<feColorMatrix in="SourceAlpha" type="matrix" values="0 0 0 0 0 0 0 0 0 0 0 0 0 0 0 0 0 0 127 0" result="hardAlpha"/>
<feOffset dy="4"/>
<feGaussianBlur stdDeviation="5"/>
<feComposite in2="hardAlpha" operator="arithmetic" k2="-1" k3="1"/>
<feColorMatrix type="matrix" values="0 0 0 0 0 0 0 0 0 0 0 0 0 0 0 0 0 0 0.25 0"/>
<feBlend mode="normal" in2="shape" result="effect1_innerShadow_1580_20153"/>
</filter>
<linearGradient id="paint0_linear_1580_20153" x1="24" y1="0" x2="24" y2="48" gradientUnits="userSpaceOnUse">
<stop stop-color="white"/>
<stop offset="1" stop-color="#F4F4F4"/>
</linearGradient>
<linearGradient id="paint1_linear_1580_20153" x1="24" y1="7" x2="24" y2="41" gradientUnits="userSpaceOnUse">
<stop stop-color="#FADA25"/>
<stop offset="1" stop-color="#F4B512"/>
</linearGradient>
</defs>
</svg>
