<svg width="24" height="24" viewBox="0 0 24 24" fill="none" xmlns="http://www.w3.org/2000/svg">
<path d="M20.8401 4.60996C20.3294 4.09897 19.7229 3.69361 19.0555 3.41705C18.388 3.14049 17.6726 2.99814 16.9501 2.99814C16.2276 2.99814 15.5122 3.14049 14.8448 3.41705C14.1773 3.69361 13.5709 4.09897 13.0601 4.60996L12.0001 5.66996L10.9401 4.60996C9.90843 3.57827 8.50915 2.99867 7.05012 2.99867C5.59109 2.99867 4.19181 3.57827 3.16012 4.60996C2.12843 5.64166 1.54883 7.04093 1.54883 8.49996C1.54883 9.959 2.12843 11.3583 3.16012 12.39L4.22012 13.45L12.0001 21.23L15.8901 17.34L19.7801 13.45L20.8401 12.39C21.3511 11.8792 21.7565 11.2728 22.033 10.6053C22.3096 9.93786 22.4519 9.22245 22.4519 8.49996C22.4519 7.77748 22.3096 7.06207 22.033 6.39461C21.7565 5.72715 21.3511 5.12072 20.8401 4.60996Z" fill="white"/>
</svg>
