<svg width="24" height="24" viewBox="0 0 24 24" fill="none" xmlns="http://www.w3.org/2000/svg">
<path fill-rule="evenodd" clip-rule="evenodd" d="M4 2C2.89543 2 2 2.89543 2 4V21C2 21.4247 2.26825 21.8031 2.66899 21.9436C3.06974 22.0842 3.51557 21.9563 3.78087 21.6247L7.48062 17H20C21.1046 17 22 16.1046 22 15V4C22 2.89543 21.1046 2 20 2H4ZM4 4L20 4V15H7.48063C6.87306 15 6.29843 15.2762 5.91889 15.7506L4 18.1492V4ZM7 6C6.72386 6 6.5 6.22386 6.5 6.5C6.5 6.77614 6.72386 7 7 7H17.5C17.7761 7 18 6.77614 18 6.5C18 6.22386 17.7761 6 17.5 6H7ZM6.5 9.5C6.5 9.22386 6.72386 9 7 9H17.5C17.7761 9 18 9.22386 18 9.5C18 9.77614 17.7761 10 17.5 10H7C6.72386 10 6.5 9.77614 6.5 9.5ZM7 12C6.72386 12 6.5 12.2239 6.5 12.5C6.5 12.7761 6.72386 13 7 13H14C14.2761 13 14.5 12.7761 14.5 12.5C14.5 12.2239 14.2761 12 14 12H7Z" fill="white"/>
</svg>
