<svg width="24" height="24" viewBox="0 0 24 24" style="fill: white"
    xmlns="http://www.w3.org/2000/svg">
    <path fill-rule="evenodd" clip-rule="evenodd"
        d="M9.00049 1C7.89592 1 7.00049 1.89543 7.00049 3H6.00049C5.20484 3 4.44178 3.31607 3.87917 3.87868C3.31656 4.44129 3.00049 5.20435 3.00049 6V20C3.00049 20.7957 3.31656 21.5587 3.87917 22.1213C4.44178 22.6839 5.20484 23 6.00049 23H18.0005C18.7961 23 19.5592 22.6839 20.1218 22.1213C20.6844 21.5587 21.0005 20.7957 21.0005 20V6C21.0005 5.20435 20.6844 4.44129 20.1218 3.87868C19.5592 3.31607 18.7961 3 18.0005 3H17.0005C17.0005 1.89543 16.1051 1 15.0005 1H9.00049ZM17.0005 5C17.0005 6.10457 16.1051 7 15.0005 7H9.00049C7.89592 7 7.00049 6.10457 7.00049 5H6.00049C5.73527 5 5.48092 5.10536 5.29338 5.29289C5.10584 5.48043 5.00049 5.73478 5.00049 6V20C5.00049 20.2652 5.10584 20.5196 5.29338 20.7071C5.48092 20.8946 5.73527 21 6.00049 21H18.0005C18.2657 21 18.5201 20.8946 18.7076 20.7071C18.8951 20.5196 19.0005 20.2652 19.0005 20V6C19.0005 5.73478 18.8951 5.48043 18.7076 5.29289C18.5201 5.10536 18.2657 5 18.0005 5H17.0005ZM9.00049 4V5H15.0005V4V3H9.00049V4Z"
    />
</svg>