<svg width="24" height="24" viewBox="0 0 24 24" fill="none" xmlns="http://www.w3.org/2000/svg">
<path fill-rule="evenodd" clip-rule="evenodd" d="M9.09229 7C9.09229 5.34315 10.4354 4 12.0923 4C13.7491 4 15.0923 5.34315 15.0923 7C15.0923 8.65685 13.7491 10 12.0923 10C10.4354 10 9.09229 8.65685 9.09229 7ZM12.0923 2C9.33086 2 7.09229 4.23858 7.09229 7C7.09229 9.76142 9.33086 12 12.0923 12C14.8537 12 17.0923 9.76142 17.0923 7C17.0923 4.23858 14.8537 2 12.0923 2ZM8.09229 14C5.33086 14 3.09229 16.2386 3.09229 19V21C3.09229 21.5523 3.54 22 4.09229 22C4.64457 22 5.09229 21.5523 5.09229 21V19C5.09229 17.3431 6.43543 16 8.09229 16H16.0923C17.7491 16 19.0923 17.3431 19.0923 19V21C19.0923 21.5523 19.54 22 20.0923 22C20.6446 22 21.0923 21.5523 21.0923 21V19C21.0923 16.2386 18.8537 14 16.0923 14H8.09229Z" fill="white"/>
</svg>
