<svg width="17" height="18" viewBox="0 0 17 18" fill="none" xmlns="http://www.w3.org/2000/svg">
<path d="M13.7737 11.9254V13.7603C13.7744 13.9306 13.741 14.0992 13.6757 14.2553C13.6103 14.4114 13.5145 14.5515 13.3943 14.6666C13.2742 14.7818 13.1323 14.8694 12.9778 14.924C12.8233 14.9786 12.6596 14.9989 12.4972 14.9835C10.6952 14.779 8.96428 14.1359 7.4435 13.1059C6.02862 12.1668 4.82904 10.9139 3.92996 9.43616C2.9403 7.84057 2.32441 6.02394 2.13219 4.13343C2.11756 3.9643 2.13681 3.79384 2.1887 3.6329C2.2406 3.47196 2.32402 3.32407 2.43364 3.19865C2.54326 3.07323 2.67668 2.97302 2.82541 2.9044C2.97414 2.83579 3.13493 2.80027 3.29752 2.80011H5.05429C5.33848 2.79719 5.614 2.9023 5.82948 3.09585C6.04496 3.28939 6.1857 3.55818 6.22548 3.85209C6.29963 4.43928 6.43714 5.01583 6.63539 5.57074C6.71418 5.78965 6.73123 6.02756 6.68452 6.25628C6.63782 6.48501 6.52932 6.69496 6.37187 6.86125L5.62817 7.638C6.46179 9.16921 7.67567 10.437 9.14172 11.3077L9.88542 10.531C10.0446 10.3665 10.2456 10.2532 10.4646 10.2044C10.6836 10.1556 10.9114 10.1734 11.121 10.2557C11.6523 10.4628 12.2043 10.6064 12.7665 10.6839C13.051 10.7258 13.3108 10.8754 13.4965 11.1043C13.6822 11.3333 13.7809 11.6255 13.7737 11.9254Z" stroke="white" stroke-width="1.2" stroke-linecap="round" stroke-linejoin="round"/>
</svg>
