<svg width="24" height="24" viewBox="0 0 24 24" fill="none" xmlns="http://www.w3.org/2000/svg">
<path fill-rule="evenodd" clip-rule="evenodd" d="M2.33963 4.30452C2.6172 4.06042 3.00677 3.98933 3.35266 4.11967L8.92399 6.21913C11.1173 5.63161 13.4094 5.62999 15.6033 6.21426L20.6164 4.13194C20.9432 3.9962 21.3174 4.04327 21.6004 4.25573C21.8834 4.46818 22.033 4.81438 21.9939 5.16607L21.5227 9.39923L21.9911 12.8732C21.997 12.9175 22 12.9622 22 13.0069C22 16.0853 21.1406 18.0572 19.6492 19.2663C18.2226 20.4228 16.3921 20.7206 14.876 20.9052C14.8381 20.9098 14.7998 20.9123 14.7616 20.9125L9.79673 20.9443C9.74963 20.9446 9.70257 20.9416 9.65589 20.9352C8.06381 20.7192 6.25282 20.2497 4.84523 18.9412C3.40561 17.6029 2.54548 15.5396 2.54548 12.4772C2.54548 12.4249 2.54959 12.3727 2.55775 12.3211L3.01176 9.44935L2.02688 5.28562C1.9418 4.92592 2.06207 4.54862 2.33963 4.30452ZM4.40569 6.65378L5.0034 9.18071C5.03335 9.30732 5.03831 9.43855 5.01799 9.56705L4.54569 12.5545C4.55979 15.1842 5.29425 16.6279 6.20695 17.4764C7.14546 18.3488 8.43054 18.7437 9.85582 18.9439L14.6909 18.9129C16.195 18.7271 17.4666 18.4611 18.3897 17.7127C19.2524 17.0133 19.9879 15.733 19.9999 13.0729L19.5241 9.54452C19.5132 9.46352 19.5123 9.38149 19.5213 9.30026L19.8187 6.62897L16.0503 8.19426C15.8384 8.28225 15.6028 8.29474 15.3828 8.22962C13.3456 7.62649 11.2 7.62649 9.16269 8.22962C8.95367 8.2915 8.73017 8.28338 8.52619 8.20652L4.40569 6.65378Z" fill="white"/>
</svg>
