<svg width="24" height="24" viewBox="0 0 24 24" fill="none" xmlns="http://www.w3.org/2000/svg">
<path fill-rule="evenodd" clip-rule="evenodd" d="M3 12C3 7.02944 7.02944 3 12 3C16.9706 3 21 7.02944 21 12C21 16.9706 16.9706 21 12 21C7.02944 21 3 16.9706 3 12ZM12 1C5.92487 1 1 5.92487 1 12C1 18.0751 5.92487 23 12 23C18.0751 23 23 18.0751 23 12C23 5.92487 18.0751 1 12 1ZM10.5625 14.0234V14.5156H12.1172V14.1562C12.1172 13.8854 12.1484 13.6536 12.2109 13.4609C12.2786 13.2682 12.3984 13.0781 12.5703 12.8906C12.7474 12.6979 13 12.4714 13.3281 12.2109C13.7292 11.9036 14.0703 11.612 14.3516 11.3359C14.638 11.0547 14.8542 10.75 15 10.4219C15.1458 10.0885 15.2188 9.6901 15.2188 9.22656C15.2188 8.38281 14.9271 7.70312 14.3438 7.1875C13.7656 6.67188 12.9453 6.41406 11.8828 6.41406C11.2161 6.41406 10.6042 6.49479 10.0469 6.65625C9.49479 6.8125 8.98177 7.02083 8.50781 7.28125L9.15625 8.65625C9.56771 8.45312 9.98438 8.28385 10.4062 8.14844C10.8281 8.01302 11.2786 7.94531 11.7578 7.94531C12.2995 7.94531 12.7188 8.0625 13.0156 8.29688C13.3177 8.52604 13.4688 8.86198 13.4688 9.30469C13.4688 9.58594 13.4193 9.83333 13.3203 10.0469C13.2266 10.2552 13.0703 10.4635 12.8516 10.6719C12.638 10.8802 12.349 11.1276 11.9844 11.4141C11.6302 11.6901 11.349 11.9557 11.1406 12.2109C10.9323 12.4609 10.7839 12.7292 10.6953 13.0156C10.6068 13.3021 10.5625 13.638 10.5625 14.0234ZM10.5938 16.1328C10.375 16.3047 10.2656 16.6042 10.2656 17.0312C10.2656 17.4479 10.375 17.75 10.5938 17.9375C10.8177 18.1198 11.0911 18.2109 11.4141 18.2109C11.7266 18.2109 11.9948 18.1198 12.2188 17.9375C12.4427 17.75 12.5547 17.4479 12.5547 17.0312C12.5547 16.6042 12.4427 16.3047 12.2188 16.1328C11.9948 15.9557 11.7266 15.8672 11.4141 15.8672C11.0911 15.8672 10.8177 15.9557 10.5938 16.1328Z" fill="black" fill-opacity="0.87"/>
</svg>
