<svg width="48" height="48" viewBox="0 0 48 48" fill="none" xmlns="http://www.w3.org/2000/svg">
<g filter="url(#filter0_i_3925_14151)">
<path d="M0 24C0 10.7452 10.7452 0 24 0C37.2548 0 48 10.7452 48 24V48H24C10.7452 48 0 37.2548 0 24Z" fill="url(#paint0_linear_3925_14151)"/>
</g>
<path d="M7 24C7 14.6112 14.6112 7 24 7C33.3888 7 41 14.6112 41 24V41H24C14.6112 41 7 33.3888 7 24Z" fill="url(#paint1_linear_3925_14151)"/>
<path d="M18 15C17.4531 15 16.9844 15.2031 16.5938 15.6094C16.2031 16 16.0078 16.4688 16.0078 17.0156V35.0156L24 32.0156L31.9922 35.0156V17.0156C31.9922 16.4688 31.7969 16 31.4062 15.6094C31.0156 15.2031 30.5469 15 30 15H18ZM18 17.0156H30V32.1094L24 29.8828L18 32.1094V17.0156Z" fill="white"/>
<path d="M30.3377 15.3H27.4502V14.6625C27.4502 13.5375 26.5502 12.6375 25.4252 12.6375H22.5377C21.4127 12.6375 20.5127 13.5375 20.5127 14.6625V15.3H17.6252C16.5377 15.3 15.6377 16.2 15.6377 17.2875V18.4125C15.6377 19.2375 16.1252 19.9125 16.8377 20.2125L17.4377 33.1875C17.5127 34.425 18.4877 35.3625 19.7252 35.3625H28.1627C29.4002 35.3625 30.4127 34.3875 30.4502 33.1875L31.1252 20.175C31.8377 19.875 32.3252 19.1625 32.3252 18.375V17.25C32.3252 16.2 31.4252 15.3 30.3377 15.3ZM22.2377 14.6625C22.2377 14.475 22.3877 14.325 22.5752 14.325H25.4627C25.6502 14.325 25.8002 14.475 25.8002 14.6625V15.3H22.2752V14.6625H22.2377ZM17.3627 17.2875C17.3627 17.1375 17.4752 16.9875 17.6627 16.9875H30.3377C30.4877 16.9875 30.6377 17.1 30.6377 17.2875V18.4125C30.6377 18.5625 30.5252 18.7125 30.3377 18.7125H17.6627C17.5127 18.7125 17.3627 18.6 17.3627 18.4125V17.2875ZM28.2002 33.675H19.8002C19.4627 33.675 19.2002 33.4125 19.2002 33.1125L18.6002 20.4H29.4377L28.8377 33.1125C28.8002 33.4125 28.5377 33.675 28.2002 33.675Z" fill="black"/>
<path d="M24.0002 24.15C23.5502 24.15 23.1377 24.525 23.1377 25.0125V29.775C23.1377 30.225 23.5127 30.6375 24.0002 30.6375C24.4502 30.6375 24.8627 30.2625 24.8627 29.775V25.0125C24.8627 24.525 24.4502 24.15 24.0002 24.15Z" fill="black"/>
<path d="M26.9999 24.9C26.5124 24.8625 26.1374 25.2 26.0999 25.6875L25.8749 28.9875C25.8374 29.4375 26.1749 29.85 26.6624 29.8875C26.6999 29.8875 26.6999 29.8875 26.7374 29.8875C27.1874 29.8875 27.5624 29.55 27.5624 29.1L27.7874 25.8C27.7874 25.3125 27.4499 24.9375 26.9999 24.9Z" fill="black"/>
<path d="M20.9629 24.9C20.5129 24.9375 20.1379 25.35 20.1754 25.8L20.4379 29.1C20.4754 29.55 20.8504 29.8875 21.2629 29.8875C21.3004 29.8875 21.3004 29.8875 21.3379 29.8875C21.7879 29.85 22.1629 29.4375 22.1254 28.9875L21.8629 25.6875C21.8629 25.2 21.4504 24.8625 20.9629 24.9Z" fill="black"/>
<defs>
<filter id="filter0_i_3925_14151" x="0" y="0" width="48" height="52" filterUnits="userSpaceOnUse" color-interpolation-filters="sRGB">
<feFlood flood-opacity="0" result="BackgroundImageFix"/>
<feBlend mode="normal" in="SourceGraphic" in2="BackgroundImageFix" result="shape"/>
<feColorMatrix in="SourceAlpha" type="matrix" values="0 0 0 0 0 0 0 0 0 0 0 0 0 0 0 0 0 0 127 0" result="hardAlpha"/>
<feOffset dy="4"/>
<feGaussianBlur stdDeviation="5"/>
<feComposite in2="hardAlpha" operator="arithmetic" k2="-1" k3="1"/>
<feColorMatrix type="matrix" values="0 0 0 0 0 0 0 0 0 0 0 0 0 0 0 0 0 0 0.25 0"/>
<feBlend mode="normal" in2="shape" result="effect1_innerShadow_3925_14151"/>
</filter>
<linearGradient id="paint0_linear_3925_14151" x1="24" y1="0" x2="24" y2="48" gradientUnits="userSpaceOnUse">
<stop stop-color="white"/>
<stop offset="1" stop-color="#F4F4F4"/>
</linearGradient>
<linearGradient id="paint1_linear_3925_14151" x1="24" y1="7" x2="24" y2="41" gradientUnits="userSpaceOnUse">
<stop stop-color="white"/>
<stop offset="1" stop-color="#F4F4F4"/>
</linearGradient>
</defs>
</svg>
