<svg width="48" height="48" viewBox="0 0 48 48" fill="none" xmlns="http://www.w3.org/2000/svg">
<g filter="url(#filter0_i_3925_15981)">
<path d="M0 24C0 10.7452 10.7452 0 24 0C37.2548 0 48 10.7452 48 24V48H24C10.7452 48 0 37.2548 0 24Z" fill="url(#paint0_linear_3925_15981)"/>
</g>
<path d="M7 24C7 14.6112 14.6112 7 24 7C33.3888 7 41 14.6112 41 24V41H24C14.6112 41 7 33.3888 7 24Z" fill="url(#paint1_linear_3925_15981)"/>
<g clip-path="url(#clip0_3925_15981)">
<path d="M24 26.25C25.2426 26.25 26.25 25.2426 26.25 24C26.25 22.7574 25.2426 21.75 24 21.75C22.7574 21.75 21.75 22.7574 21.75 24C21.75 25.2426 22.7574 26.25 24 26.25Z" stroke="white" stroke-width="2" stroke-linecap="round" stroke-linejoin="round"/>
<path d="M29.55 26.25C29.4502 26.4762 29.4204 26.7272 29.4645 26.9705C29.5086 27.2138 29.6246 27.4383 29.7975 27.615L29.8425 27.66C29.982 27.7993 30.0926 27.9648 30.1681 28.1469C30.2436 28.329 30.2824 28.5241 30.2824 28.7213C30.2824 28.9184 30.2436 29.1136 30.1681 29.2957C30.0926 29.4778 29.982 29.6432 29.8425 29.7825C29.7032 29.922 29.5378 30.0326 29.3557 30.1081C29.1736 30.1836 28.9784 30.2224 28.7812 30.2224C28.5841 30.2224 28.3889 30.1836 28.2068 30.1081C28.0247 30.0326 27.8593 29.922 27.72 29.7825L27.675 29.7375C27.4982 29.5646 27.2737 29.4486 27.0304 29.4045C26.7871 29.3604 26.5362 29.3902 26.31 29.49C26.0882 29.5851 25.899 29.7429 25.7657 29.9442C25.6325 30.1454 25.561 30.3812 25.56 30.6225V30.75C25.56 31.1478 25.402 31.5294 25.1207 31.8107C24.8394 32.092 24.4578 32.25 24.06 32.25C23.6622 32.25 23.2806 32.092 22.9993 31.8107C22.718 31.5294 22.56 31.1478 22.56 30.75V30.6825C22.5542 30.4343 22.4738 30.1935 22.3294 29.9915C22.1849 29.7896 21.9831 29.6357 21.75 29.55C21.5238 29.4502 21.2729 29.4204 21.0296 29.4645C20.7863 29.5086 20.5618 29.6246 20.385 29.7975L20.34 29.8425C20.2007 29.982 20.0353 30.0926 19.8532 30.1681C19.6711 30.2436 19.4759 30.2824 19.2787 30.2824C19.0816 30.2824 18.8864 30.2436 18.7043 30.1681C18.5222 30.0926 18.3568 29.982 18.2175 29.8425C18.078 29.7032 17.9674 29.5378 17.8919 29.3557C17.8164 29.1736 17.7776 28.9784 17.7776 28.7813C17.7776 28.5841 17.8164 28.389 17.8919 28.2069C17.9674 28.0248 18.078 27.8593 18.2175 27.72L18.2625 27.675C18.4354 27.4983 18.5514 27.2738 18.5955 27.0305C18.6396 26.7872 18.6098 26.5362 18.51 26.31C18.4149 26.0882 18.2571 25.899 18.0558 25.7657C17.8546 25.6325 17.6188 25.561 17.3775 25.56H17.25C16.8522 25.56 16.4706 25.402 16.1893 25.1207C15.908 24.8394 15.75 24.4578 15.75 24.06C15.75 23.6622 15.908 23.2807 16.1893 22.9994C16.4706 22.7181 16.8522 22.56 17.25 22.56H17.3175C17.5657 22.5542 17.8065 22.4739 18.0085 22.3294C18.2104 22.1849 18.3643 21.9831 18.45 21.75C18.5498 21.5238 18.5796 21.2729 18.5355 21.0296C18.4914 20.7863 18.3754 20.5618 18.2025 20.385L18.1575 20.34C18.018 20.2007 17.9074 20.0353 17.8319 19.8532C17.7564 19.6711 17.7176 19.4759 17.7176 19.2788C17.7176 19.0816 17.7564 18.8865 17.8319 18.7044C17.9074 18.5223 18.018 18.3568 18.1575 18.2175C18.2968 18.0781 18.4622 17.9674 18.6443 17.8919C18.8264 17.8164 19.0216 17.7776 19.2188 17.7776C19.4159 17.7776 19.6111 17.8164 19.7932 17.8919C19.9753 17.9674 20.1407 18.0781 20.28 18.2175L20.325 18.2625C20.5018 18.4354 20.7263 18.5514 20.9696 18.5955C21.2129 18.6396 21.4638 18.6099 21.69 18.51H21.75C21.9718 18.4149 22.161 18.2571 22.2943 18.0559C22.4275 17.8546 22.499 17.6189 22.5 17.3775V17.25C22.5 16.8522 22.658 16.4707 22.9393 16.1894C23.2206 15.9081 23.6022 15.75 24 15.75C24.3978 15.75 24.7794 15.9081 25.0607 16.1894C25.342 16.4707 25.5 16.8522 25.5 17.25V17.3175C25.501 17.5589 25.5725 17.7946 25.7057 17.9959C25.839 18.1971 26.0282 18.3549 26.25 18.45C26.4762 18.5499 26.7271 18.5796 26.9704 18.5355C27.2137 18.4914 27.4382 18.3754 27.615 18.2025L27.66 18.1575C27.7993 18.0181 27.9647 17.9074 28.1468 17.8319C28.3289 17.7564 28.5241 17.7176 28.7213 17.7176C28.9184 17.7176 29.1136 17.7564 29.2957 17.8319C29.4778 17.9074 29.6432 18.0181 29.7825 18.1575C29.922 18.2968 30.0326 18.4623 30.1081 18.6444C30.1836 18.8265 30.2224 19.0216 30.2224 19.2188C30.2224 19.4159 30.1836 19.6111 30.1081 19.7932C30.0326 19.9753 29.922 20.1407 29.7825 20.28L29.7375 20.325C29.5646 20.5018 29.4486 20.7263 29.4045 20.9696C29.3604 21.2129 29.3902 21.4638 29.49 21.69V21.75C29.5851 21.9718 29.7429 22.161 29.9442 22.2943C30.1454 22.4275 30.3812 22.4991 30.6225 22.5H30.75C31.1478 22.5 31.5294 22.6581 31.8107 22.9394C32.092 23.2207 32.25 23.6022 32.25 24C32.25 24.3978 32.092 24.7794 31.8107 25.0607C31.5294 25.342 31.1478 25.5 30.75 25.5H30.6825C30.4412 25.501 30.2054 25.5725 30.0042 25.7057C29.8029 25.839 29.6451 26.0282 29.55 26.25V26.25Z" stroke="white" stroke-width="2" stroke-linecap="round" stroke-linejoin="round"/>
</g>
<defs>
<filter id="filter0_i_3925_15981" x="0" y="0" width="48" height="52" filterUnits="userSpaceOnUse" color-interpolation-filters="sRGB">
<feFlood flood-opacity="0" result="BackgroundImageFix"/>
<feBlend mode="normal" in="SourceGraphic" in2="BackgroundImageFix" result="shape"/>
<feColorMatrix in="SourceAlpha" type="matrix" values="0 0 0 0 0 0 0 0 0 0 0 0 0 0 0 0 0 0 127 0" result="hardAlpha"/>
<feOffset dy="4"/>
<feGaussianBlur stdDeviation="5"/>
<feComposite in2="hardAlpha" operator="arithmetic" k2="-1" k3="1"/>
<feColorMatrix type="matrix" values="0 0 0 0 0 0 0 0 0 0 0 0 0 0 0 0 0 0 0.25 0"/>
<feBlend mode="normal" in2="shape" result="effect1_innerShadow_3925_15981"/>
</filter>
<linearGradient id="paint0_linear_3925_15981" x1="24" y1="0" x2="24" y2="48" gradientUnits="userSpaceOnUse">
<stop stop-color="white"/>
<stop offset="1" stop-color="#F4F4F4"/>
</linearGradient>
<linearGradient id="paint1_linear_3925_15981" x1="24" y1="7" x2="24" y2="41" gradientUnits="userSpaceOnUse">
<stop stop-color="#A079EB"/>
<stop offset="1" stop-color="#6E4AE5"/>
</linearGradient>
<clipPath id="clip0_3925_15981">
<rect width="18" height="18" fill="white" transform="translate(15 15)"/>
</clipPath>
</defs>
</svg>
