<svg width="24" height="24" viewBox="0 0 24 24" fill="none" xmlns="http://www.w3.org/2000/svg">
<path fill-rule="evenodd" clip-rule="evenodd" d="M13.5447 1.11025C13.8791 0.939291 14.2811 0.970066 14.5855 1.18994L23.5855 7.68994C23.8458 7.87794 24 8.17951 24 8.50061C24 8.82172 23.8458 9.12329 23.5855 9.31129L14.5855 15.8113C14.2811 16.0312 13.8791 16.0619 13.5447 15.891C13.2104 15.72 13 15.3761 13 15.0006V12.0402C12.6713 12.014 12.3377 12.0006 12 12.0006C6.36361 12.0006 2.11773 15.6571 2.00249 19.8206C1.98746 20.3634 1.54193 20.7951 0.998869 20.7929C0.455809 20.7907 0.0137442 20.3555 0.00306517 19.8126C0.00102496 19.7088 0 19.6048 0 19.5006C0 11.7429 5.71027 5.29343 13 5.01031V2.00061C13 1.62509 13.2104 1.28121 13.5447 1.11025ZM15 3.95637V6.01122C15 6.2838 14.8887 6.54457 14.6919 6.73317C14.4951 6.92178 14.2299 7.02189 13.9576 7.01032C13.8058 7.00387 13.6533 7.00061 13.5 7.00061C9.51914 7.00061 5.96435 9.21957 3.89497 12.6215C6.05896 10.9789 8.93043 10.0006 12 10.0006C12.7327 10.0006 13.4508 10.0553 14.1486 10.1601C14.638 10.2337 15 10.6541 15 11.149V13.0449L21.292 8.50061L15 3.95637Z" fill="#262636"/>
</svg>
