<svg width="24" height="24" viewBox="0 0 24 24" fill="none" xmlns="http://www.w3.org/2000/svg">
<path fill-rule="evenodd" clip-rule="evenodd" d="M18.0005 3C16.8959 3 16.0005 3.89543 16.0005 5C16.0005 5.34731 16.089 5.67394 16.2447 5.95857C16.2549 5.97393 16.2646 5.98965 16.274 6.00574C16.2834 6.02176 16.2922 6.03793 16.3006 6.05424C16.6534 6.622 17.2828 7 18.0005 7C19.1051 7 20.0005 6.10457 20.0005 5C20.0005 3.89543 19.1051 3 18.0005 3ZM15.1583 7.81465C15.8833 8.5466 16.8889 9 18.0005 9C20.2096 9 22.0005 7.20914 22.0005 5C22.0005 2.79086 20.2096 1 18.0005 1C15.7913 1 14.0005 2.79086 14.0005 5C14.0005 5.37692 14.0526 5.74166 14.1501 6.0874L8.84222 9.18494C8.11734 8.45323 7.11184 8 6.00049 8C3.79135 8 2.00049 9.79086 2.00049 12C2.00049 14.2091 3.79135 16 6.00049 16C7.1122 16 8.11799 15.5465 8.84292 14.8144L14.1514 17.9077C14.0531 18.2549 14.0005 18.6213 14.0005 19C14.0005 21.2091 15.7913 23 18.0005 23C20.2096 23 22.0005 21.2091 22.0005 19C22.0005 16.7909 20.2096 15 18.0005 15C16.8907 15 15.8865 15.4519 15.1619 16.1818L9.85102 13.087C9.9484 12.7414 10.0005 12.3768 10.0005 12C10.0005 11.6229 9.9483 11.258 9.85075 10.912L15.1583 7.81465ZM7.69998 10.9451C7.70837 10.9615 7.71726 10.9777 7.72664 10.9938C7.73613 11.0101 7.74601 11.0259 7.75625 11.0415C7.91196 11.3261 8.00049 11.6527 8.00049 12C8.00049 12.3462 7.91252 12.6719 7.75772 12.9559C7.74683 12.9722 7.73636 12.9891 7.72632 13.0063C7.71656 13.023 7.70734 13.04 7.69865 13.057C7.34547 13.6232 6.71698 14 6.00049 14C4.89592 14 4.00049 13.1046 4.00049 12C4.00049 10.8954 4.89592 10 6.00049 10C6.71787 10 7.34704 10.3777 7.69998 10.9451ZM16.0005 19C16.0005 18.6743 16.0783 18.3668 16.2164 18.0951C16.2408 18.0629 16.2635 18.029 16.2843 17.9932C16.3043 17.959 16.322 17.9241 16.3374 17.8886C16.6962 17.3528 17.3072 17 18.0005 17C19.1051 17 20.0005 17.8954 20.0005 19C20.0005 20.1046 19.1051 21 18.0005 21C16.8959 21 16.0005 20.1046 16.0005 19Z" fill="white"/>
</svg>
