<svg width="48" height="48" viewBox="0 0 48 48" fill="none" xmlns="http://www.w3.org/2000/svg">
<g filter="url(#filter0_i_1580_15273)">
<path d="M0 24C0 10.7452 10.7452 0 24 0C37.2548 0 48 10.7452 48 24V48H24C10.7452 48 0 37.2548 0 24Z" fill="url(#paint0_linear_1580_15273)"/>
</g>
<path d="M7 24C7 14.6112 14.6112 7 24 7C33.3888 7 41 14.6112 41 24V41H24C14.6112 41 7 33.3888 7 24Z" fill="url(#paint1_linear_1580_15273)"/>
<path fill-rule="evenodd" clip-rule="evenodd" d="M21 19C21 17.3431 22.3431 16 24 16C25.6569 16 27 17.3431 27 19C27 20.6569 25.6569 22 24 22C22.3431 22 21 20.6569 21 19ZM24 14C21.2386 14 19 16.2386 19 19C19 21.7614 21.2386 24 24 24C26.7614 24 29 21.7614 29 19C29 16.2386 26.7614 14 24 14ZM20 26C17.2386 26 15 28.2386 15 31V33C15 33.5523 15.4477 34 16 34C16.5523 34 17 33.5523 17 33V31C17 29.3431 18.3431 28 20 28H28C29.6569 28 31 29.3431 31 31V33C31 33.5523 31.4477 34 32 34C32.5523 34 33 33.5523 33 33V31C33 28.2386 30.7614 26 28 26H20Z" fill="white"/>
<defs>
<filter id="filter0_i_1580_15273" x="0" y="0" width="48" height="52" filterUnits="userSpaceOnUse" color-interpolation-filters="sRGB">
<feFlood flood-opacity="0" result="BackgroundImageFix"/>
<feBlend mode="normal" in="SourceGraphic" in2="BackgroundImageFix" result="shape"/>
<feColorMatrix in="SourceAlpha" type="matrix" values="0 0 0 0 0 0 0 0 0 0 0 0 0 0 0 0 0 0 127 0" result="hardAlpha"/>
<feOffset dy="4"/>
<feGaussianBlur stdDeviation="5"/>
<feComposite in2="hardAlpha" operator="arithmetic" k2="-1" k3="1"/>
<feColorMatrix type="matrix" values="0 0 0 0 0 0 0 0 0 0 0 0 0 0 0 0 0 0 0.25 0"/>
<feBlend mode="normal" in2="shape" result="effect1_innerShadow_1580_15273"/>
</filter>
<linearGradient id="paint0_linear_1580_15273" x1="24" y1="0" x2="24" y2="48" gradientUnits="userSpaceOnUse">
<stop stop-color="white"/>
<stop offset="1" stop-color="#F4F4F4"/>
</linearGradient>
<linearGradient id="paint1_linear_1580_15273" x1="24" y1="7" x2="24" y2="41" gradientUnits="userSpaceOnUse">
<stop stop-color="#FADA25"/>
<stop offset="1" stop-color="#F4B512"/>
</linearGradient>
</defs>
</svg>
