<svg width="30" height="30" viewBox="0 0 30 30" fill="none" xmlns="http://www.w3.org/2000/svg">
<g filter="url(#filter0_b_3925_1552)">
<path fill-rule="evenodd" clip-rule="evenodd" d="M15 30C23.2843 30 30 23.2843 30 15C30 6.71573 23.2843 0 15 0C6.71573 0 0 6.71573 0 15C0 23.2843 6.71573 30 15 30Z" fill="#FF0000" fill-opacity="0.15"/>
</g>
<path d="M16.2012 17.2637H13.8184L13.3203 7.72266H16.6992L16.2012 17.2637ZM13.2812 20.6035C13.2812 19.9915 13.4473 19.5618 13.7793 19.3145C14.1178 19.0671 14.5247 18.9434 15 18.9434C15.4622 18.9434 15.8594 19.0671 16.1914 19.3145C16.5299 19.5618 16.6992 19.9915 16.6992 20.6035C16.6992 21.1895 16.5299 21.6126 16.1914 21.873C15.8594 22.1335 15.4622 22.2637 15 22.2637C14.5247 22.2637 14.1178 22.1335 13.7793 21.873C13.4473 21.6126 13.2812 21.1895 13.2812 20.6035Z" fill="#3C3C43" fill-opacity="0.6"/>
<defs>
<filter id="filter0_b_3925_1552" x="-54.3656" y="-54.3656" width="138.731" height="138.731" filterUnits="userSpaceOnUse" color-interpolation-filters="sRGB">
<feFlood flood-opacity="0" result="BackgroundImageFix"/>
<feGaussianBlur in="BackgroundImageFix" stdDeviation="27.1828"/>
<feComposite in2="SourceAlpha" operator="in" result="effect1_backgroundBlur_3925_1552"/>
<feBlend mode="normal" in="SourceGraphic" in2="effect1_backgroundBlur_3925_1552" result="shape"/>
</filter>
</defs>
</svg>
