<svg width="24" height="24" viewBox="0 0 24 24" fill="none" xmlns="http://www.w3.org/2000/svg">
<path fill-rule="evenodd" clip-rule="evenodd" d="M3 12C3 7.02944 7.02944 3 12 3C16.9706 3 21 7.02944 21 12C21 16.9706 16.9706 21 12 21C7.02944 21 3 16.9706 3 12ZM12 1C5.92487 1 1 5.92487 1 12C1 18.0751 5.92487 23 12 23C18.0751 23 23 18.0751 23 12C23 5.92487 18.0751 1 12 1ZM12.9141 18L12.9141 9.35156H11.0781L11.0781 18H12.9141ZM12.7344 6.26562C12.5312 6.11458 12.2891 6.03906 12.0078 6.03906C11.7161 6.03906 11.4688 6.11458 11.2656 6.26562C11.0677 6.41667 10.9688 6.67708 10.9688 7.04687C10.9688 7.41146 11.0677 7.67187 11.2656 7.82812C11.4688 7.97917 11.7161 8.05469 12.0078 8.05469C12.2891 8.05469 12.5312 7.97917 12.7344 7.82812C12.9427 7.67187 13.0469 7.41146 13.0469 7.04687C13.0469 6.67708 12.9427 6.41667 12.7344 6.26562Z" fill="black" fill-opacity="0.87"/>
</svg>
