<svg width="24" height="24" viewBox="0 0 24 24" fill="none" xmlns="http://www.w3.org/2000/svg">
<g opacity="0.6" clip-path="url(#clip0_1_8829)">
<path d="M23.6 13.6001H23.2V12.4001C23.1989 11.6058 22.728 10.8874 22 10.5697V4.4001C21.9999 4.2411 21.9057 4.0973 21.76 4.0337C21.9161 3.7836 21.9992 3.4949 22 3.2001C22 2.31645 21.2836 1.6001 20.4 1.6001C19.5163 1.6001 18.8 2.31645 18.8 3.2001C18.8017 3.4818 18.8785 3.75795 19.0224 4.0001H4.9776C5.12155 3.75795 5.19835 3.4818 5.2 3.2001C5.2 2.31645 4.48365 1.6001 3.6 1.6001C2.71635 1.6001 2 2.31645 2 3.2001C2.00085 3.4949 2.08395 3.7836 2.24 4.0337C2.0943 4.0973 2.0001 4.2411 2 4.4001V10.5697C1.272 10.8874 0.80105 11.6058 0.8 12.4001V13.6001H0.4C0.1791 13.6001 0 13.7792 0 14.0001V19.6001C0 19.821 0.1791 20.0001 0.4 20.0001H0.8V22.0001C0.8 22.221 0.9791 22.4001 1.2 22.4001H2.8C3.0209 22.4001 3.2 22.221 3.2 22.0001V20.0001H20.8V22.0001C20.8 22.221 20.9791 22.4001 21.2 22.4001H22.8C23.0209 22.4001 23.2 22.221 23.2 22.0001V20.0001H23.6C23.8209 20.0001 24 19.821 24 19.6001V14.0001C24 13.7792 23.8209 13.6001 23.6 13.6001ZM20.4 2.4001C20.8419 2.4001 21.2 2.75825 21.2 3.2001C21.2 3.64195 20.8419 4.0001 20.4 4.0001C19.9582 4.0001 19.6 3.64195 19.6 3.2001C19.6 2.75825 19.9582 2.4001 20.4 2.4001ZM3.6 2.4001C4.04185 2.4001 4.4 2.75825 4.4 3.2001C4.4 3.64195 4.04185 4.0001 3.6 4.0001C3.15815 4.0001 2.8 3.64195 2.8 3.2001C2.8 2.75825 3.15815 2.4001 3.6 2.4001ZM2.8 4.8001H21.2V10.4001H19.5896C19.8543 10.0559 19.9986 9.6343 20 9.2001V8.4001C19.9987 7.2961 19.104 6.4014 18 6.4001H14.8C13.696 6.4014 12.8013 7.2961 12.8 8.4001V9.2001C12.8014 9.6343 12.9457 10.0559 13.2104 10.4001H10.7896C11.0543 10.0559 11.1986 9.6343 11.2 9.2001V8.4001C11.1987 7.2961 10.304 6.4014 9.2 6.4001H6C4.896 6.4014 4.0013 7.2961 4 8.4001V9.2001C4.00145 9.6343 4.1457 10.0559 4.4104 10.4001H2.8V4.8001ZM19.2 8.4001V9.2001C19.2 9.86285 18.6628 10.4001 18 10.4001H14.8C14.1372 10.4001 13.6 9.86285 13.6 9.2001V8.4001C13.6 7.73735 14.1372 7.2001 14.8 7.2001H18C18.6628 7.2001 19.2 7.73735 19.2 8.4001ZM10.4 8.4001V9.2001C10.4 9.86285 9.86275 10.4001 9.2 10.4001H6C5.33725 10.4001 4.8 9.86285 4.8 9.2001V8.4001C4.8 7.73735 5.33725 7.2001 6 7.2001H9.2C9.86275 7.2001 10.4 7.73735 10.4 8.4001ZM1.6 12.4001C1.6 11.7373 2.13725 11.2001 2.8 11.2001H21.2C21.8628 11.2001 22.4 11.7373 22.4 12.4001V13.6001H1.6V12.4001ZM2.4 21.6001H1.6V20.0001H2.4V21.6001ZM22.4 21.6001H21.6V20.0001H22.4V21.6001ZM23.2 19.2001H0.8V14.4001H23.2V19.2001Z" fill="#262332" stroke="#262332" stroke-width="0.3"/>
<path d="M3.6001 17.6001H2.0001C1.7792 17.6001 1.6001 17.7792 1.6001 18.0001C1.6001 18.221 1.7792 18.4001 2.0001 18.4001H3.6001C3.821 18.4001 4.0001 18.221 4.0001 18.0001C4.0001 17.7792 3.821 17.6001 3.6001 17.6001Z" fill="#262332" stroke="#262332" stroke-width="0.3"/>
<path d="M21.9998 17.6001H5.1998C4.9789 17.6001 4.7998 17.7792 4.7998 18.0001C4.7998 18.221 4.9789 18.4001 5.1998 18.4001H21.9998C22.2207 18.4001 22.3998 18.221 22.3998 18.0001C22.3998 17.7792 22.2207 17.6001 21.9998 17.6001Z" fill="#262332" stroke="#262332" stroke-width="0.3"/>
</g>
<defs>
<clipPath id="clip0_1_8829">
<rect width="24" height="24" fill="white"/>
</clipPath>
</defs>
</svg>
