<svg width="48" height="48" viewBox="0 0 48 48" fill="none" xmlns="http://www.w3.org/2000/svg">
<path fill-rule="evenodd" clip-rule="evenodd" d="M18 5.0001C17.6656 5.0001 17.3534 5.1672 17.1679 5.4454L13.4648 11.0001H6C4.67392 11.0001 3.40215 11.5269 2.46447 12.4646C1.52678 13.4022 1 14.674 1 16.0001V38.0001C1 39.3262 1.52678 40.598 2.46447 41.5356C3.40215 42.4733 4.67392 43.0001 6 43.0001H42C43.3261 43.0001 44.5979 42.4733 45.5355 41.5356C46.4732 40.598 47 39.3262 47 38.0001V16.0001C47 14.674 46.4732 13.4022 45.5355 12.4646C44.5979 11.5269 43.3261 11.0001 42 11.0001H34.5352L30.8321 5.4454C30.6466 5.1672 30.3344 5.0001 30 5.0001H18ZM14.8321 12.5548L18.5352 7.0001H29.4648L33.1679 12.5548C33.3534 12.833 33.6656 13.0001 34 13.0001H42C42.7957 13.0001 43.5587 13.3162 44.1213 13.8788C44.6839 14.4414 45 15.2045 45 16.0001V38.0001C45 38.7958 44.6839 39.5588 44.1213 40.1214C43.5587 40.684 42.7957 41.0001 42 41.0001H6C5.20435 41.0001 4.44129 40.684 3.87868 40.1214C3.31607 39.5588 3 38.7958 3 38.0001V16.0001C3 15.2045 3.31607 14.4414 3.87868 13.8788C4.44129 13.3162 5.20435 13.0001 6 13.0001H14C14.3344 13.0001 14.6466 12.833 14.8321 12.5548ZM17 26.0001C17 22.1341 20.134 19.0001 24 19.0001C27.866 19.0001 31 22.1341 31 26.0001C31 29.8661 27.866 33.0001 24 33.0001C20.134 33.0001 17 29.8661 17 26.0001ZM24 17.0001C19.0294 17.0001 15 21.0295 15 26.0001C15 30.9707 19.0294 35.0001 24 35.0001C28.9706 35.0001 33 30.9707 33 26.0001C33 21.0295 28.9706 17.0001 24 17.0001Z" fill="white"/>
</svg>
