<svg width="24" height="24" viewBox="0 0 24 24" fill="none" xmlns="http://www.w3.org/2000/svg">
<path fill-rule="evenodd" clip-rule="evenodd" d="M2 1C1.44772 1 1 1.44772 1 2C1 2.55228 1.44772 3 2 3H4.81249L5.55691 6.81838C5.56107 6.84573 5.56635 6.87271 5.57268 6.89929L7.09093 14.687L7.09111 14.6879C7.21773 15.3413 7.56504 15.9336 8.0789 16.3582C8.59081 16.7813 9.23487 17.0101 9.89964 16.9997H18.7185C19.3833 17.0101 20.0274 16.7813 20.5393 16.3582C21.0534 15.9334 21.4008 15.3407 21.5273 14.687L21.5273 14.687L21.5286 14.6797L22.9832 6.84918C23.0375 6.55699 22.959 6.2558 22.769 6.02727C22.579 5.79874 22.2972 5.66655 22 5.66655H7.37L6.61789 1.80865C6.52632 1.33898 6.11487 1 5.63636 1H2ZM9.05425 14.3057L7.75992 7.66655H20.7971L19.5637 14.3071L19.5631 14.31C19.5228 14.5144 19.4152 14.6926 19.2652 14.8166C19.1151 14.9406 18.9316 15.0035 18.7469 14.9999L18.7273 14.9997H9.89091L9.87124 14.9999C9.68661 15.0035 9.50308 14.9406 9.353 14.8166C9.2023 14.692 9.09431 14.5127 9.05452 14.3071L9.05425 14.3057ZM7 20C7 18.8954 7.89543 18 9 18C10.1046 18 11 18.8954 11 20C11 21.1046 10.1046 22 9 22C7.89543 22 7 21.1046 7 20ZM17 20C17 18.8954 17.8954 18 19 18C20.1046 18 21 18.8954 21 20C21 21.1046 20.1046 22 19 22C17.8954 22 17 21.1046 17 20Z" fill="white"/>
</svg>
