<svg width="20" height="20" viewBox="0 0 20 20" fill="none" xmlns="http://www.w3.org/2000/svg">
<g clip-path="url(#clip0_3180_68688)">
<path d="M18.9786 17.2714L11.7071 10L18.9786 2.72855C19.4551 2.25204 19.4551 1.49796 18.9786 1.02145C18.502 0.544934 17.748 0.544934 17.2714 1.02145L10 8.29289L2.72855 1.02145C2.25204 0.544934 1.49796 0.544934 1.02145 1.02145C0.544934 1.49796 0.544934 2.25204 1.02145 2.72855L8.29289 10L1.02145 17.2714C0.544934 17.748 0.544934 18.502 1.02145 18.9786C1.2222 19.1793 1.53142 19.3438 1.875 19.3438C2.15954 19.3438 2.50055 19.2499 2.74512 18.962L10 11.7071L17.2714 18.9786C17.4722 19.1793 17.7814 19.3438 18.125 19.3438C18.4104 19.3438 18.7526 19.2493 18.9973 18.9594C19.455 18.482 19.4487 17.7416 18.9786 17.2714Z" fill="#4B5A6F" stroke="#4B5A6F"/>
</g>
<defs>
<clipPath id="clip0_3180_68688">
<rect width="20" height="20" fill="white"/>
</clipPath>
</defs>
</svg>
