<svg width="249" height="143" viewBox="0 0 249 143" fill="none" xmlns="http://www.w3.org/2000/svg">
<g clip-path="url(#clip0_3994_146324)">
<path d="M235.481 135.57L234.861 139.01V129.36H234.361L233.871 136.26L233.371 129.75L231.331 129.36L230.771 136.05L230.151 132.8L229.661 131.28L228.981 135.76V129.75H227.471V141.78H227.861L236.351 141.08V136.26L235.481 135.57Z" fill="#887A00"/>
<path d="M57.6102 0L42.9902 31.3L53.4902 29.67L63.8702 7.87L57.6102 0Z" fill="#772360"/>
<path d="M178.071 58.0704L187.531 59.2304L128.281 4.90039L127.301 5.55039L178.071 58.0704Z" fill="#772360"/>
<path d="M57.5098 140.34L63.8698 48.1603L124.35 2.78027L177.82 52.9603L180.27 140.34H57.5098Z" fill="url(#paint0_linear_3994_146324)"/>
<path d="M63.8701 48.1602L26.0901 50.1302L18.8301 139.19L57.5101 140.34L63.8701 48.1602Z" fill="url(#paint1_linear_3994_146324)"/>
<path d="M178.119 62.8301L202.919 64.9401L224.849 83.3401L229.319 93.9601L179.059 93.2001L178.119 62.8301Z" fill="url(#paint2_linear_3994_146324)"/>
<path d="M220.041 93.8202L223.151 140.34H180.271L179.061 93.2002L220.041 93.8202Z" fill="url(#paint3_linear_3994_146324)"/>
<path d="M100.732 23.2043L100.723 23.4941L147.81 24.941L147.819 24.6512L100.732 23.2043Z" fill="#EBB8C0"/>
<path d="M154.89 31.29H89.7305V31.58H154.89V31.29Z" fill="#EBB8C0"/>
<path d="M161.956 37.9168L80.7383 38.5547L80.7406 38.8447L161.958 38.2068L161.956 37.9168Z" fill="#EBB8C0"/>
<path d="M68.1897 49.0201L68.1797 48.7301L171.49 46.8701L171.5 47.1601L68.1897 49.0201Z" fill="#EBB8C0"/>
<path d="M178.109 61.29H62.9492V61.58H178.109V61.29Z" fill="#EBB8C0"/>
<path d="M62.3596 79.4295L62.3496 79.1295L178.54 76.2695V76.5595L62.3596 79.4295Z" fill="#EBB8C0"/>
<path d="M178.816 84.88L61.2109 86.7275L61.2155 87.0175L178.821 85.17L178.816 84.88Z" fill="#EBB8C0"/>
<path d="M179.142 95.91L60.5059 96.8418L60.5081 97.1318L179.144 96.2L179.142 95.91Z" fill="#EBB8C0"/>
<path d="M179.363 104.844L59.7559 107.663L59.7627 107.953L179.369 105.134L179.363 104.844Z" fill="#EBB8C0"/>
<path d="M179.352 112.613L59.3105 114.038L59.314 114.328L179.356 112.903L179.352 112.613Z" fill="#EBB8C0"/>
<path d="M180.26 124.399H58.5996V124.689H180.26V124.399Z" fill="#EBB8C0"/>
<path d="M180.27 135.52H57.8398V135.81H180.27V135.52Z" fill="#EBB8C0"/>
<path d="M151.19 113.109H150.9V124.549H151.19V113.109Z" fill="#EBB8C0"/>
<path d="M85.749 48.5596H85.459V55.5396H85.749V48.5596Z" fill="#EBB8C0"/>
<path d="M63.8703 140.38L68.1803 48.8701L63.5603 52.6101L59.7603 53.5001L54.8203 140.22L63.8703 140.38Z" fill="url(#paint4_linear_3994_146324)"/>
<path d="M53.4902 140.16L59.5902 140.44L63.5602 52.6104L59.7602 53.5004L53.4902 140.16Z" fill="url(#paint5_linear_3994_146324)"/>
<path d="M21.3195 139.36L28.6995 56.5801L24.2495 57.1401L15.9395 139.2L21.3195 139.36Z" fill="url(#paint6_linear_3994_146324)"/>
<path d="M21.3203 139.36L22.8803 139.16L29.8303 56.7901L28.7003 56.5801L21.3203 139.36Z" fill="url(#paint7_linear_3994_146324)"/>
<path style="mix-blend-mode:multiply" d="M21.3203 85.0704L26.4403 81.9604L27.5903 83.3403L58.3503 73.0404L58.5303 69.4704L62.4903 68.1204L63.5603 52.6104L24.2503 57.1404L21.3203 85.0704Z" fill="url(#paint8_linear_3994_146324)"/>
<path d="M172.711 48.1602L176.601 140.34H180.271L177.821 52.9602L172.711 48.1602Z" fill="url(#paint9_linear_3994_146324)"/>
<path d="M172.97 140.55L172.09 47.5801L172.71 48.1601L176.6 140.34L172.97 140.55Z" fill="url(#paint10_linear_3994_146324)"/>
<path d="M172.97 54.4498L124.27 7.5798L127.3 5.5498L177.82 52.9598L172.97 54.4498Z" fill="url(#paint11_linear_3994_146324)"/>
<path d="M172.331 55.5401L172.971 54.4501L124.271 7.58008L123.641 8.00008L172.331 55.5401Z" fill="url(#paint12_linear_3994_146324)"/>
<path d="M172.97 54.4503L67.9598 53.5303L67.5898 61.4403L173.23 60.4203L172.97 54.4503Z" fill="url(#paint13_linear_3994_146324)"/>
<path d="M68.0802 51.09L125.12 8.40004L124.27 6.79004L95.8002 26.64L66.4902 48.87L68.0802 51.09Z" fill="url(#paint14_linear_3994_146324)"/>
<path d="M14.6992 54.45L85.3692 5.52L128.459 0L57.5092 53.58L14.6992 54.45Z" fill="url(#paint15_linear_3994_146324)"/>
<path d="M189.76 57.03L128.46 0L57.5098 53.58L59.4898 55.91L94.9298 27.22L128.28 4.9L187.53 59.23L189.76 57.03Z" fill="url(#paint16_linear_3994_146324)"/>
<path d="M14.6992 54.4501L18.7392 57.4901L41.3492 56.0701L59.4892 55.9101L57.5092 53.5801L14.6992 54.4501Z" fill="#772360"/>
<path d="M173.23 60.4199L172.23 62.3699L67.5898 61.4399V60.4199H173.23Z" fill="url(#paint17_linear_3994_146324)"/>
<path d="M220.449 99.8896H179.359V100.18H220.449V99.8896Z" fill="#EBB8C0"/>
<path d="M220.97 107.64H179.43V107.93H220.97V107.64Z" fill="#EBB8C0"/>
<path d="M221.79 120.21L180.26 118.98L180.27 118.68L221.8 119.91L221.79 120.21Z" fill="#EBB8C0"/>
<path style="mix-blend-mode:multiply" d="M133.63 50.4608L130.86 52.6908L104.82 53.6208V48.5108L106.96 47.3408V50.9008L133.63 50.4608Z" fill="url(#paint18_linear_3994_146324)"/>
<path d="M109.852 19.1504V49.4204L134.202 49.2004L133.182 19.2104L109.852 19.1504Z" fill="url(#paint19_linear_3994_146324)"/>
<path d="M112.941 45.9107H131.261L131.301 21.4407L112.941 20.9707V45.9107Z" fill="url(#paint20_linear_3994_146324)"/>
<path d="M109.851 19.1504L109.071 20.3404L108.551 47.6104L109.851 46.8404V19.1504Z" fill="url(#paint21_linear_3994_146324)"/>
<path d="M108.65 46.8408V50.9008L136.25 51.0708V46.8408H108.65Z" fill="url(#paint22_linear_3994_146324)"/>
<path d="M108.651 46.8408L106.961 47.3408V50.9008H108.651V46.8408Z" fill="url(#paint23_linear_3994_146324)"/>
<path d="M130.48 21.4404L130.93 45.9104H131.26L131.3 21.4404H130.48Z" fill="url(#paint24_linear_3994_146324)"/>
<path d="M112.941 20.9701L110.951 19.8701L112.941 21.5601V20.9701Z" fill="url(#paint25_linear_3994_146324)"/>
<path d="M113.081 41.4303L131.621 41.5103V38.6103L112.941 38.5703L113.081 41.4303Z" fill="url(#paint26_linear_3994_146324)"/>
<path style="mix-blend-mode:screen" d="M116.24 21.4404L126.91 37.9604L129.63 37.8304L129.76 22.0304L116.24 21.4404Z" fill="url(#paint27_linear_3994_146324)"/>
<path d="M112.941 38.5699L112.301 39.0899L131.621 38.6099L131.201 38.1699L112.941 38.5699Z" fill="white"/>
<path style="mix-blend-mode:multiply" d="M177.82 55.5398C177.82 55.5398 139.3 28.0798 109.09 22.0598L68.1797 48.8798L94.9297 27.2298L127.3 5.5498L177.82 52.9598V55.5398Z" fill="url(#paint28_linear_3994_146324)"/>
<path d="M223.15 140.34L220.04 93.8203H215.27L219.21 140.25L223.15 140.34Z" fill="url(#paint29_linear_3994_146324)"/>
<path d="M216.15 140.55L213.07 93.7197L215.27 93.8197L219.21 140.25L216.15 140.55Z" fill="url(#paint30_linear_3994_146324)"/>
<path style="mix-blend-mode:multiply" d="M179.361 101.74L213.691 103.22L216.141 102.48H220.621L220.041 93.8202L179.061 93.2002L179.361 101.74Z" fill="url(#paint31_linear_3994_146324)"/>
<path style="mix-blend-mode:multiply" opacity="0.5" d="M66.8496 77.2003H120.81L172.36 75.8203V76.5103L66.8496 79.1703V77.2003Z" fill="url(#paint32_linear_3994_146324)"/>
<path style="mix-blend-mode:multiply" opacity="0.5" d="M67.5898 61.4404V62.8304L172.24 63.5004L172.23 62.3704L67.5898 61.4404Z" fill="url(#paint33_linear_3994_146324)"/>
<path style="mix-blend-mode:multiply" opacity="0.5" d="M65.9102 97.18L66.0002 95.21L93.8702 96.72L65.9102 97.18Z" fill="url(#paint34_linear_3994_146324)"/>
<path style="mix-blend-mode:multiply" opacity="0.5" d="M172.711 135.67H139.301L172.921 134.5L172.711 135.67Z" fill="url(#paint35_linear_3994_146324)"/>
<path style="mix-blend-mode:multiply" d="M163.009 102.79L160.239 105.02L134.199 105.94V100.83L136.339 99.6602V103.22L163.009 102.79Z" fill="url(#paint36_linear_3994_146324)"/>
<path d="M139.221 71.4704V101.74L163.571 101.52L162.561 70.3604L139.221 71.4704Z" fill="url(#paint37_linear_3994_146324)"/>
<path d="M160.64 73.3008H142.32V98.2408H160.64V73.3008Z" fill="url(#paint38_linear_3994_146324)"/>
<path d="M139.22 71.4707L138.44 72.6607L137.93 99.9307L139.22 99.1607V71.4707Z" fill="url(#paint39_linear_3994_146324)"/>
<path d="M142.32 73.3008V98.2408H147.83L149.79 73.3008H142.32Z" fill="url(#paint40_linear_3994_146324)"/>
<path d="M138.029 99.1602V103.22L165.629 102.74V99.1602H138.029Z" fill="url(#paint41_linear_3994_146324)"/>
<path d="M138.03 99.1602L136.34 99.6602V103.22H138.03V99.1602Z" fill="url(#paint42_linear_3994_146324)"/>
<path d="M159.83 73.3008L160.31 98.2408H160.64V73.3008H159.83Z" fill="url(#paint43_linear_3994_146324)"/>
<path d="M142.32 73.3002L140.32 72.2002L142.32 73.8802V73.3002Z" fill="url(#paint44_linear_3994_146324)"/>
<path d="M160.64 73.3005L161.96 71.0205L159.83 73.3005H160.64Z" fill="url(#paint45_linear_3994_146324)"/>
<path d="M142.32 93.3905L160.64 92.8305V90.0205L142.32 90.9005V93.3905Z" fill="url(#paint46_linear_3994_146324)"/>
<path style="mix-blend-mode:screen" d="M151.4 74.6201L156.46 90.0201H159.07V74.6201H151.4Z" fill="url(#paint47_linear_3994_146324)"/>
<path d="M142.32 90.9005L141.32 91.7005L161.96 90.9005L160.64 90.0205L142.32 90.9005Z" fill="white"/>
<path style="mix-blend-mode:multiply" opacity="0.5" d="M56.0406 104.95L39.5006 105.94L25.6406 106.4L55.9706 105.94L56.0406 104.95Z" fill="url(#paint48_linear_3994_146324)"/>
<path style="mix-blend-mode:multiply" opacity="0.5" d="M26.6406 94.6296L54.8206 93.3896H26.7406L26.6406 94.6296Z" fill="url(#paint49_linear_3994_146324)"/>
<path style="mix-blend-mode:multiply" opacity="0.5" d="M24.9707 114.41L55.4207 113.47L55.3707 114.16L24.9707 114.77V114.41Z" fill="url(#paint50_linear_3994_146324)"/>
<path style="mix-blend-mode:multiply" opacity="0.5" d="M57.8798 79.5204L27.5898 83.3404L57.9198 78.9004L57.8798 79.5204Z" fill="url(#paint51_linear_3994_146324)"/>
<path style="mix-blend-mode:multiply" d="M106.571 6.9502L64.3507 40.8002L24.9707 47.3402L47.0307 32.0602L106.571 6.9502Z" fill="url(#paint52_linear_3994_146324)"/>
<path opacity="0.5" d="M45.96 53.5204L116.24 4.90039L42.75 54.4504L45.96 53.5204Z" fill="#772360"/>
<path opacity="0.5" d="M29.8306 54.6498L85.6106 16.2598L26.6406 55.5398L29.8306 54.6498Z" fill="#772360"/>
<path opacity="0.5" d="M47.0293 32.06L64.1593 30.54L48.1293 31.3L47.0293 32.06Z" fill="#772360"/>
<path opacity="0.5" d="M85.6104 16.2596L103.42 13.8096L83.9004 17.3996L85.6104 16.2596Z" fill="#772360"/>
<path opacity="0.5" d="M186.061 63.5L199.841 83.34L186.731 63.56L186.061 63.5Z" fill="#772360"/>
<path opacity="0.5" d="M213.07 73.8799H193.93L214.46 74.6199L213.07 73.8799Z" fill="#772360"/>
<path style="mix-blend-mode:multiply" opacity="0.5" d="M224.849 83.3401L180.269 82.3201L178.119 62.8301L179.059 93.2001L229.319 93.9601L224.849 83.3401Z" fill="url(#paint53_linear_3994_146324)"/>
<path style="mix-blend-mode:soft-light" opacity="0.5" d="M29.8301 54.6496L44.1101 53.5296L76.7001 31.5596L57.5101 35.8996L29.8301 54.6496Z" fill="url(#paint54_linear_3994_146324)"/>
<path style="mix-blend-mode:multiply" opacity="0.5" d="M214.721 118.83H184.711L214.721 119.85V118.83Z" fill="url(#paint55_linear_3994_146324)"/>
<path d="M47.0293 39.3096V25.7796L58.5293 3.80957L68.1793 11.0496L65.9093 37.9596L47.0293 39.3096Z" fill="url(#paint56_linear_3994_146324)"/>
<path d="M65.9102 37.9598L79.5002 26.5398L68.1802 11.0498L65.9102 37.9598Z" fill="url(#paint57_linear_3994_146324)"/>
<path d="M69.6794 27.22L57.6094 0L106.569 6.95L80.7394 25.86L69.6794 27.22Z" fill="url(#paint58_linear_3994_146324)"/>
<path d="M41.8906 30.45L42.9906 31.3L57.6106 3.02L69.3306 29.49L69.6806 27.22L57.6106 0L41.8906 30.45Z" fill="url(#paint59_linear_3994_146324)"/>
<path d="M69.3301 29.4904L78.2201 27.7804L80.7401 25.8604L69.6801 27.2204L69.3301 29.4904Z" fill="#772360"/>
<path d="M50.0605 28.6302L57.0405 14.4902L64.1605 27.5002L50.0605 28.6302Z" fill="url(#paint60_linear_3994_146324)"/>
<path d="M52.2207 27.2204L61.5007 25.8604L57.1107 17.9404L53.2607 24.5004L52.2207 27.2204Z" fill="url(#paint61_linear_3994_146324)"/>
<path d="M57.0391 14.4902L58.5291 15.6002L64.9291 27.5002H64.1591L57.0391 14.4902Z" fill="url(#paint62_linear_3994_146324)"/>
<path d="M52.2207 27.2204L52.7907 27.1404L57.5107 18.6704L57.1107 17.9404L53.2607 24.5004L52.2207 27.2204Z" fill="url(#paint63_linear_3994_146324)"/>
<path d="M56.1191 26.6504L57.1091 17.9404H57.6091L57.1091 26.5004L56.1191 26.6504Z" fill="url(#paint64_linear_3994_146324)"/>
<path d="M57.6094 26.4299L57.9194 19.3899L57.5094 18.6699L57.1094 26.4999L57.6094 26.4299Z" fill="url(#paint65_linear_3994_146324)"/>
<path style="mix-blend-mode:multiply" d="M78.2193 27.7802L66.4893 31.4402C66.4893 31.4402 61.6893 11.9502 56.1193 9.39016L47.0293 25.7902L58.2193 4.41016L69.3293 29.5102L78.2293 27.8002L78.2193 27.7802Z" fill="url(#paint66_linear_3994_146324)"/>
<path opacity="0.3" d="M64.9297 1.04004L70.7297 15.65L65.9097 1.18004L64.9297 1.04004Z" fill="#772360"/>
<path opacity="0.3" d="M82.0891 24.8699L74.3691 2.37988L75.0291 2.46988L83.1791 24.0699L82.0891 24.8699Z" fill="#772360"/>
<path d="M91.2109 140.55L93.0609 87L94.9209 86.79L94.0109 140.55H91.2109Z" fill="url(#paint67_linear_3994_146324)"/>
<path d="M94.0098 140.55L97.5998 140.44L99.2698 90.74L124.59 90.6V140.23L129.23 140.4L129.89 87.73L94.9198 86.79L94.0098 140.55Z" fill="url(#paint68_linear_3994_146324)"/>
<path d="M122.82 140.35V92.0702L99.2696 90.7402L97.5996 140.44L122.82 140.35Z" fill="url(#paint69_linear_3994_146324)"/>
<path d="M124.59 140.23V90.6001L127.31 89.0801L122.82 90.7301H100.6L122.82 92.0701V140.35L124.59 140.23Z" fill="url(#paint70_linear_3994_146324)"/>
<path style="mix-blend-mode:multiply" opacity="0.2" d="M101.35 140.08L103.8 90.5098L101.68 140.25L101.35 140.08Z" fill="url(#paint71_linear_3994_146324)"/>
<path style="mix-blend-mode:multiply" opacity="0.2" d="M111.91 91.4102L111.51 137.4L112.31 91.4102H111.91Z" fill="url(#paint72_linear_3994_146324)"/>
<path style="mix-blend-mode:multiply" opacity="0.2" d="M101.35 93.3896L100.6 118.83H121.65L121.06 93.3896H101.35Z" fill="url(#paint73_linear_3994_146324)"/>
<path style="mix-blend-mode:multiply" opacity="0.2" d="M101.43 123.25L100.82 139.36H120.77V123.25H101.43Z" fill="url(#paint74_linear_3994_146324)"/>
<path style="mix-blend-mode:multiply" d="M99.2695 90.7402V92.4802C99.2695 92.4802 117.53 96.5002 119.96 98.2402C122.39 99.9802 122.82 140.36 122.82 140.36V92.0802L99.2695 90.7402Z" fill="url(#paint75_linear_3994_146324)"/>
<g style="mix-blend-mode:soft-light">
<path d="M101.43 123.25L102.39 123.93H119.87L120.77 123.25H101.43Z" fill="white"/>
</g>
<path style="mix-blend-mode:multiply" opacity="0.5" d="M100.6 118.83L101.43 118.07H120.77L121.65 118.83H100.6Z" fill="url(#paint76_linear_3994_146324)"/>
<path style="mix-blend-mode:multiply" d="M93.0601 87L91.2101 89.95L87.0801 140.25L91.2101 140.55L93.0601 87Z" fill="url(#paint77_linear_3994_146324)"/>
<path d="M100.35 122.33C100.946 122.33 101.43 121.547 101.43 120.58C101.43 119.614 100.946 118.83 100.35 118.83C99.7531 118.83 99.2695 119.614 99.2695 120.58C99.2695 121.547 99.7531 122.33 100.35 122.33Z" fill="url(#paint78_linear_3994_146324)"/>
<path d="M94.9208 86.79C94.9208 86.79 94.0408 114.08 94.0108 115.59C93.9908 117.1 94.0108 138.6 94.0108 138.6L95.5308 108.76L94.9208 86.79Z" fill="white"/>
<path opacity="0.3" d="M95.8008 5.41992L98.1508 12.0199L96.6408 5.54992L95.8008 5.41992Z" fill="#772360"/>
<path d="M0 141.61L5.08 138.33L244.46 139.52L248.37 142.43L0 141.61Z" fill="url(#paint79_linear_3994_146324)"/>
<path style="mix-blend-mode:multiply" d="M248.37 142.43L58.79 141.22L59.32 138.6L5.08 138.33L0 141.61L248.37 142.43Z" fill="url(#paint80_linear_3994_146324)"/>
<path d="M59.7092 138.6C59.7092 138.6 60.1492 106.26 60.4592 103.22C60.7792 100.18 63.2892 67.0703 63.2892 67.0703L59.6992 138.6H59.7092Z" fill="white"/>
<path d="M176.17 130.29L174.34 100.55L174.07 80.4404L175.75 111.84L176.17 130.29Z" fill="white"/>
<path d="M60.8105 51.0901L66.4905 45.2301L98.5605 22.5801L60.8105 51.0901Z" fill="#FFAE7C"/>
<path d="M22.7793 122.99L23.1293 105.68L26.0793 85.9502L22.7793 122.99Z" fill="#FFDBDD"/>
<path style="mix-blend-mode:multiply" opacity="0.2" d="M23.5395 131.3L54.2395 129.8L53.6195 138.39L22.9395 138.42L23.5395 131.3Z" fill="url(#paint81_linear_3994_146324)"/>
<path d="M215.27 129.21H179.99V129.5H215.27V129.21Z" fill="#EBB8C0"/>
<path style="mix-blend-mode:multiply" opacity="0.2" d="M180.27 139.36V130.29H215.48L216.14 139.36H180.27Z" fill="url(#paint82_linear_3994_146324)"/>
<path style="mix-blend-mode:multiply" opacity="0.5" d="M170.35 139.15L171.5 63.5001L172.23 62.3701L172.96 139.17L170.35 139.15Z" fill="url(#paint83_linear_3994_146324)"/>
<g style="mix-blend-mode:soft-light">
<path d="M244.46 139.52L246.62 141.13L131.32 140.35L128.23 139.52L59.5898 140.44L59.7098 138.6L244.46 139.52Z" fill="white"/>
</g>
<path d="M9.34961 141.65V126.69H10.0096L11.3296 135.01L11.0796 131.2L11.3296 131.35L11.8696 135.36L12.5696 125.82H13.1896L13.4096 132.23L13.6696 129.8L15.1896 130.09V134.75L16.2896 126.8L18.3396 127.17V129.8L18.8296 127.19L19.8096 127.73L19.3196 141.65L20.4896 135.77L20.8096 135.85L20.2696 141.65H9.34961Z" fill="#5F5400"/>
<path d="M24.0898 141.65V135.7H24.3598L24.8798 139.01L24.7798 137.5L24.8798 137.55L25.0898 139.15L25.3798 135.36H25.6198L25.7098 137.9L25.8098 136.94L26.4198 137.05V138.9L26.8498 135.75L27.6698 135.89V136.94L27.8598 135.9L28.2498 136.12L28.0598 141.65L28.5298 139.31L28.6498 139.34L28.4398 141.65H24.0898Z" fill="#5F5400"/>
</g>
<defs>
<linearGradient id="paint0_linear_3994_146324" x1="118.89" y1="140.34" x2="118.89" y2="2.78027" gradientUnits="userSpaceOnUse">
<stop stop-color="#FFDFE7"/>
<stop offset="1" stop-color="#FFEAC0"/>
</linearGradient>
<linearGradient id="paint1_linear_3994_146324" x1="41.3501" y1="140.34" x2="41.3501" y2="48.1602" gradientUnits="userSpaceOnUse">
<stop stop-color="#C295CC"/>
<stop offset="1" stop-color="#E0AFC0"/>
</linearGradient>
<linearGradient id="paint2_linear_3994_146324" x1="203.719" y1="93.9601" x2="203.719" y2="62.8301" gradientUnits="userSpaceOnUse">
<stop stop-color="#953D6E"/>
<stop offset="1" stop-color="#E7617F"/>
</linearGradient>
<linearGradient id="paint3_linear_3994_146324" x1="201.111" y1="0.00019602" x2="201.111" y2="93.2002" gradientUnits="userSpaceOnUse">
<stop stop-color="#FFDFE7"/>
<stop offset="1" stop-color="#FFEAC0"/>
</linearGradient>
<linearGradient id="paint4_linear_3994_146324" x1="61.5003" y1="140.38" x2="61.5003" y2="48.8701" gradientUnits="userSpaceOnUse">
<stop stop-color="#FFDFE7"/>
<stop offset="1" stop-color="#FFFCFE"/>
</linearGradient>
<linearGradient id="paint5_linear_3994_146324" x1="58.5302" y1="140.44" x2="58.5302" y2="52.6104" gradientUnits="userSpaceOnUse">
<stop stop-color="#D6ACE9"/>
<stop offset="1" stop-color="#F9D2C1"/>
</linearGradient>
<linearGradient id="paint6_linear_3994_146324" x1="22.3195" y1="139.36" x2="22.3195" y2="56.5801" gradientUnits="userSpaceOnUse">
<stop stop-color="#D6ACE9"/>
<stop offset="1" stop-color="#F9D2C1"/>
</linearGradient>
<linearGradient id="paint7_linear_3994_146324" x1="25.5703" y1="139.36" x2="25.5703" y2="56.5801" gradientUnits="userSpaceOnUse">
<stop stop-color="#F2C0EE"/>
<stop offset="1" stop-color="#F9D9CD"/>
</linearGradient>
<linearGradient id="paint8_linear_3994_146324" x1="42.4403" y1="85.0704" x2="42.4403" y2="52.6104" gradientUnits="userSpaceOnUse">
<stop stop-color="#C295CC"/>
<stop offset="1" stop-color="#E0AFC0"/>
</linearGradient>
<linearGradient id="paint9_linear_3994_146324" x1="176.491" y1="140.34" x2="176.491" y2="48.1602" gradientUnits="userSpaceOnUse">
<stop stop-color="#FFDFE7"/>
<stop offset="1" stop-color="#FFFCFE"/>
</linearGradient>
<linearGradient id="paint10_linear_3994_146324" x1="174.34" y1="140.55" x2="174.34" y2="47.5801" gradientUnits="userSpaceOnUse">
<stop stop-color="#C295CC"/>
<stop offset="1" stop-color="#E0AFC0"/>
</linearGradient>
<linearGradient id="paint11_linear_3994_146324" x1="151.05" y1="54.4498" x2="151.05" y2="5.5498" gradientUnits="userSpaceOnUse">
<stop stop-color="#FFF1F4"/>
<stop offset="1" stop-color="#FFFCFE"/>
</linearGradient>
<linearGradient id="paint12_linear_3994_146324" x1="148.311" y1="55.5401" x2="148.311" y2="7.58008" gradientUnits="userSpaceOnUse">
<stop stop-color="#C295CC"/>
<stop offset="1" stop-color="#E0AFC0"/>
</linearGradient>
<linearGradient id="paint13_linear_3994_146324" x1="67.5898" y1="57.4803" x2="173.23" y2="57.4803" gradientUnits="userSpaceOnUse">
<stop stop-color="#FFF1F4"/>
<stop offset="1" stop-color="#FFFCFE"/>
</linearGradient>
<linearGradient id="paint14_linear_3994_146324" x1="95.8002" y1="51.09" x2="95.8002" y2="6.79004" gradientUnits="userSpaceOnUse">
<stop stop-color="#FFDFE7"/>
<stop offset="1" stop-color="#FFFCFE"/>
</linearGradient>
<linearGradient id="paint15_linear_3994_146324" x1="71.5792" y1="54.45" x2="71.5792" y2="0" gradientUnits="userSpaceOnUse">
<stop stop-color="#953D6E"/>
<stop offset="1" stop-color="#E7617F"/>
</linearGradient>
<linearGradient id="paint16_linear_3994_146324" x1="123.64" y1="59.23" x2="123.64" y2="0" gradientUnits="userSpaceOnUse">
<stop stop-color="#FF8378"/>
<stop offset="1" stop-color="#FF9063"/>
</linearGradient>
<linearGradient id="paint17_linear_3994_146324" x1="67.5898" y1="61.3999" x2="173.23" y2="61.3999" gradientUnits="userSpaceOnUse">
<stop stop-color="#C295CC"/>
<stop offset="1" stop-color="#E0AFC0"/>
</linearGradient>
<linearGradient id="paint18_linear_3994_146324" x1="119.23" y1="53.6208" x2="119.23" y2="47.3408" gradientUnits="userSpaceOnUse">
<stop stop-color="#C295CC"/>
<stop offset="1" stop-color="#E0AFC0"/>
</linearGradient>
<linearGradient id="paint19_linear_3994_146324" x1="122.022" y1="49.4204" x2="122.022" y2="19.1504" gradientUnits="userSpaceOnUse">
<stop stop-color="#FFDFE7"/>
<stop offset="1" stop-color="#FFFCFE"/>
</linearGradient>
<linearGradient id="paint20_linear_3994_146324" x1="122.121" y1="45.9107" x2="122.121" y2="20.9707" gradientUnits="userSpaceOnUse">
<stop stop-color="#695789"/>
<stop offset="1" stop-color="#9978B0"/>
</linearGradient>
<linearGradient id="paint21_linear_3994_146324" x1="109.201" y1="47.6104" x2="109.201" y2="19.1504" gradientUnits="userSpaceOnUse">
<stop stop-color="#C295CC"/>
<stop offset="1" stop-color="#E0AFC0"/>
</linearGradient>
<linearGradient id="paint22_linear_3994_146324" x1="108.65" y1="48.9508" x2="136.25" y2="48.9508" gradientUnits="userSpaceOnUse">
<stop stop-color="#FFF1F5"/>
<stop offset="1" stop-color="#FFFCFE"/>
</linearGradient>
<linearGradient id="paint23_linear_3994_146324" x1="107.811" y1="50.9008" x2="107.811" y2="46.8408" gradientUnits="userSpaceOnUse">
<stop stop-color="#C295CC"/>
<stop offset="1" stop-color="#E0AFC0"/>
</linearGradient>
<linearGradient id="paint24_linear_3994_146324" x1="130.89" y1="45.9104" x2="130.89" y2="21.4404" gradientUnits="userSpaceOnUse">
<stop stop-color="#C295CC"/>
<stop offset="1" stop-color="#E0AFC0"/>
</linearGradient>
<linearGradient id="paint25_linear_3994_146324" x1="111.941" y1="21.5601" x2="111.941" y2="19.8701" gradientUnits="userSpaceOnUse">
<stop stop-color="#C295CC"/>
<stop offset="1" stop-color="#E0AFC0"/>
</linearGradient>
<linearGradient id="paint26_linear_3994_146324" x1="122.281" y1="41.5103" x2="122.281" y2="38.5703" gradientUnits="userSpaceOnUse">
<stop stop-color="#FFDFE7"/>
<stop offset="1" stop-color="#FFFCFE"/>
</linearGradient>
<linearGradient id="paint27_linear_3994_146324" x1="123" y1="37.9604" x2="123" y2="21.4404" gradientUnits="userSpaceOnUse">
<stop/>
<stop offset="0.14" stop-color="#050405"/>
<stop offset="0.31" stop-color="#151214"/>
<stop offset="0.51" stop-color="#30292D"/>
<stop offset="0.72" stop-color="#544950"/>
<stop offset="0.95" stop-color="#83717D"/>
<stop offset="1" stop-color="#907C89"/>
</linearGradient>
<linearGradient id="paint28_linear_3994_146324" x1="123" y1="55.5398" x2="123" y2="5.5498" gradientUnits="userSpaceOnUse">
<stop stop-color="#C295CC"/>
<stop offset="1" stop-color="#E0AFC0"/>
</linearGradient>
<linearGradient id="paint29_linear_3994_146324" x1="219.21" y1="140.34" x2="219.21" y2="93.8203" gradientUnits="userSpaceOnUse">
<stop stop-color="#FFDFE7"/>
<stop offset="1" stop-color="#FFFCFE"/>
</linearGradient>
<linearGradient id="paint30_linear_3994_146324" x1="216.14" y1="140.55" x2="216.14" y2="93.7197" gradientUnits="userSpaceOnUse">
<stop stop-color="#C295CC"/>
<stop offset="1" stop-color="#E0AFC0"/>
</linearGradient>
<linearGradient id="paint31_linear_3994_146324" x1="199.841" y1="103.22" x2="199.841" y2="93.2002" gradientUnits="userSpaceOnUse">
<stop stop-color="#C295CC"/>
<stop offset="1" stop-color="#E0AFC0"/>
</linearGradient>
<linearGradient id="paint32_linear_3994_146324" x1="119.6" y1="79.1703" x2="119.6" y2="75.8203" gradientUnits="userSpaceOnUse">
<stop stop-color="#C295CC"/>
<stop offset="1" stop-color="#E0AFC0"/>
</linearGradient>
<linearGradient id="paint33_linear_3994_146324" x1="119.92" y1="63.5004" x2="119.92" y2="61.4404" gradientUnits="userSpaceOnUse">
<stop stop-color="#C295CC"/>
<stop offset="1" stop-color="#E0AFC0"/>
</linearGradient>
<linearGradient id="paint34_linear_3994_146324" x1="79.8902" y1="97.18" x2="79.8902" y2="95.21" gradientUnits="userSpaceOnUse">
<stop stop-color="#C295CC"/>
<stop offset="1" stop-color="#E0AFC0"/>
</linearGradient>
<linearGradient id="paint35_linear_3994_146324" x1="156.111" y1="135.67" x2="156.111" y2="134.5" gradientUnits="userSpaceOnUse">
<stop stop-color="#C295CC"/>
<stop offset="1" stop-color="#E0AFC0"/>
</linearGradient>
<linearGradient id="paint36_linear_3994_146324" x1="148.599" y1="105.94" x2="148.599" y2="99.6602" gradientUnits="userSpaceOnUse">
<stop stop-color="#C295CC"/>
<stop offset="1" stop-color="#E0AFC0"/>
</linearGradient>
<linearGradient id="paint37_linear_3994_146324" x1="151.401" y1="101.74" x2="151.401" y2="70.3604" gradientUnits="userSpaceOnUse">
<stop stop-color="#FFDFE7"/>
<stop offset="1" stop-color="#FFFCFE"/>
</linearGradient>
<linearGradient id="paint38_linear_3994_146324" x1="151.48" y1="98.2408" x2="151.48" y2="73.3008" gradientUnits="userSpaceOnUse">
<stop stop-color="#695789"/>
<stop offset="1" stop-color="#9978B0"/>
</linearGradient>
<linearGradient id="paint39_linear_3994_146324" x1="138.58" y1="99.9307" x2="138.58" y2="71.4707" gradientUnits="userSpaceOnUse">
<stop stop-color="#C295CC"/>
<stop offset="1" stop-color="#E0AFC0"/>
</linearGradient>
<linearGradient id="paint40_linear_3994_146324" x1="146.05" y1="98.2408" x2="146.05" y2="73.3008" gradientUnits="userSpaceOnUse">
<stop stop-color="#9CACFF"/>
<stop offset="1" stop-color="#C7C9E2"/>
</linearGradient>
<linearGradient id="paint41_linear_3994_146324" x1="138.029" y1="101.19" x2="165.629" y2="101.19" gradientUnits="userSpaceOnUse">
<stop stop-color="#FFF1F5"/>
<stop offset="1" stop-color="#FFFCFE"/>
</linearGradient>
<linearGradient id="paint42_linear_3994_146324" x1="137.18" y1="103.22" x2="137.18" y2="99.1602" gradientUnits="userSpaceOnUse">
<stop stop-color="#C295CC"/>
<stop offset="1" stop-color="#E0AFC0"/>
</linearGradient>
<linearGradient id="paint43_linear_3994_146324" x1="160.24" y1="98.2408" x2="160.24" y2="73.3008" gradientUnits="userSpaceOnUse">
<stop stop-color="#C295CC"/>
<stop offset="1" stop-color="#E0AFC0"/>
</linearGradient>
<linearGradient id="paint44_linear_3994_146324" x1="141.32" y1="73.8802" x2="141.32" y2="72.2002" gradientUnits="userSpaceOnUse">
<stop stop-color="#C295CC"/>
<stop offset="1" stop-color="#E0AFC0"/>
</linearGradient>
<linearGradient id="paint45_linear_3994_146324" x1="160.9" y1="73.3005" x2="160.9" y2="71.0205" gradientUnits="userSpaceOnUse">
<stop stop-color="#C295CC"/>
<stop offset="1" stop-color="#E0AFC0"/>
</linearGradient>
<linearGradient id="paint46_linear_3994_146324" x1="151.48" y1="93.3905" x2="151.48" y2="90.0205" gradientUnits="userSpaceOnUse">
<stop stop-color="#FFDFE7"/>
<stop offset="1" stop-color="#FFFCFE"/>
</linearGradient>
<linearGradient id="paint47_linear_3994_146324" x1="155.24" y1="90.0201" x2="155.24" y2="74.6201" gradientUnits="userSpaceOnUse">
<stop/>
<stop offset="0.14" stop-color="#050405"/>
<stop offset="0.31" stop-color="#151214"/>
<stop offset="0.51" stop-color="#30292D"/>
<stop offset="0.72" stop-color="#544950"/>
<stop offset="0.95" stop-color="#83717D"/>
<stop offset="1" stop-color="#907C89"/>
</linearGradient>
<linearGradient id="paint48_linear_3994_146324" x1="40.8406" y1="106.4" x2="40.8406" y2="104.95" gradientUnits="userSpaceOnUse">
<stop stop-color="#C295CC"/>
<stop offset="1" stop-color="#E0AFC0"/>
</linearGradient>
<linearGradient id="paint49_linear_3994_146324" x1="40.7306" y1="94.6296" x2="40.7306" y2="93.3896" gradientUnits="userSpaceOnUse">
<stop stop-color="#C295CC"/>
<stop offset="1" stop-color="#E0AFC0"/>
</linearGradient>
<linearGradient id="paint50_linear_3994_146324" x1="40.1907" y1="114.77" x2="40.1907" y2="113.47" gradientUnits="userSpaceOnUse">
<stop stop-color="#C295CC"/>
<stop offset="1" stop-color="#E0AFC0"/>
</linearGradient>
<linearGradient id="paint51_linear_3994_146324" x1="42.7498" y1="83.3404" x2="42.7498" y2="78.9004" gradientUnits="userSpaceOnUse">
<stop stop-color="#C295CC"/>
<stop offset="1" stop-color="#E0AFC0"/>
</linearGradient>
<linearGradient id="paint52_linear_3994_146324" x1="24.9707" y1="27.1402" x2="106.571" y2="27.1402" gradientUnits="userSpaceOnUse">
<stop stop-color="#C295CC"/>
<stop offset="1" stop-color="#E0AFC0"/>
</linearGradient>
<linearGradient id="paint53_linear_3994_146324" x1="203.719" y1="93.9601" x2="203.719" y2="62.8301" gradientUnits="userSpaceOnUse">
<stop stop-color="#C295CC"/>
<stop offset="1" stop-color="#E0AFC0"/>
</linearGradient>
<linearGradient id="paint54_linear_3994_146324" x1="53.2601" y1="54.6496" x2="53.2601" y2="31.5596" gradientUnits="userSpaceOnUse">
<stop stop-color="#C295CC"/>
<stop offset="1" stop-color="#E0AFC0"/>
</linearGradient>
<linearGradient id="paint55_linear_3994_146324" x1="199.721" y1="119.85" x2="199.721" y2="118.83" gradientUnits="userSpaceOnUse">
<stop stop-color="#C295CC"/>
<stop offset="1" stop-color="#E0AFC0"/>
</linearGradient>
<linearGradient id="paint56_linear_3994_146324" x1="57.6093" y1="39.3096" x2="57.6093" y2="3.80957" gradientUnits="userSpaceOnUse">
<stop stop-color="#C295CC"/>
<stop offset="1" stop-color="#E0AFC0"/>
</linearGradient>
<linearGradient id="paint57_linear_3994_146324" x1="72.7002" y1="37.9598" x2="72.7002" y2="11.0498" gradientUnits="userSpaceOnUse">
<stop stop-color="#FFDFE7"/>
<stop offset="1" stop-color="#FFEAC0"/>
</linearGradient>
<linearGradient id="paint58_linear_3994_146324" x1="82.0894" y1="27.22" x2="82.0894" y2="0" gradientUnits="userSpaceOnUse">
<stop stop-color="#CF5B6B"/>
<stop offset="1" stop-color="#FF7784"/>
</linearGradient>
<linearGradient id="paint59_linear_3994_146324" x1="41.8906" y1="15.65" x2="69.6806" y2="15.65" gradientUnits="userSpaceOnUse">
<stop stop-color="#CF6155"/>
<stop offset="1" stop-color="#953D6E"/>
</linearGradient>
<linearGradient id="paint60_linear_3994_146324" x1="57.1105" y1="28.6302" x2="57.1105" y2="14.4902" gradientUnits="userSpaceOnUse">
<stop stop-color="#D4B4DB"/>
<stop offset="1" stop-color="#EDD1DA"/>
</linearGradient>
<linearGradient id="paint61_linear_3994_146324" x1="56.8607" y1="27.2204" x2="56.8607" y2="17.9404" gradientUnits="userSpaceOnUse">
<stop stop-color="#695789"/>
<stop offset="1" stop-color="#9978B0"/>
</linearGradient>
<linearGradient id="paint62_linear_3994_146324" x1="60.9791" y1="27.5002" x2="60.9791" y2="14.4902" gradientUnits="userSpaceOnUse">
<stop stop-color="#FFDFE7"/>
<stop offset="1" stop-color="#FFFCFE"/>
</linearGradient>
<linearGradient id="paint63_linear_3994_146324" x1="54.8707" y1="27.2204" x2="54.8707" y2="17.9404" gradientUnits="userSpaceOnUse">
<stop stop-color="#C295CC"/>
<stop offset="1" stop-color="#E0AFC0"/>
</linearGradient>
<linearGradient id="paint64_linear_3994_146324" x1="56.8591" y1="26.6504" x2="56.8591" y2="17.9404" gradientUnits="userSpaceOnUse">
<stop stop-color="#D4B4DB"/>
<stop offset="1" stop-color="#EDD1DA"/>
</linearGradient>
<linearGradient id="paint65_linear_3994_146324" x1="57.5094" y1="26.4999" x2="57.5094" y2="18.6699" gradientUnits="userSpaceOnUse">
<stop stop-color="#C295CC"/>
<stop offset="1" stop-color="#E0AFC0"/>
</linearGradient>
<linearGradient id="paint66_linear_3994_146324" x1="62.6293" y1="31.4302" x2="62.6293" y2="4.40016" gradientUnits="userSpaceOnUse">
<stop stop-color="#C295CC"/>
<stop offset="1" stop-color="#E0AFC0"/>
</linearGradient>
<linearGradient id="paint67_linear_3994_146324" x1="93.0609" y1="140.55" x2="93.0609" y2="86.79" gradientUnits="userSpaceOnUse">
<stop stop-color="#C295CC"/>
<stop offset="1" stop-color="#E0AFC0"/>
</linearGradient>
<linearGradient id="paint68_linear_3994_146324" x1="111.95" y1="140.55" x2="111.95" y2="86.79" gradientUnits="userSpaceOnUse">
<stop stop-color="#FFECF1"/>
<stop offset="1" stop-color="#FFFCFE"/>
</linearGradient>
<linearGradient id="paint69_linear_3994_146324" x1="110.21" y1="140.44" x2="110.21" y2="90.7402" gradientUnits="userSpaceOnUse">
<stop stop-color="#9CACFF"/>
<stop offset="1" stop-color="#C7C9E2"/>
</linearGradient>
<linearGradient id="paint70_linear_3994_146324" x1="113.95" y1="140.35" x2="113.95" y2="89.0801" gradientUnits="userSpaceOnUse">
<stop stop-color="#C295CC"/>
<stop offset="1" stop-color="#E0AFC0"/>
</linearGradient>
<linearGradient id="paint71_linear_3994_146324" x1="102.57" y1="140.25" x2="102.57" y2="90.5098" gradientUnits="userSpaceOnUse">
<stop stop-color="#C295CC"/>
<stop offset="1" stop-color="#E0AFC0"/>
</linearGradient>
<linearGradient id="paint72_linear_3994_146324" x1="111.91" y1="137.4" x2="111.91" y2="91.4102" gradientUnits="userSpaceOnUse">
<stop stop-color="#C295CC"/>
<stop offset="1" stop-color="#E0AFC0"/>
</linearGradient>
<linearGradient id="paint73_linear_3994_146324" x1="111.12" y1="118.83" x2="111.12" y2="93.3896" gradientUnits="userSpaceOnUse">
<stop stop-color="#C295CC"/>
<stop offset="1" stop-color="#E0AFC0"/>
</linearGradient>
<linearGradient id="paint74_linear_3994_146324" x1="110.8" y1="139.36" x2="110.8" y2="123.25" gradientUnits="userSpaceOnUse">
<stop stop-color="#C295CC"/>
<stop offset="1" stop-color="#E0AFC0"/>
</linearGradient>
<linearGradient id="paint75_linear_3994_146324" x1="111.04" y1="140.35" x2="111.04" y2="90.7402" gradientUnits="userSpaceOnUse">
<stop stop-color="#C295CC"/>
<stop offset="1" stop-color="#E0AFC0"/>
</linearGradient>
<linearGradient id="paint76_linear_3994_146324" x1="111.12" y1="118.83" x2="111.12" y2="118.07" gradientUnits="userSpaceOnUse">
<stop stop-color="#C295CC"/>
<stop offset="1" stop-color="#E0AFC0"/>
</linearGradient>
<linearGradient id="paint77_linear_3994_146324" x1="90.0701" y1="140.55" x2="90.0701" y2="87" gradientUnits="userSpaceOnUse">
<stop stop-color="#C295CC"/>
<stop offset="1" stop-color="#E0AFC0"/>
</linearGradient>
<linearGradient id="paint78_linear_3994_146324" x1="100.35" y1="122.32" x2="100.35" y2="118.83" gradientUnits="userSpaceOnUse">
<stop stop-color="#C295CC"/>
<stop offset="1" stop-color="#E0AFC0"/>
</linearGradient>
<linearGradient id="paint79_linear_3994_146324" x1="124.18" y1="142.43" x2="124.18" y2="138.33" gradientUnits="userSpaceOnUse">
<stop stop-color="#B8A1AA"/>
<stop offset="1" stop-color="#CEBBBB"/>
</linearGradient>
<linearGradient id="paint80_linear_3994_146324" x1="124.18" y1="142.43" x2="124.18" y2="138.33" gradientUnits="userSpaceOnUse">
<stop stop-color="#E6DDE1"/>
<stop offset="1" stop-color="#C58EBA"/>
</linearGradient>
<linearGradient id="paint81_linear_3994_146324" x1="38.5895" y1="138.42" x2="38.5895" y2="129.8" gradientUnits="userSpaceOnUse">
<stop stop-color="#C295CC"/>
<stop offset="1" stop-color="#E0AFC0"/>
</linearGradient>
<linearGradient id="paint82_linear_3994_146324" x1="180.27" y1="134.82" x2="216.14" y2="134.82" gradientUnits="userSpaceOnUse">
<stop stop-color="#C295CC"/>
<stop offset="1" stop-color="#E0AFC0"/>
</linearGradient>
<linearGradient id="paint83_linear_3994_146324" x1="171.65" y1="139.17" x2="171.65" y2="62.3701" gradientUnits="userSpaceOnUse">
<stop stop-color="#C295CC"/>
<stop offset="1" stop-color="#E0AFC0"/>
</linearGradient>
<clipPath id="clip0_3994_146324">
<rect width="248.37" height="142.43" fill="white"/>
</clipPath>
</defs>
</svg>
