<svg width="292" height="106" viewBox="0 0 292 106" fill="none" xmlns="http://www.w3.org/2000/svg">
<g clip-path="url(#clip0_3994_146525)">
<path d="M123.74 103.46C123.74 103.46 132.89 48.27 191.5 41.5C254.68 34.2 274.82 103.46 274.82 103.46H123.74Z" fill="url(#paint0_linear_3994_146525)"/>
<path d="M260.47 103.44H10.4004C10.4004 103.44 25.5604 12.0998 122.56 0.889799C141.78 -1.3302 158.59 0.729799 173.23 5.5698C173.23 5.5698 173.23 5.5698 173.27 5.5898C209.93 17.7198 232.98 47.2898 246.11 70.7698C256.26 88.9298 260.48 103.44 260.48 103.44H260.47Z" fill="url(#paint1_linear_3994_146525)"/>
<path d="M112.28 71.0296C112.28 71.0296 117.31 74.0696 129.79 73.2896C142.27 72.5096 172.87 63.3196 197.45 62.6096C222.04 61.9096 237.31 69.6596 237.31 69.6596L208.57 53.3096H156.85L112.28 71.0196V71.0296Z" fill="white"/>
<path d="M237.32 69.6701C237.1 69.5401 233.67 67.4601 227.45 65.2901C226.2 64.8501 224.83 64.4101 223.35 63.9801C215.46 61.6901 204.43 59.7501 190.79 60.4501C161.47 61.9701 111.13 81.0501 109.26 67.1901C107.7 55.6301 121.14 32.8501 143.93 22.1501C145.17 21.5601 146.44 21.0201 147.74 20.5101C156.94 16.9001 167.48 15.2801 179.06 17.0201C213.7 22.2101 236.95 68.9001 237.32 69.6701Z" fill="url(#paint2_linear_3994_146525)"/>
<path style="mix-blend-mode:multiply" opacity="0.3" d="M19.7004 75.2903C19.7004 75.2903 53.5704 91.3603 114.36 95.3803C175.15 99.4003 250.45 79.0403 250.45 79.0403L256.41 92.2303L271.94 95.6603L274.81 103.46L10.4004 103.44C10.4004 103.44 15.5704 83.6303 19.7004 75.2803V75.2903Z" fill="url(#paint3_linear_3994_146525)"/>
<path d="M223.35 63.9798C217.68 62.3398 210.38 60.8698 201.65 60.4398C198.25 60.2698 194.61 60.2498 190.78 60.4398C161.46 61.9598 111.12 81.0398 109.25 67.1798C108.23 59.6598 113.56 47.3998 123.67 36.8098C129.12 31.1098 135.94 25.8798 143.91 22.1398C145.15 21.5498 146.42 21.0098 147.72 20.4998C154.56 18.9898 161.96 18.6198 169.85 19.7998C177.95 21.0198 185.42 24.4898 192.13 29.1198C206.59 39.1098 217.47 54.4598 223.31 63.9498L223.33 63.9698L223.35 63.9798Z" fill="url(#paint4_linear_3994_146525)"/>
<path d="M96.68 103.439H19.54C19.54 103.439 33.11 68.3394 55.5 65.8794C58.33 65.5694 61.02 65.6994 63.54 66.1894C86.13 70.5594 96.67 103.439 96.67 103.439H96.68Z" fill="url(#paint5_linear_3994_146525)"/>
<path d="M96.6801 103.44H29.5801C29.5801 103.44 31.2501 99.1197 34.3901 93.3997C36.8201 88.9597 40.1501 83.6797 44.2601 78.9197C44.2801 78.8997 44.3001 78.8697 44.3201 78.8397C45.8701 77.0597 47.5301 75.3497 49.2901 73.7897C49.3401 73.7397 49.3901 73.6997 49.4401 73.6497C53.5801 70.0297 58.3001 67.2197 63.5401 66.1797C75.5101 68.4897 84.1001 78.8297 89.5301 88.0097C94.3501 96.1697 96.6701 103.43 96.6701 103.43L96.6801 103.44Z" fill="url(#paint6_linear_3994_146525)"/>
<path d="M201.65 60.4394C200.79 60.3894 199.92 60.3594 199.03 60.3394C198.94 60.3394 198.84 60.3394 198.75 60.3394C196.21 60.2894 193.55 60.3093 190.79 60.4594C161.47 61.9794 111.13 81.0593 109.26 67.1993C109.07 65.8193 109.1 64.2794 109.33 62.6194C111.04 50.3694 123.86 31.5794 143.92 22.1594C145.16 21.5694 146.43 21.0294 147.73 20.5194C154.57 19.0094 161.97 18.6394 169.86 19.8194C177.96 21.0394 185.43 24.5093 192.14 29.1393C192.14 29.1393 198.64 37.9694 201.64 60.4494L201.65 60.4394Z" fill="url(#paint7_linear_3994_146525)"/>
<g style="mix-blend-mode:soft-light">
<path d="M118.61 42.7796C118.61 42.7796 166.24 38.8096 198.75 45.6596L198.41 44.2596C198.41 44.2596 176.17 38.4696 119.01 42.2496L118.6 42.7796H118.61Z" fill="url(#paint8_linear_3994_146525)"/>
<path d="M162.689 19.1494C162.689 19.1494 165.229 37.9794 165.299 64.2294L166.239 64.0394C166.239 64.0394 165.769 37.5594 163.729 19.1994L162.689 19.1494Z" fill="url(#paint9_linear_3994_146525)"/>
<path d="M137.72 25.4992L139.3 69.6792L139.99 69.5392L138.21 25.1992L137.72 25.4992Z" fill="url(#paint10_linear_3994_146525)"/>
<path d="M187.14 25.9893C187.14 25.9893 190.99 39.6593 190.79 60.4493L191.39 60.4193C191.39 60.4193 191.47 42.9493 188.05 26.5093L187.14 25.9893Z" fill="url(#paint11_linear_3994_146525)"/>
</g>
<path d="M198.75 60.3294C196.21 60.2794 193.55 60.2994 190.79 60.4494C161.47 61.9694 111.13 81.0494 109.26 67.1894C109.07 65.8094 109.1 64.2694 109.33 62.6094C114.32 62.2494 160.54 59.0394 198.74 60.3294H198.75Z" fill="url(#paint12_linear_3994_146525)"/>
<path d="M109.33 62.6103L181 61.4403C181 61.4403 201.91 59.4103 211.72 61.4403C211.72 61.4403 200.1 56.2203 109.33 62.6103Z" fill="url(#paint13_linear_3994_146525)"/>
<path d="M209.97 60.9899C209.97 60.9899 207.17 47.4299 202.53 37.6799C202.53 37.6799 194.38 30.6099 192.14 29.1299C192.14 29.1299 200 42.6599 201.64 60.4399L209.96 60.9899H209.97Z" fill="url(#paint14_linear_3994_146525)"/>
<path style="mix-blend-mode:multiply" d="M223.33 63.9694C222.49 63.0394 195.48 33.3493 159.39 32.0093C142.59 31.3793 131.14 33.9194 123.69 36.8294C129.14 31.1294 135.96 25.8994 143.93 22.1594C145.17 21.5694 146.44 21.0294 147.74 20.5194C154.58 19.0094 161.98 18.6394 169.87 19.8194C177.97 21.0394 185.44 24.5093 192.15 29.1393C206.61 39.1293 217.49 54.4794 223.33 63.9694Z" fill="url(#paint15_linear_3994_146525)"/>
<g style="mix-blend-mode:multiply" opacity="0.3">
<path d="M201.02 56.1299H195.88L194.97 47.4299L185.74 45.6599V49.7799L176.21 49.0199V51.7199H170.44L169.08 34.5599L156.33 32.6699L157.13 50.0499L143.23 50.5299L136.42 51.7099V44.2599L123.68 46.4499V51.7199L118.61 53.1099L109.33 59.4399V62.6099C109.33 62.6099 172.02 58.0899 201.65 60.4399L201.02 56.1299Z" fill="#6DB1C4"/>
</g>
<path style="mix-blend-mode:screen" d="M176.21 34.6699L180.6 59.7699L199.03 60.3499L195.3 42.4899C195.3 42.4899 183.43 36.3099 176.21 34.6799V34.6699Z" fill="url(#paint16_linear_3994_146525)"/>
<path d="M250.04 103.44H155.49C155.49 103.44 178.41 82.4695 203.69 79.6995C206.85 79.3495 210.04 79.2795 213.22 79.5795C238.93 81.9795 250.04 103.44 250.04 103.44Z" fill="url(#paint17_linear_3994_146525)"/>
<path d="M239.42 103.44H155.49C155.49 103.44 158.76 100.44 164.2 96.5702C170.09 92.3802 178.52 87.1402 188.09 83.5602C193.06 81.7002 198.32 80.2902 203.69 79.7002C228.3 82.5502 239.13 102.88 239.41 103.43L239.42 103.44Z" fill="url(#paint18_linear_3994_146525)"/>
<path d="M221.11 103.44C221.11 103.44 219.87 91.4201 217 86.0401C217 86.0401 195.58 83.4101 182.23 86.0101C182.23 86.0101 164.27 95.3801 155.49 103.44H221.11Z" fill="url(#paint19_linear_3994_146525)"/>
<path d="M96.6798 103.44H40.0498C40.3998 96.9497 41.2498 91.5397 44.2398 78.9497C44.2398 78.9497 44.2398 78.9497 44.2598 78.9197C44.2798 78.8997 44.2998 78.8697 44.3198 78.8397C44.7198 78.3397 46.4498 76.2097 49.2898 73.7897C49.3398 73.7397 49.3898 73.6997 49.4398 73.6497C50.4998 72.7497 51.7198 71.8097 53.0698 70.9097C55.9598 68.9797 59.4898 67.1797 63.5398 66.1797C86.1298 70.5497 96.6698 103.43 96.6698 103.43L96.6798 103.44Z" fill="url(#paint20_linear_3994_146525)"/>
<path d="M219.07 103.44H155.49C155.49 103.44 169.7 90.4396 188.09 83.5596L215.44 85.8696C218.64 92.2196 219.07 103.44 219.07 103.44Z" fill="url(#paint21_linear_3994_146525)"/>
<path d="M218.35 89.3594L217.18 90.6594L173.23 91.0694L174.68 90.2094L218.35 89.3594Z" fill="url(#paint22_linear_3994_146525)"/>
<path d="M219.87 95.3799L218.35 96.3499L164.04 96.8599L165.36 95.9699L219.87 95.3799Z" fill="url(#paint23_linear_3994_146525)"/>
<path d="M220.9 101.73L157.89 101.39L156.85 102.26H219L220.9 101.73Z" fill="url(#paint24_linear_3994_146525)"/>
<path style="mix-blend-mode:multiply" d="M239.41 103.43C238.97 103.06 226.28 91.4702 203.32 91.4202C180.36 91.3702 164.48 96.6802 164.05 96.8502L164.2 96.5702C170.09 92.3802 178.52 87.1402 188.09 83.5602C193.06 81.7002 198.32 80.2902 203.69 79.7002C228.3 82.5502 239.13 102.88 239.41 103.43Z" fill="url(#paint25_linear_3994_146525)"/>
<path d="M96.6798 103.439H49.5898C49.5898 103.439 50.6798 82.5294 53.0798 70.9194C55.9698 68.9894 59.4998 67.1895 63.5498 66.1895C86.1398 70.5595 96.6798 103.439 96.6798 103.439Z" fill="url(#paint26_linear_3994_146525)"/>
<g style="mix-blend-mode:soft-light">
<path d="M72.5698 69.6797C72.5698 69.6797 71.6198 91.4497 71.3398 103.45H71.9498C71.9498 103.45 72.5598 79.2797 74.4598 70.8897L72.5698 69.6797Z" fill="url(#paint27_linear_3994_146525)"/>
<path d="M50.9897 85.5596L88.2297 85.9096L88.8896 86.9596L50.8896 86.5596L50.9897 85.5596Z" fill="url(#paint28_linear_3994_146525)"/>
</g>
<g style="mix-blend-mode:multiply" opacity="0.3">
<path d="M49.5801 103.44H59.1701L63.1301 81.29H75.6001V92.37L77.7001 93.5L78.6801 97.52L95.8501 101.14L96.6801 103.44H49.5801Z" fill="#6DB1C4"/>
</g>
<g style="mix-blend-mode:screen">
<path d="M42.7304 47.5097C40.8504 51.3697 83.9904 51.4897 109.33 44.6097C118.95 41.9997 148.95 6.13966 147.94 3.24966C146.93 0.34966 67.2404 -2.84034 42.7304 47.5097Z" fill="white"/>
</g>
<path style="mix-blend-mode:screen" d="M50.8901 86.5596L61.9601 84.0996L59.1701 103.45H49.5801C49.5801 103.45 50.2101 94.1596 50.8901 86.5696V86.5596Z" fill="url(#paint29_linear_3994_146525)"/>
<path style="mix-blend-mode:multiply" d="M89.5296 88.0197C85.1896 85.6597 79.0397 83.6397 70.6597 83.5597C50.3597 83.3797 34.6396 93.4997 34.6396 93.4997L34.3896 93.3997C36.8196 88.9597 40.1496 83.6797 44.2596 78.9197C44.2796 78.8997 44.2996 78.8697 44.3196 78.8397C45.8696 77.0597 47.5296 75.3497 49.2896 73.7897C49.3397 73.7397 49.3896 73.6997 49.4396 73.6497C53.5796 70.0297 58.2997 67.2197 63.5396 66.1797C75.5097 68.4897 84.0996 78.8297 89.5296 88.0097V88.0197Z" fill="url(#paint30_linear_3994_146525)"/>
<path d="M100.47 27.6902C94.24 34.5202 78.25 36.3802 72.25 33.3702C70.75 32.6202 69.87 31.5602 69.92 30.2102C70.15 23.9602 89.15 8.77016 100.68 9.67016C104.31 9.95016 106.13 11.2902 106.77 13.1602C108.18 17.2302 103.95 23.8702 100.47 27.6902Z" fill="url(#paint31_linear_3994_146525)"/>
<path d="M106.97 16.0599C106.95 16.1699 106.93 16.2799 106.91 16.3899C106.84 16.8199 106.73 17.2499 106.59 17.6999C106.56 17.8199 106.52 17.9399 106.49 18.0399C106.38 18.3799 106.31 18.5799 106.31 18.5799C105.1 21.8399 102.64 25.3199 100.48 27.6899C94.2504 34.5299 78.2704 36.3899 72.2604 33.3699C72.2204 33.1599 72.2104 32.9599 72.2204 32.7499C72.2504 32.0099 72.5404 31.1399 73.0504 30.1899C73.0504 30.1899 73.0504 30.1899 73.0604 30.1699C76.8704 23.0999 92.8304 11.4099 102.98 12.2099C104.58 12.3399 105.82 12.6599 106.78 13.1599C107.08 14.0299 107.13 15.0099 106.97 16.0599Z" fill="url(#paint32_linear_3994_146525)"/>
<path style="mix-blend-mode:screen" d="M86.9999 17.3899C86.9999 17.3899 86.2799 28.1199 86.8099 34.1199L89.5199 33.5199C89.5199 33.5199 93.5199 17.8699 99.2399 12.4199C99.2399 12.4199 92.9099 13.2699 86.9999 17.3899Z" fill="url(#paint33_linear_3994_146525)"/>
<path style="mix-blend-mode:multiply" opacity="0.5" d="M106.97 16.0599C106.95 16.1699 106.93 16.2799 106.91 16.3899C106.78 17.0299 106.62 17.6299 106.49 18.0299C106.38 18.3699 106.31 18.5699 106.31 18.5699C106.31 18.5699 102.47 14.9899 90.2696 18.8999C78.4496 22.6899 73.3696 29.7299 73.0596 30.1699C76.8696 23.0999 92.8296 11.4099 102.98 12.2099C104.58 12.3399 105.82 12.6599 106.78 13.1599C107.2 13.8499 107.16 14.9999 106.97 16.0599Z" fill="url(#paint34_linear_3994_146525)"/>
<path d="M232.67 50.1494C232.67 50.1494 249.29 59.3094 256.09 71.7194L250.45 79.0394C250.45 79.0394 239.51 58.5694 232.67 50.1494Z" fill="white"/>
<path d="M287.67 103.46L4.1 103.43L0 105.09H291.1L287.67 103.46Z" fill="url(#paint35_linear_3994_146525)"/>
<path d="M246.68 72.2098C224.46 28.7698 174.8 6.27984 173.26 5.58984C209.92 17.7198 232.97 47.2898 246.1 70.7698L246.68 72.1998V72.2098Z" fill="white"/>
</g>
<defs>
<linearGradient id="paint0_linear_3994_146525" x1="199.28" y1="103.46" x2="199.28" y2="40.96" gradientUnits="userSpaceOnUse">
<stop stop-color="#FFBEE9"/>
<stop offset="1" stop-color="#FFFFE8"/>
</linearGradient>
<linearGradient id="paint1_linear_3994_146525" x1="135.43" y1="103.44" x2="135.43" y2="-0.000202122" gradientUnits="userSpaceOnUse">
<stop stop-color="#FFDFE7"/>
<stop offset="1" stop-color="white"/>
</linearGradient>
<linearGradient id="paint2_linear_3994_146525" x1="173.23" y1="72.2101" x2="173.23" y2="16.3201" gradientUnits="userSpaceOnUse">
<stop stop-color="#D6ACE9"/>
<stop offset="1" stop-color="#F9D2C1"/>
</linearGradient>
<linearGradient id="paint3_linear_3994_146525" x1="10.4004" y1="89.3703" x2="274.82" y2="89.3703" gradientUnits="userSpaceOnUse">
<stop stop-color="#C295CC"/>
<stop offset="1" stop-color="#E0AFC0"/>
</linearGradient>
<linearGradient id="paint4_linear_3994_146525" x1="166.24" y1="72.2098" x2="166.24" y2="19.1098" gradientUnits="userSpaceOnUse">
<stop stop-color="#F9A295"/>
<stop offset="1" stop-color="#D69AB3"/>
</linearGradient>
<linearGradient id="paint5_linear_3994_146525" x1="58.11" y1="103.439" x2="58.11" y2="65.7094" gradientUnits="userSpaceOnUse">
<stop stop-color="#D6ACE9"/>
<stop offset="1" stop-color="#F9D2C1"/>
</linearGradient>
<linearGradient id="paint6_linear_3994_146525" x1="63.1301" y1="103.44" x2="63.1301" y2="66.1897" gradientUnits="userSpaceOnUse">
<stop stop-color="#C295CC"/>
<stop offset="1" stop-color="#E0AFC0"/>
</linearGradient>
<linearGradient id="paint7_linear_3994_146525" x1="155.39" y1="72.2093" x2="155.39" y2="19.1094" gradientUnits="userSpaceOnUse">
<stop stop-color="#C0F0DE"/>
<stop offset="1" stop-color="#59BAEC"/>
</linearGradient>
<linearGradient id="paint8_linear_3994_146525" x1="158.68" y1="45.6596" x2="158.68" y2="40.9696" gradientUnits="userSpaceOnUse">
<stop stop-color="#FFDFE7"/>
<stop offset="1" stop-color="white"/>
</linearGradient>
<linearGradient id="paint9_linear_3994_146525" x1="164.459" y1="64.2294" x2="164.459" y2="19.1494" gradientUnits="userSpaceOnUse">
<stop stop-color="#FFDFE7"/>
<stop offset="1" stop-color="white"/>
</linearGradient>
<linearGradient id="paint10_linear_3994_146525" x1="138.86" y1="69.6792" x2="138.86" y2="25.1992" gradientUnits="userSpaceOnUse">
<stop stop-color="#FFDFE7"/>
<stop offset="1" stop-color="white"/>
</linearGradient>
<linearGradient id="paint11_linear_3994_146525" x1="189.26" y1="60.4493" x2="189.26" y2="25.9893" gradientUnits="userSpaceOnUse">
<stop stop-color="#FFDFE7"/>
<stop offset="1" stop-color="white"/>
</linearGradient>
<linearGradient id="paint12_linear_3994_146525" x1="153.94" y1="-0.000572947" x2="153.94" y2="60.0294" gradientUnits="userSpaceOnUse">
<stop stop-color="#D6ACE9"/>
<stop offset="1" stop-color="#F9D2C1"/>
</linearGradient>
<linearGradient id="paint13_linear_3994_146525" x1="160.52" y1="62.6103" x2="160.52" y2="59.4403" gradientUnits="userSpaceOnUse">
<stop stop-color="#FFDFE7"/>
<stop offset="1" stop-color="white"/>
</linearGradient>
<linearGradient id="paint14_linear_3994_146525" x1="201.06" y1="60.9899" x2="201.06" y2="29.1299" gradientUnits="userSpaceOnUse">
<stop stop-color="#D17472"/>
<stop offset="1" stop-color="#B3708E"/>
</linearGradient>
<linearGradient id="paint15_linear_3994_146525" x1="173.5" y1="63.9694" x2="173.5" y2="19.1094" gradientUnits="userSpaceOnUse">
<stop stop-color="#C295CC"/>
<stop offset="1" stop-color="#E0AFC0"/>
</linearGradient>
<linearGradient id="paint16_linear_3994_146525" x1="187.62" y1="60.3399" x2="187.62" y2="34.6699" gradientUnits="userSpaceOnUse">
<stop/>
<stop offset="0.11" stop-color="#050403"/>
<stop offset="0.25" stop-color="#15110E"/>
<stop offset="0.42" stop-color="#302621"/>
<stop offset="0.59" stop-color="#54443A"/>
<stop offset="0.77" stop-color="#846A5B"/>
<stop offset="0.96" stop-color="#BD9783"/>
<stop offset="1" stop-color="#CAA28C"/>
</linearGradient>
<linearGradient id="paint17_linear_3994_146525" x1="202.77" y1="103.44" x2="202.77" y2="79.3995" gradientUnits="userSpaceOnUse">
<stop stop-color="#D6ACE9"/>
<stop offset="1" stop-color="#F9D2C1"/>
</linearGradient>
<linearGradient id="paint18_linear_3994_146525" x1="197.46" y1="103.44" x2="197.46" y2="79.7102" gradientUnits="userSpaceOnUse">
<stop stop-color="#F9A295"/>
<stop offset="1" stop-color="#D69AB3"/>
</linearGradient>
<linearGradient id="paint19_linear_3994_146525" x1="188.3" y1="103.44" x2="188.3" y2="84.8601" gradientUnits="userSpaceOnUse">
<stop stop-color="#C295CC"/>
<stop offset="1" stop-color="#E0AFC0"/>
</linearGradient>
<linearGradient id="paint20_linear_3994_146525" x1="68.3598" y1="103.44" x2="68.3598" y2="66.1897" gradientUnits="userSpaceOnUse">
<stop stop-color="#D17472"/>
<stop offset="1" stop-color="#B3708E"/>
</linearGradient>
<linearGradient id="paint21_linear_3994_146525" x1="187.28" y1="103.44" x2="187.28" y2="83.5596" gradientUnits="userSpaceOnUse">
<stop stop-color="#D6ACE9"/>
<stop offset="1" stop-color="#F9D2C1"/>
</linearGradient>
<linearGradient id="paint22_linear_3994_146525" x1="195.79" y1="91.0694" x2="195.79" y2="89.3594" gradientUnits="userSpaceOnUse">
<stop stop-color="#C295CC"/>
<stop offset="1" stop-color="#E0AFC0"/>
</linearGradient>
<linearGradient id="paint23_linear_3994_146525" x1="191.95" y1="96.8599" x2="191.95" y2="95.3799" gradientUnits="userSpaceOnUse">
<stop stop-color="#C295CC"/>
<stop offset="1" stop-color="#E0AFC0"/>
</linearGradient>
<linearGradient id="paint24_linear_3994_146525" x1="188.88" y1="102.26" x2="188.88" y2="101.39" gradientUnits="userSpaceOnUse">
<stop stop-color="#C295CC"/>
<stop offset="1" stop-color="#E0AFC0"/>
</linearGradient>
<linearGradient id="paint25_linear_3994_146525" x1="201.73" y1="103.43" x2="201.73" y2="79.7102" gradientUnits="userSpaceOnUse">
<stop stop-color="#C295CC"/>
<stop offset="1" stop-color="#E0AFC0"/>
</linearGradient>
<linearGradient id="paint26_linear_3994_146525" x1="73.1298" y1="103.439" x2="73.1298" y2="66.1895" gradientUnits="userSpaceOnUse">
<stop stop-color="#C0F0DE"/>
<stop offset="1" stop-color="#59BAEC"/>
</linearGradient>
<linearGradient id="paint27_linear_3994_146525" x1="72.8998" y1="103.44" x2="72.8998" y2="69.6797" gradientUnits="userSpaceOnUse">
<stop stop-color="#FFDFE7"/>
<stop offset="1" stop-color="white"/>
</linearGradient>
<linearGradient id="paint28_linear_3994_146525" x1="69.8896" y1="86.9596" x2="69.8896" y2="85.5596" gradientUnits="userSpaceOnUse">
<stop stop-color="#FFDFE7"/>
<stop offset="1" stop-color="white"/>
</linearGradient>
<linearGradient id="paint29_linear_3994_146525" x1="55.7701" y1="103.44" x2="55.7701" y2="84.0896" gradientUnits="userSpaceOnUse">
<stop/>
<stop offset="0.11" stop-color="#050403"/>
<stop offset="0.25" stop-color="#15110E"/>
<stop offset="0.42" stop-color="#302621"/>
<stop offset="0.59" stop-color="#54443A"/>
<stop offset="0.77" stop-color="#846A5B"/>
<stop offset="0.96" stop-color="#BD9783"/>
<stop offset="1" stop-color="#CAA28C"/>
</linearGradient>
<linearGradient id="paint30_linear_3994_146525" x1="61.9596" y1="93.4997" x2="61.9596" y2="66.1897" gradientUnits="userSpaceOnUse">
<stop stop-color="#C295CC"/>
<stop offset="1" stop-color="#E0AFC0"/>
</linearGradient>
<linearGradient id="paint31_linear_3994_146525" x1="88.3438" y1="34.8643" x2="88.6359" y2="9.50599" gradientUnits="userSpaceOnUse">
<stop stop-color="#D6ACE9"/>
<stop offset="1" stop-color="#F9D2C1"/>
</linearGradient>
<linearGradient id="paint32_linear_3994_146525" x1="89.5041" y1="34.8774" x2="89.7672" y2="12.0389" gradientUnits="userSpaceOnUse">
<stop stop-color="#C0F0DE"/>
<stop offset="1" stop-color="#59BAEC"/>
</linearGradient>
<linearGradient id="paint33_linear_3994_146525" x1="92.7617" y1="34.1949" x2="93.0134" y2="12.3464" gradientUnits="userSpaceOnUse">
<stop/>
<stop offset="0.11" stop-color="#050403"/>
<stop offset="0.25" stop-color="#15110E"/>
<stop offset="0.42" stop-color="#302621"/>
<stop offset="0.59" stop-color="#54443A"/>
<stop offset="0.77" stop-color="#846A5B"/>
<stop offset="0.96" stop-color="#BD9783"/>
<stop offset="1" stop-color="#CAA28C"/>
</linearGradient>
<linearGradient id="paint34_linear_3994_146525" x1="89.9852" y1="30.3727" x2="90.1964" y2="12.0439" gradientUnits="userSpaceOnUse">
<stop stop-color="#C295CC"/>
<stop offset="1" stop-color="#E0AFC0"/>
</linearGradient>
<linearGradient id="paint35_linear_3994_146525" x1="145.55" y1="105.09" x2="145.55" y2="103.43" gradientUnits="userSpaceOnUse">
<stop stop-color="#FFBEE9"/>
<stop offset="1" stop-color="#FFFFE8"/>
</linearGradient>
<clipPath id="clip0_3994_146525">
<rect width="291.1" height="105.09" fill="white"/>
</clipPath>
</defs>
</svg>
