<svg width="256" height="148" viewBox="0 0 256 148" fill="none" xmlns="http://www.w3.org/2000/svg">
<g clip-path="url(#clip0_3994_146461)">
<path d="M255.08 23.2998L110.43 35.4898L0 41.9098L123.02 7.75977L255.08 23.2998Z" fill="#772360"/>
<path d="M233.321 25.7103V144.84L11.5508 146.16L18.6408 38.5803L123.481 12.8203L233.321 25.7103Z" fill="url(#paint0_linear_3994_146461)"/>
<path d="M233.32 23.4903L108.15 36.1403L103.42 144.39L16.3398 144.02L19.8298 38.2903L123.48 12.8203L233.32 23.4903Z" fill="#6DB1C4"/>
<path opacity="0.83" d="M123.48 12.8203V143.5L233.32 144.84V23.4903L123.48 12.8203Z" fill="url(#paint1_linear_3994_146461)"/>
<path d="M0 36.82L123.02 0V7.76L0 41.91V36.82Z" fill="url(#paint2_linear_3994_146461)"/>
<path d="M123.02 0L255.08 15.35V23.3L123.02 7.76V0Z" fill="url(#paint3_linear_3994_146461)"/>
<path d="M238.851 87.3696V94.7296L130.381 89.0596V81.3496L238.851 87.3696Z" fill="url(#paint4_linear_3994_146461)"/>
<path d="M151.2 90.1396L149.26 144.14L216.99 143.06V93.5896L151.2 90.1396Z" fill="url(#paint5_linear_3994_146461)"/>
<path d="M144.09 144.22L146 89.8896L151.2 90.1396L149.26 144.14L144.09 144.22Z" fill="url(#paint6_linear_3994_146461)"/>
<path d="M233.32 46.1L123.59 37L17.4004 57.36V57.88L123.48 38.58L233.32 46.5V46.1Z" fill="url(#paint7_linear_3994_146461)"/>
<path style="mix-blend-mode:multiply" opacity="0.3" d="M103.42 144.39L123.48 15.9902V143.5L103.42 144.39Z" fill="url(#paint8_linear_3994_146461)"/>
<g style="mix-blend-mode:multiply" opacity="0.3">
<path d="M18.6406 95.1896L19.8606 79.2896L31.2806 78.1596V80.3896L67.8106 76.4996V72.2496L106.421 64.7896V75.6296L108.501 75.4596L110.991 48.6496L118.021 46.3996L123.481 46.0596L137.751 48.0396L139.691 60.5596L151.911 63.7696L151.901 82.5496L130.381 81.3496L18.6406 95.1896Z" fill="#6DB1C4"/>
</g>
<path style="mix-blend-mode:screen" d="M229.52 33.4303L217.22 32.0303L216.99 143.06L233.32 144.84L229.52 33.4303Z" fill="url(#paint9_linear_3994_146461)"/>
<g style="mix-blend-mode:multiply" opacity="0.3">
<path d="M11.5508 146.16L12.6408 129.55L28.1708 128.84V132.42L50.3308 131.72L53.7908 122.13L114.041 113.72V131.95H123.481L145.151 134.6L144.971 144.21L11.5508 146.16Z" fill="#6DB1C4"/>
</g>
<path d="M151.9 82.5497L153.3 15.7197L154.09 15.7897L152.75 82.5997L151.9 82.5497Z" fill="url(#paint10_linear_3994_146461)"/>
<path d="M187.9 83.3701L187.97 19.0801L188.44 19.1301V83.3901L187.9 83.3701Z" fill="url(#paint11_linear_3994_146461)"/>
<path d="M217.22 86.1496V21.9296L216.41 21.8496L216.83 86.1496H217.22Z" fill="url(#paint12_linear_3994_146461)"/>
<path d="M92.5698 144.94L97.1199 19.29H96.7299L92.0898 144.94H92.5698Z" fill="url(#paint13_linear_3994_146461)"/>
<path d="M92.5698 144.95L97.1199 19.2998H96.7299L92.0898 144.95H92.5698Z" fill="url(#paint14_linear_3994_146461)"/>
<path d="M29.6895 145.59L38.0695 33.8102L38.4995 33.7002L29.8995 145.5L29.6895 145.59Z" fill="url(#paint15_linear_3994_146461)"/>
<path d="M123.48 12.8203V82.2103V143.5L124.54 12.9203L123.48 12.8203Z" fill="url(#paint16_linear_3994_146461)"/>
<path d="M130.38 81.3496L12.3203 95.9696V101.04L130.38 89.0596V81.3496Z" fill="url(#paint17_linear_3994_146461)"/>
<path d="M238.85 94.7296L233.32 97.5496V96.3196L123.52 91.1996L14.4803 101.69L12.3203 101.04L130.38 89.0596L238.85 94.7296Z" fill="url(#paint18_linear_3994_146461)"/>
<path d="M34.6504 146.16L41.7004 32.4899L85.0004 19.8799L80.7904 145.24L34.6504 146.16Z" fill="url(#paint19_linear_3994_146461)"/>
<path d="M84.9991 19.8799H89.4491L87.2191 144.75L80.7891 145.24L84.9991 19.8799Z" fill="url(#paint20_linear_3994_146461)"/>
<path d="M216.83 86.1505L152.76 81.9205L153.29 40.7305L216.56 45.2905L216.83 86.1505Z" fill="url(#paint21_linear_3994_146461)"/>
<path d="M153.2 48.04L201.64 51.39L200.91 85.27L152.75 82.6L153.2 48.04Z" fill="url(#paint22_linear_3994_146461)"/>
<path d="M201.64 51.3905L216.56 45.2905L153.29 40.7305L153.2 48.0405L201.64 51.3905Z" fill="#6DB1C4"/>
<path style="mix-blend-mode:multiply" d="M216.991 95.5596V96.3196L151.911 96.9196L145.791 101.04L144.091 144.22L136.891 144.02L142.801 92.0996L216.991 95.5596Z" fill="url(#paint23_linear_3994_146461)"/>
<path style="mix-blend-mode:multiply" d="M233.319 23.4903V33.7003L123.479 25.9003L89.2694 29.9303L83.9994 28.5003L41.0594 42.8203L41.3594 37.9603L18.3594 42.8103L18.6394 38.5803L41.6794 32.9203L41.6994 32.4903L84.9994 19.8803H89.4494L123.479 12.8203L233.319 23.4903Z" fill="url(#paint24_linear_3994_146461)"/>
<path style="mix-blend-mode:multiply" d="M25.4004 145.92L40.1504 33.2999L41.6804 32.9199L34.6504 146.16L25.4004 145.92Z" fill="url(#paint25_linear_3994_146461)"/>
<path style="mix-blend-mode:multiply" opacity="0.5" d="M41.6992 146.02L50.6692 29.5596L42.2992 146.02H41.6992Z" fill="url(#paint26_linear_3994_146461)"/>
<path style="mix-blend-mode:multiply" opacity="0.5" d="M53.4902 145.55L57.9402 64.7898V27.5098H58.8202L54.6002 145.76L53.4902 145.55Z" fill="url(#paint27_linear_3994_146461)"/>
<path style="mix-blend-mode:multiply" opacity="0.5" d="M71.3496 145.28L73.4096 100.77L72.3796 145.19L71.3496 145.28Z" fill="url(#paint28_linear_3994_146461)"/>
<path style="mix-blend-mode:multiply" opacity="0.5" d="M75.2602 22.77L73.4102 87.79L75.8602 22.46L75.2602 22.77Z" fill="url(#paint29_linear_3994_146461)"/>
<path style="mix-blend-mode:multiply" opacity="0.5" d="M38.5004 96.1998L37.0504 128.26L43.9104 117.86L46.1804 89.6498L45.1304 128.26L78.3504 124.38L85.0004 23.2998L80.7904 145.24L34.6504 146.16L38.5004 96.1998Z" fill="url(#paint30_linear_3994_146461)"/>
<g style="mix-blend-mode:screen" opacity="0.45">
<path d="M197.68 8.67969L199.36 16.7497L255.08 23.2997V15.3497L197.68 8.67969Z" fill="#FFAE7C"/>
</g>
<g style="mix-blend-mode:screen" opacity="0.45">
<path d="M181.46 6.79004L182.56 14.77L192.93 15.99L190.92 7.89004L181.46 6.79004Z" fill="#FFAE7C"/>
</g>
<path d="M123.02 0V7.76L124.54 0H123.02Z" fill="#FFAE7C"/>
<path d="M80.7891 145.24V119.34L84.9991 19.8799L80.7891 145.24Z" fill="#FFAE7C"/>
<path d="M149.26 142.81L151.2 93.4004L150.12 143.18L149.26 142.81Z" fill="#FFAE7C"/>
<path style="mix-blend-mode:multiply" opacity="0.5" d="M149.62 133.69L216.82 137.61L216.99 143.06L149.26 144.14L149.62 133.69Z" fill="url(#paint31_linear_3994_146461)"/>
<path d="M169.06 144.02L170.27 98.1904L199.36 99.2104V143.27L169.06 144.02Z" fill="url(#paint32_linear_3994_146461)"/>
<path d="M170.27 98.1904L195.7 99.0804V143.38L169.06 144.02L170.27 98.1904Z" fill="url(#paint33_linear_3994_146461)"/>
<path d="M193.36 142.35V102.27H170.16L169.09 142.81L193.36 142.35Z" fill="url(#paint34_linear_3994_146461)"/>
<path style="mix-blend-mode:multiply" d="M199.36 99.2104L195.7 104.37L169.99 108.87L170.27 98.1904L199.36 99.2104Z" fill="url(#paint35_linear_3994_146461)"/>
<path style="mix-blend-mode:screen" d="M125.42 25.7002L124.01 80.4802H148.2V28.5402L125.42 25.7002Z" fill="url(#paint36_linear_3994_146461)"/>
<path style="mix-blend-mode:screen" d="M139.889 26.8604L137.529 81.1404H148.199V29.2004L139.889 26.8604Z" fill="url(#paint37_linear_3994_146461)"/>
<path style="mix-blend-mode:screen" d="M182.78 107.18L176.44 140.86H191.29L191.57 105.09L182.78 107.18Z" fill="url(#paint38_linear_3994_146461)"/>
<path d="M5.11914 147.38L11.5491 143.5L238.849 142.06L245.539 144.94L5.11914 147.38Z" fill="url(#paint39_linear_3994_146461)"/>
<path style="mix-blend-mode:multiply" d="M120.919 142.81L115.129 146.26L5.11914 147.38L11.5491 143.5L120.919 142.81Z" fill="url(#paint40_linear_3994_146461)"/>
<path d="M156.37 82.78L156.23 56.54L194.56 58.15V84.91L156.37 82.78Z" fill="url(#paint41_linear_3994_146461)"/>
<path d="M156.23 56.54L156.24 58.15L191.35 59.57L191.24 84.73L194.56 84.91V58.15L156.23 56.54Z" fill="url(#paint42_linear_3994_146461)"/>
<path d="M188.44 84.2698L188.56 61.7798L156.23 60.7598L156.37 82.7798L188.44 84.2698Z" fill="url(#paint43_linear_3994_146461)"/>
<path style="mix-blend-mode:multiply" d="M201.64 51.39V58.69L152.71 70.62L153.2 48.04L201.64 51.39Z" fill="url(#paint44_linear_3994_146461)"/>
<path style="mix-blend-mode:multiply" d="M193.36 142.35H192.72L192.22 102.27H193.36V142.35Z" fill="url(#paint45_linear_3994_146461)"/>
<path style="mix-blend-mode:multiply" d="M188.44 84.2698L188.56 61.7798L156.23 60.7598V61.2198L187.9 62.0398V84.2398L188.44 84.2698Z" fill="url(#paint46_linear_3994_146461)"/>
<path style="mix-blend-mode:screen" d="M179.19 64.1604L163.01 82.6004L187.9 83.3704L187.32 63.4404L179.19 64.1604Z" fill="url(#paint47_linear_3994_146461)"/>
<g style="mix-blend-mode:multiply" opacity="0.3">
<path d="M169.75 113.72L181.05 116.37V138.23L192.67 138.91L192.72 142.35L169.09 142.81L169.75 113.72Z" fill="#6DB1C4"/>
</g>
<g style="mix-blend-mode:multiply" opacity="0.3">
<path d="M156.27 63.4404H160.79L162.29 73.4004H164.86V77.1204L175.4 77.8704V72.5204L187.9 73.4004V84.2404L156.37 82.7804L156.27 63.4404Z" fill="#6DB1C4"/>
</g>
</g>
<defs>
<linearGradient id="paint0_linear_3994_146461" x1="122.431" y1="146.16" x2="122.431" y2="12.8203" gradientUnits="userSpaceOnUse">
<stop stop-color="#81D1EC"/>
<stop offset="1" stop-color="#CCF0DE"/>
</linearGradient>
<linearGradient id="paint1_linear_3994_146461" x1="178.4" y1="144.84" x2="178.4" y2="12.8203" gradientUnits="userSpaceOnUse">
<stop stop-color="#A1DFEC"/>
<stop offset="1" stop-color="#EAFCDE"/>
</linearGradient>
<linearGradient id="paint2_linear_3994_146461" x1="61.51" y1="41.91" x2="61.51" y2="0" gradientUnits="userSpaceOnUse">
<stop stop-color="#953D6E"/>
<stop offset="1" stop-color="#CF6155"/>
</linearGradient>
<linearGradient id="paint3_linear_3994_146461" x1="189.05" y1="23.3" x2="189.05" y2="0" gradientUnits="userSpaceOnUse">
<stop stop-color="#FF8378"/>
<stop offset="1" stop-color="#FF9063"/>
</linearGradient>
<linearGradient id="paint4_linear_3994_146461" x1="130.381" y1="88.0396" x2="238.851" y2="88.0396" gradientUnits="userSpaceOnUse">
<stop stop-color="#FFDFE7"/>
<stop offset="1" stop-color="#FFEAC0"/>
</linearGradient>
<linearGradient id="paint5_linear_3994_146461" x1="183.13" y1="144.14" x2="183.13" y2="90.1396" gradientUnits="userSpaceOnUse">
<stop stop-color="#FF8378"/>
<stop offset="1" stop-color="#FF9063"/>
</linearGradient>
<linearGradient id="paint6_linear_3994_146461" x1="147.65" y1="144.22" x2="147.65" y2="89.8896" gradientUnits="userSpaceOnUse">
<stop stop-color="#953D6E"/>
<stop offset="1" stop-color="#CF6155"/>
</linearGradient>
<linearGradient id="paint7_linear_3994_146461" x1="17.4004" y1="47.44" x2="233.32" y2="47.44" gradientUnits="userSpaceOnUse">
<stop stop-color="#FFF1F4"/>
<stop offset="1" stop-color="#FFFCFE"/>
</linearGradient>
<linearGradient id="paint8_linear_3994_146461" x1="113.45" y1="144.39" x2="113.45" y2="15.9902" gradientUnits="userSpaceOnUse">
<stop stop-color="#C295CC"/>
<stop offset="1" stop-color="#E0AFC0"/>
</linearGradient>
<linearGradient id="paint9_linear_3994_146461" x1="225.15" y1="144.84" x2="225.15" y2="32.0303" gradientUnits="userSpaceOnUse">
<stop/>
<stop offset="0.11" stop-color="#050403"/>
<stop offset="0.25" stop-color="#15110E"/>
<stop offset="0.42" stop-color="#302621"/>
<stop offset="0.59" stop-color="#54443A"/>
<stop offset="0.77" stop-color="#846A5B"/>
<stop offset="0.96" stop-color="#BD9783"/>
<stop offset="1" stop-color="#CAA28C"/>
</linearGradient>
<linearGradient id="paint10_linear_3994_146461" x1="151.9" y1="49.1597" x2="154.09" y2="49.1597" gradientUnits="userSpaceOnUse">
<stop stop-color="#FFF1F4"/>
<stop offset="1" stop-color="#FFFCFE"/>
</linearGradient>
<linearGradient id="paint11_linear_3994_146461" x1="187.9" y1="51.2401" x2="188.44" y2="51.2401" gradientUnits="userSpaceOnUse">
<stop stop-color="#FFF1F4"/>
<stop offset="1" stop-color="#FFFCFE"/>
</linearGradient>
<linearGradient id="paint12_linear_3994_146461" x1="216.41" y1="53.9996" x2="217.22" y2="53.9996" gradientUnits="userSpaceOnUse">
<stop stop-color="#FFF1F4"/>
<stop offset="1" stop-color="#FFFCFE"/>
</linearGradient>
<linearGradient id="paint13_linear_3994_146461" x1="92.0898" y1="82.12" x2="97.1199" y2="82.12" gradientUnits="userSpaceOnUse">
<stop stop-color="#FFF1F4"/>
<stop offset="1" stop-color="#FFFCFE"/>
</linearGradient>
<linearGradient id="paint14_linear_3994_146461" x1="92.0898" y1="82.1198" x2="97.1199" y2="82.1198" gradientUnits="userSpaceOnUse">
<stop stop-color="#FFF1F4"/>
<stop offset="1" stop-color="#FFFCFE"/>
</linearGradient>
<linearGradient id="paint15_linear_3994_146461" x1="29.6895" y1="89.6502" x2="38.4995" y2="89.6502" gradientUnits="userSpaceOnUse">
<stop stop-color="#FFF1F4"/>
<stop offset="1" stop-color="#FFFCFE"/>
</linearGradient>
<linearGradient id="paint16_linear_3994_146461" x1="123.48" y1="78.1603" x2="124.54" y2="78.1603" gradientUnits="userSpaceOnUse">
<stop stop-color="#FFF1F4"/>
<stop offset="1" stop-color="#FFFCFE"/>
</linearGradient>
<linearGradient id="paint17_linear_3994_146461" x1="71.3503" y1="101.04" x2="71.3503" y2="81.3496" gradientUnits="userSpaceOnUse">
<stop stop-color="#C295CC"/>
<stop offset="1" stop-color="#E0AFC0"/>
</linearGradient>
<linearGradient id="paint18_linear_3994_146461" x1="125.59" y1="101.69" x2="125.59" y2="89.0596" gradientUnits="userSpaceOnUse">
<stop stop-color="#A15CB1"/>
<stop offset="1" stop-color="#E095AC"/>
</linearGradient>
<linearGradient id="paint19_linear_3994_146461" x1="59.8204" y1="146.16" x2="59.8204" y2="19.8799" gradientUnits="userSpaceOnUse">
<stop stop-color="#953D6E"/>
<stop offset="1" stop-color="#CF6155"/>
</linearGradient>
<linearGradient id="paint20_linear_3994_146461" x1="85.1191" y1="145.24" x2="85.1191" y2="19.8799" gradientUnits="userSpaceOnUse">
<stop stop-color="#FF8378"/>
<stop offset="1" stop-color="#FF9063"/>
</linearGradient>
<linearGradient id="paint21_linear_3994_146461" x1="184.8" y1="86.1505" x2="184.8" y2="40.7305" gradientUnits="userSpaceOnUse">
<stop stop-color="#81D1EC"/>
<stop offset="1" stop-color="#CCF0DE"/>
</linearGradient>
<linearGradient id="paint22_linear_3994_146461" x1="177.2" y1="85.27" x2="177.2" y2="48.04" gradientUnits="userSpaceOnUse">
<stop stop-color="#FF8378"/>
<stop offset="1" stop-color="#FF9063"/>
</linearGradient>
<linearGradient id="paint23_linear_3994_146461" x1="176.941" y1="144.22" x2="176.941" y2="92.0996" gradientUnits="userSpaceOnUse">
<stop stop-color="#C295CC"/>
<stop offset="1" stop-color="#E0AFC0"/>
</linearGradient>
<linearGradient id="paint24_linear_3994_146461" x1="125.839" y1="42.8203" x2="125.839" y2="12.8203" gradientUnits="userSpaceOnUse">
<stop stop-color="#C295CC"/>
<stop offset="1" stop-color="#E0AFC0"/>
</linearGradient>
<linearGradient id="paint25_linear_3994_146461" x1="33.5404" y1="146.16" x2="33.5404" y2="32.9199" gradientUnits="userSpaceOnUse">
<stop stop-color="#C295CC"/>
<stop offset="1" stop-color="#E0AFC0"/>
</linearGradient>
<linearGradient id="paint26_linear_3994_146461" x1="41.6992" y1="87.7896" x2="50.6692" y2="87.7896" gradientUnits="userSpaceOnUse">
<stop stop-color="#C295CC"/>
<stop offset="1" stop-color="#E0AFC0"/>
</linearGradient>
<linearGradient id="paint27_linear_3994_146461" x1="53.4902" y1="86.6398" x2="58.8202" y2="86.6398" gradientUnits="userSpaceOnUse">
<stop stop-color="#C295CC"/>
<stop offset="1" stop-color="#E0AFC0"/>
</linearGradient>
<linearGradient id="paint28_linear_3994_146461" x1="71.3496" y1="123.03" x2="73.4096" y2="123.03" gradientUnits="userSpaceOnUse">
<stop stop-color="#C295CC"/>
<stop offset="1" stop-color="#E0AFC0"/>
</linearGradient>
<linearGradient id="paint29_linear_3994_146461" x1="73.4102" y1="55.12" x2="75.8602" y2="55.12" gradientUnits="userSpaceOnUse">
<stop stop-color="#C295CC"/>
<stop offset="1" stop-color="#E0AFC0"/>
</linearGradient>
<linearGradient id="paint30_linear_3994_146461" x1="34.6504" y1="84.7298" x2="85.0004" y2="84.7298" gradientUnits="userSpaceOnUse">
<stop stop-color="#C295CC"/>
<stop offset="1" stop-color="#E0AFC0"/>
</linearGradient>
<linearGradient id="paint31_linear_3994_146461" x1="149.26" y1="138.91" x2="216.99" y2="138.91" gradientUnits="userSpaceOnUse">
<stop stop-color="#C295CC"/>
<stop offset="1" stop-color="#E0AFC0"/>
</linearGradient>
<linearGradient id="paint32_linear_3994_146461" x1="184.21" y1="144.02" x2="184.21" y2="98.1904" gradientUnits="userSpaceOnUse">
<stop stop-color="#953D6E"/>
<stop offset="1" stop-color="#CF6155"/>
</linearGradient>
<linearGradient id="paint33_linear_3994_146461" x1="182.38" y1="144.02" x2="182.38" y2="98.1904" gradientUnits="userSpaceOnUse">
<stop stop-color="#FFDFE7"/>
<stop offset="1" stop-color="#FFEAC0"/>
</linearGradient>
<linearGradient id="paint34_linear_3994_146461" x1="181.23" y1="142.81" x2="181.23" y2="102.27" gradientUnits="userSpaceOnUse">
<stop stop-color="#81D1EC"/>
<stop offset="1" stop-color="#CCF0DE"/>
</linearGradient>
<linearGradient id="paint35_linear_3994_146461" x1="184.67" y1="108.87" x2="184.67" y2="98.1904" gradientUnits="userSpaceOnUse">
<stop stop-color="#C295CC"/>
<stop offset="1" stop-color="#E0AFC0"/>
</linearGradient>
<linearGradient id="paint36_linear_3994_146461" x1="136.1" y1="80.4802" x2="136.1" y2="25.7002" gradientUnits="userSpaceOnUse">
<stop/>
<stop offset="0.11" stop-color="#050403"/>
<stop offset="0.25" stop-color="#15110E"/>
<stop offset="0.42" stop-color="#302621"/>
<stop offset="0.59" stop-color="#54443A"/>
<stop offset="0.77" stop-color="#846A5B"/>
<stop offset="0.96" stop-color="#BD9783"/>
<stop offset="1" stop-color="#CAA28C"/>
</linearGradient>
<linearGradient id="paint37_linear_3994_146461" x1="142.859" y1="81.1404" x2="142.859" y2="26.8604" gradientUnits="userSpaceOnUse">
<stop/>
<stop offset="0.11" stop-color="#050403"/>
<stop offset="0.25" stop-color="#15110E"/>
<stop offset="0.42" stop-color="#302621"/>
<stop offset="0.59" stop-color="#54443A"/>
<stop offset="0.77" stop-color="#846A5B"/>
<stop offset="0.96" stop-color="#BD9783"/>
<stop offset="1" stop-color="#CAA28C"/>
</linearGradient>
<linearGradient id="paint38_linear_3994_146461" x1="184.01" y1="140.86" x2="184.01" y2="105.09" gradientUnits="userSpaceOnUse">
<stop/>
<stop offset="0.11" stop-color="#050403"/>
<stop offset="0.25" stop-color="#15110E"/>
<stop offset="0.42" stop-color="#302621"/>
<stop offset="0.59" stop-color="#54443A"/>
<stop offset="0.77" stop-color="#846A5B"/>
<stop offset="0.96" stop-color="#BD9783"/>
<stop offset="1" stop-color="#CAA28C"/>
</linearGradient>
<linearGradient id="paint39_linear_3994_146461" x1="125.329" y1="147.38" x2="125.329" y2="142.06" gradientUnits="userSpaceOnUse">
<stop stop-color="#953D6E"/>
<stop offset="1" stop-color="#CF6155"/>
</linearGradient>
<linearGradient id="paint40_linear_3994_146461" x1="5.11914" y1="145.09" x2="120.919" y2="145.09" gradientUnits="userSpaceOnUse">
<stop stop-color="#C295CC"/>
<stop offset="1" stop-color="#E0AFC0"/>
</linearGradient>
<linearGradient id="paint41_linear_3994_146461" x1="175.4" y1="84.91" x2="175.4" y2="56.54" gradientUnits="userSpaceOnUse">
<stop stop-color="#FFDFE7"/>
<stop offset="1" stop-color="#FFEAC0"/>
</linearGradient>
<linearGradient id="paint42_linear_3994_146461" x1="175.4" y1="84.91" x2="175.4" y2="56.54" gradientUnits="userSpaceOnUse">
<stop stop-color="#953D6E"/>
<stop offset="1" stop-color="#CF6155"/>
</linearGradient>
<linearGradient id="paint43_linear_3994_146461" x1="172.39" y1="84.2698" x2="172.39" y2="60.7598" gradientUnits="userSpaceOnUse">
<stop stop-color="#81D1EC"/>
<stop offset="1" stop-color="#CCF0DE"/>
</linearGradient>
<linearGradient id="paint44_linear_3994_146461" x1="177.17" y1="70.62" x2="177.17" y2="48.04" gradientUnits="userSpaceOnUse">
<stop stop-color="#C295CC"/>
<stop offset="1" stop-color="#E0AFC0"/>
</linearGradient>
<linearGradient id="paint45_linear_3994_146461" x1="192.79" y1="142.35" x2="192.79" y2="102.27" gradientUnits="userSpaceOnUse">
<stop stop-color="#C295CC"/>
<stop offset="1" stop-color="#E0AFC0"/>
</linearGradient>
<linearGradient id="paint46_linear_3994_146461" x1="172.39" y1="84.2698" x2="172.39" y2="60.7598" gradientUnits="userSpaceOnUse">
<stop stop-color="#C295CC"/>
<stop offset="1" stop-color="#E0AFC0"/>
</linearGradient>
<linearGradient id="paint47_linear_3994_146461" x1="175.46" y1="83.3704" x2="175.46" y2="63.4404" gradientUnits="userSpaceOnUse">
<stop/>
<stop offset="0.11" stop-color="#050403"/>
<stop offset="0.25" stop-color="#15110E"/>
<stop offset="0.42" stop-color="#302621"/>
<stop offset="0.59" stop-color="#54443A"/>
<stop offset="0.77" stop-color="#846A5B"/>
<stop offset="0.96" stop-color="#BD9783"/>
<stop offset="1" stop-color="#CAA28C"/>
</linearGradient>
<clipPath id="clip0_3994_146461">
<rect width="255.08" height="147.38" fill="white"/>
</clipPath>
</defs>
</svg>
