<svg width="17" height="17" viewBox="0 0 17 17" fill="none" xmlns="http://www.w3.org/2000/svg">
<path fill-rule="evenodd" clip-rule="evenodd" d="M10.4179 1.88671C10.8084 1.49618 11.4416 1.49618 11.8321 1.88671L15.2501 5.30471C15.6406 5.69523 15.6406 6.3284 15.2501 6.71892L7.5596 14.4094C7.39997 14.569 7.19103 14.67 6.96676 14.6958L3.10451 15.14C2.80137 15.1749 2.4989 15.0694 2.28313 14.8537C2.06737 14.6379 1.96192 14.3354 1.99679 14.0323L2.44104 10.17C2.46684 9.94577 2.56776 9.73683 2.72739 9.57721L10.4179 1.88671ZM11.125 4.00803L4.38811 10.7449L4.12767 13.0091L6.39189 12.7487L13.1288 6.01181L11.125 4.00803Z" fill="url(#paint0_linear_2760_14625)"/>
<defs>
<linearGradient id="paint0_linear_2760_14625" x1="8.76661" y1="1.59381" x2="8.76661" y2="15.1466" gradientUnits="userSpaceOnUse">
<stop stop-color="#4AB0F7"/>
<stop offset="1" stop-color="#317FEC"/>
</linearGradient>
</defs>
</svg>
