<svg width="24" height="24" viewBox="0 0 24 24" fill="none" xmlns="http://www.w3.org/2000/svg">
<path d="M22.9499 4.8748C21.7499 3.5998 20.4749 2.3248 19.1999 1.0873C18.9374 0.824805 18.6374 0.674805 18.2999 0.674805C17.9624 0.674805 17.6249 0.787305 17.3999 1.0498L3.26237 15.0748C3.03737 15.2998 2.88737 15.5623 2.77487 15.8248L0.71237 22.1248C0.59987 22.4248 0.67487 22.7248 0.82487 22.9498C1.01237 23.1748 1.27487 23.3248 1.61237 23.3248H1.76237L8.17487 21.1873C8.47487 21.0748 8.73737 20.9248 8.92487 20.6998L22.9874 6.6748C23.2124 6.4498 23.3624 6.1123 23.3624 5.77481C23.3624 5.4373 23.2124 5.1373 22.9499 4.8748ZM7.72487 19.5373C7.68737 19.5748 7.64987 19.5748 7.61237 19.6123L2.77487 21.2248L4.38737 16.3873C4.38737 16.3498 4.42487 16.3123 4.46237 16.2748L14.7749 5.9998L18.0374 9.26231L7.72487 19.5373ZM19.1999 8.06231L15.9374 4.79981L18.2249 2.5123C19.3124 3.5623 20.3999 4.6873 21.4499 5.77481L19.1999 8.06231Z" fill="black"/>
</svg>
