<svg width="26" height="24" viewBox="0 0 26 24" fill="none" xmlns="http://www.w3.org/2000/svg">
<path d="M22.3184 4.61012C21.7846 4.09912 21.1509 3.69376 20.4534 3.4172C19.7559 3.14064 19.0083 2.99829 18.2533 2.99829C17.4983 2.99829 16.7507 3.14064 16.0531 3.4172C15.3556 3.69376 14.7219 4.09912 14.1882 4.61012L13.0805 5.67012L11.9727 4.61012C10.8946 3.57842 9.43234 2.99883 7.90762 2.99883C6.38291 2.99883 4.92065 3.57842 3.84251 4.61012C2.76438 5.64181 2.15869 7.04108 2.15869 8.50012C2.15869 9.95915 2.76438 11.3584 3.84251 12.3901L4.95023 13.4501L13.0805 21.2301L21.2107 13.4501L22.3184 12.3901C22.8524 11.8794 23.276 11.2729 23.565 10.6055C23.854 9.93801 24.0028 9.2226 24.0028 8.50012C24.0028 7.77763 23.854 7.06222 23.565 6.39476C23.276 5.7273 22.8524 5.12087 22.3184 4.61012Z" fill="white"/>
</svg>
