<svg width="268" height="271" viewBox="0 0 268 271" fill="none" xmlns="http://www.w3.org/2000/svg">
<g clip-path="url(#clip0_96_17821)">
<path d="M196.778 63.2925V36.5071H220.518V86.1529L196.778 63.2925Z" fill="url(#paint0_linear_96_17821)"/>
<path d="M199.594 65.1488V41.7519H217.299V86.1536L199.594 65.1488Z" fill="#262332"/>
<path d="M59.0816 80.2366H50.885V231.074H59.0816V80.2366Z" fill="url(#paint1_linear_96_17821)"/>
<path d="M57.3837 80.2366H52.8528V231.074H57.3837V80.2366Z" fill="#795548"/>
<path d="M30.3246 96.3473L27.0891 99.527L53.9562 127.003L57.1917 123.823L30.3246 96.3473Z" fill="#795548"/>
<path d="M82.1272 127.564L54.2754 147.159L56.8781 150.877L84.7298 131.282L82.1272 127.564Z" fill="#795548"/>
<path d="M238.71 106.697H36.6275C32.0121 106.697 28.2739 108.778 28.2739 111.352V260.075H247.075V111.352C247.075 108.778 243.325 106.697 238.71 106.697Z" fill="url(#paint2_linear_96_17821)"/>
<path d="M137.031 21.6001L31.6104 100.101V254.407H243.084V105.7L137.031 21.6001Z" fill="white"/>
<path d="M137.24 115.939C150.205 115.939 160.715 105.403 160.715 92.4052C160.715 79.4077 150.205 68.8712 137.24 68.8712C124.275 68.8712 113.765 79.4077 113.765 92.4052C113.765 105.403 124.275 115.939 137.24 115.939Z" fill="url(#paint3_linear_96_17821)"/>
<path d="M93.2283 137.79H51.7302V179.393H93.2283V137.79Z" fill="url(#paint4_linear_96_17821)"/>
<path d="M221.915 137.79H180.417V179.393H221.915V137.79Z" fill="url(#paint5_linear_96_17821)"/>
<path d="M11.2783 139.254L5.65698 107.733L137.495 6.1543L268 109.762L264.379 138.044L137.475 42.0443L11.2783 139.254Z" fill="url(#paint6_linear_96_17821)"/>
<path d="M11.5349 132.923L7.66797 111.144L137.462 9.60913L265.988 111.152L262.097 132.911L137.441 34.426L11.5349 132.923Z" fill="#262332"/>
<path d="M162.394 184.854H111.674V254.404H162.394V184.854Z" fill="url(#paint7_linear_96_17821)"/>
<path d="M160.925 186.327H113.138V254.404H160.925V186.327Z" fill="#262332"/>
<path d="M83.5646 140.258H45V153.917H83.5646V140.258Z" fill="#262332"/>
<path d="M83.5646 153.919H45V178.921H83.5646V153.919Z" fill="#F4F4F4"/>
<path d="M179.947 140.258H141.383V153.917H179.947V140.258Z" fill="#262332"/>
<path d="M179.947 153.919H141.383V178.921H179.947V153.919Z" fill="#F4F4F4"/>
<path d="M132.947 140H94.3826V153.659H132.947V140Z" fill="#262332"/>
<path d="M132.947 153.661H94.3826V178.663H132.947V153.661Z" fill="#F4F4F4"/>
<path d="M229.33 140H190.765V153.659H229.33V140Z" fill="#262332"/>
<path d="M229.33 153.661H190.765V178.663H229.33V153.661Z" fill="#F4F4F4"/>
<path d="M137.031 113.627C139.84 113.627 142.622 113.072 145.217 111.994C147.812 110.915 150.17 109.335 152.155 107.343C154.14 105.35 155.715 102.985 156.788 100.383C157.861 97.78 158.412 94.9909 158.41 92.1746H115.652C115.649 94.9909 116.2 97.78 117.274 100.383C118.347 102.985 119.921 105.35 121.907 107.343C123.892 109.335 126.25 110.915 128.845 111.994C131.44 113.072 134.222 113.627 137.031 113.627Z" fill="#262332"/>
<path opacity="0.2" d="M103.379 112.657C109.049 112.657 114.486 110.399 118.496 106.38C122.505 102.36 124.757 96.909 124.757 91.2248H82C82 96.909 84.2524 102.36 88.2617 106.38C92.271 110.399 97.7087 112.657 103.379 112.657Z" fill="#262332"/>
<path opacity="0.2" d="M137.031 70.7622C131.364 70.7622 125.93 73.0175 121.921 77.0325C117.912 81.0475 115.657 86.4937 115.652 92.1744H158.41C158.404 86.4937 156.149 81.0475 152.141 77.0325C148.132 73.0175 142.697 70.7622 137.031 70.7622Z" fill="#F4F4F4"/>
<path d="M103.379 70C97.7122 70 92.2775 72.2553 88.2688 76.2703C84.2601 80.2853 82.0053 85.7315 82 91.4122H124.757C124.752 85.7315 122.497 80.2853 118.489 76.2703C114.48 72.2553 109.045 70 103.379 70Z" fill="#F4F4F4"/>
<path opacity="0.2" d="M172.379 112.657C178.049 112.657 183.486 110.399 187.496 106.38C191.505 102.36 193.757 96.909 193.757 91.2248H151C151 96.909 153.252 102.36 157.262 106.38C161.271 110.399 166.709 112.657 172.379 112.657Z" fill="#262332"/>
<path d="M172.379 70C166.712 70 161.277 72.2553 157.269 76.2703C153.26 80.2853 151.005 85.7315 151 91.4122H193.757C193.752 85.7315 191.497 80.2853 187.489 76.2703C183.48 72.2553 178.045 70 172.379 70Z" fill="#F4F4F4"/>
<path d="M149.815 225.196C152.593 225.196 154.845 222.938 154.845 220.154C154.845 217.369 152.593 215.111 149.815 215.111C147.038 215.111 144.786 217.369 144.786 220.154C144.786 222.938 147.038 225.196 149.815 225.196Z" fill="url(#paint8_linear_96_17821)"/>
<path d="M149.815 223.939C151.899 223.939 153.589 222.245 153.589 220.156C153.589 218.066 151.899 216.372 149.815 216.372C147.73 216.372 146.04 218.066 146.04 220.156C146.04 222.245 147.73 223.939 149.815 223.939Z" fill="#D7D5F5"/>
<path d="M167.001 244.53H105.384V264.7H167.001V244.53Z" fill="url(#paint9_linear_96_17821)"/>
<path d="M165.741 246.21H106.638V263.439H165.741V246.21Z" fill="white"/>
<path d="M119.888 136.096C119.232 136.096 118.676 135.936 118.22 135.616C117.764 135.296 117.416 134.832 117.176 134.224C116.944 133.608 116.828 132.868 116.828 132.004C116.828 131.268 116.9 130.616 117.044 130.048C117.196 129.48 117.416 129.004 117.704 128.62C117.992 128.236 118.34 127.944 118.748 127.744C119.164 127.544 119.632 127.444 120.152 127.444C120.528 127.444 120.916 127.524 121.316 127.684C121.716 127.836 122.06 128.06 122.348 128.356C122.412 128.412 122.452 128.476 122.468 128.548C122.484 128.62 122.48 128.688 122.456 128.752C122.432 128.816 122.396 128.872 122.348 128.92C122.3 128.96 122.24 128.98 122.168 128.98C122.096 128.972 122.024 128.936 121.952 128.872C121.68 128.608 121.388 128.416 121.076 128.296C120.764 128.176 120.452 128.116 120.14 128.116C119.588 128.116 119.12 128.256 118.736 128.536C118.352 128.808 118.06 129.224 117.86 129.784C117.66 130.336 117.56 131.028 117.56 131.86V133.072H117.476C117.516 132.592 117.648 132.18 117.872 131.836C118.096 131.484 118.388 131.216 118.748 131.032C119.108 130.84 119.508 130.744 119.948 130.744C120.452 130.744 120.896 130.856 121.28 131.08C121.672 131.304 121.976 131.616 122.192 132.016C122.416 132.416 122.528 132.876 122.528 133.396C122.528 133.916 122.416 134.384 122.192 134.8C121.968 135.208 121.656 135.528 121.256 135.76C120.856 135.984 120.4 136.096 119.888 136.096ZM119.828 135.436C120.212 135.436 120.552 135.352 120.848 135.184C121.144 135.016 121.372 134.78 121.532 134.476C121.7 134.172 121.784 133.82 121.784 133.42C121.784 133.02 121.7 132.672 121.532 132.376C121.372 132.072 121.144 131.836 120.848 131.668C120.552 131.492 120.212 131.404 119.828 131.404C119.444 131.404 119.104 131.492 118.808 131.668C118.512 131.836 118.28 132.072 118.112 132.376C117.952 132.672 117.872 133.02 117.872 133.42C117.872 133.82 117.952 134.172 118.112 134.476C118.28 134.78 118.512 135.016 118.808 135.184C119.104 135.352 119.444 135.436 119.828 135.436ZM126.795 136.096C125.843 136.096 125.119 135.728 124.623 134.992C124.135 134.248 123.891 133.176 123.891 131.776C123.891 130.824 123.999 130.028 124.215 129.388C124.439 128.748 124.767 128.264 125.199 127.936C125.631 127.608 126.163 127.444 126.795 127.444C127.755 127.444 128.479 127.808 128.967 128.536C129.455 129.264 129.699 130.34 129.699 131.764C129.699 132.7 129.587 133.492 129.363 134.14C129.147 134.788 128.823 135.276 128.391 135.604C127.959 135.932 127.427 136.096 126.795 136.096ZM126.795 135.436C127.523 135.436 128.063 135.136 128.415 134.536C128.767 133.936 128.943 133.012 128.943 131.764C128.943 130.5 128.767 129.576 128.415 128.992C128.071 128.4 127.531 128.104 126.795 128.104C126.067 128.104 125.527 128.4 125.175 128.992C124.823 129.584 124.647 130.508 124.647 131.764C124.647 133.012 124.823 133.936 125.175 134.536C125.527 135.136 126.067 135.436 126.795 135.436ZM133.991 136.096C133.039 136.096 132.315 135.728 131.819 134.992C131.331 134.248 131.087 133.176 131.087 131.776C131.087 130.824 131.195 130.028 131.411 129.388C131.635 128.748 131.963 128.264 132.395 127.936C132.827 127.608 133.359 127.444 133.991 127.444C134.951 127.444 135.675 127.808 136.163 128.536C136.651 129.264 136.895 130.34 136.895 131.764C136.895 132.7 136.783 133.492 136.559 134.14C136.343 134.788 136.019 135.276 135.587 135.604C135.155 135.932 134.623 136.096 133.991 136.096ZM133.991 135.436C134.719 135.436 135.259 135.136 135.611 134.536C135.963 133.936 136.139 133.012 136.139 131.764C136.139 130.5 135.963 129.576 135.611 128.992C135.267 128.4 134.727 128.104 133.991 128.104C133.263 128.104 132.723 128.4 132.371 128.992C132.019 129.584 131.843 130.508 131.843 131.764C131.843 133.012 132.019 133.936 132.371 134.536C132.723 135.136 133.263 135.436 133.991 135.436ZM141.965 136.072C141.845 136.072 141.753 136.04 141.689 135.976C141.625 135.912 141.593 135.82 141.593 135.7V130.48C141.593 130.352 141.625 130.256 141.689 130.192C141.753 130.128 141.845 130.096 141.965 130.096C142.077 130.096 142.161 130.128 142.217 130.192C142.281 130.256 142.313 130.352 142.313 130.48V131.62L142.181 131.536C142.325 131.064 142.569 130.704 142.913 130.456C143.257 130.2 143.669 130.072 144.149 130.072C144.661 130.072 145.069 130.196 145.373 130.444C145.685 130.692 145.889 131.064 145.985 131.56H145.805C145.941 131.112 146.193 130.752 146.561 130.48C146.937 130.208 147.377 130.072 147.881 130.072C148.313 130.072 148.669 130.156 148.949 130.324C149.237 130.492 149.453 130.744 149.597 131.08C149.741 131.408 149.813 131.824 149.813 132.328V135.7C149.813 135.82 149.781 135.912 149.717 135.976C149.653 136.04 149.561 136.072 149.441 136.072C149.329 136.072 149.241 136.04 149.177 135.976C149.113 135.912 149.081 135.82 149.081 135.7V132.388C149.081 131.804 148.977 131.38 148.769 131.116C148.569 130.844 148.229 130.708 147.749 130.708C147.237 130.708 146.829 130.888 146.525 131.248C146.221 131.6 146.069 132.08 146.069 132.688V135.7C146.069 135.82 146.037 135.912 145.973 135.976C145.909 136.04 145.821 136.072 145.709 136.072C145.589 136.072 145.497 136.04 145.433 135.976C145.369 135.912 145.337 135.82 145.337 135.7V132.388C145.337 131.804 145.233 131.38 145.025 131.116C144.825 130.844 144.489 130.708 144.017 130.708C143.497 130.708 143.085 130.888 142.781 131.248C142.477 131.6 142.325 132.08 142.325 132.688V135.7C142.325 135.948 142.205 136.072 141.965 136.072ZM151.754 132.616C151.658 132.616 151.578 132.592 151.514 132.544C151.458 132.496 151.43 132.432 151.43 132.352C151.43 132.272 151.446 132.204 151.478 132.148C151.51 132.092 151.55 132.036 151.598 131.98L153.134 130.3C153.382 130.028 153.558 129.788 153.662 129.58C153.766 129.372 153.818 129.156 153.818 128.932C153.818 128.652 153.738 128.44 153.578 128.296C153.426 128.144 153.206 128.068 152.918 128.068C152.726 128.068 152.526 128.104 152.318 128.176C152.118 128.24 151.934 128.34 151.766 128.476C151.67 128.54 151.582 128.568 151.502 128.56C151.43 128.544 151.374 128.504 151.334 128.44C151.294 128.376 151.278 128.308 151.286 128.236C151.302 128.156 151.35 128.084 151.43 128.02C151.638 127.844 151.882 127.712 152.162 127.624C152.442 127.536 152.718 127.492 152.99 127.492C153.31 127.492 153.582 127.548 153.806 127.66C154.03 127.772 154.202 127.932 154.322 128.14C154.442 128.348 154.502 128.596 154.502 128.884C154.502 129.148 154.438 129.412 154.31 129.676C154.19 129.94 153.99 130.22 153.71 130.516L152.186 132.16V132.04H154.502C154.702 132.04 154.802 132.136 154.802 132.328C154.802 132.416 154.774 132.488 154.718 132.544C154.67 132.592 154.598 132.616 154.502 132.616H151.754Z" fill="#262332" fill-opacity="0.6"/>
</g>
<defs>
<linearGradient id="paint0_linear_96_17821" x1="196.778" y1="61.332" x2="220.518" y2="61.332" gradientUnits="userSpaceOnUse">
<stop stop-color="#808080" stop-opacity="0.25"/>
<stop offset="0.54" stop-color="#808080" stop-opacity="0.12"/>
<stop offset="1" stop-color="#808080" stop-opacity="0.1"/>
</linearGradient>
<linearGradient id="paint1_linear_96_17821" x1="2973.88" y1="99381" x2="2973.88" y2="42978.4" gradientUnits="userSpaceOnUse">
<stop stop-color="#808080" stop-opacity="0.25"/>
<stop offset="0.54" stop-color="#808080" stop-opacity="0.12"/>
<stop offset="1" stop-color="#808080" stop-opacity="0.1"/>
</linearGradient>
<linearGradient id="paint2_linear_96_17821" x1="157364" y1="121310" x2="157364" y2="62992" gradientUnits="userSpaceOnUse">
<stop stop-color="#808080" stop-opacity="0.25"/>
<stop offset="0.54" stop-color="#808080" stop-opacity="0.12"/>
<stop offset="1" stop-color="#808080" stop-opacity="0.1"/>
</linearGradient>
<linearGradient id="paint3_linear_96_17821" x1="26454.8" y1="17621" x2="26454.8" y2="12129.1" gradientUnits="userSpaceOnUse">
<stop stop-color="#808080" stop-opacity="0.25"/>
<stop offset="0.54" stop-color="#808080" stop-opacity="0.12"/>
<stop offset="1" stop-color="#808080" stop-opacity="0.1"/>
</linearGradient>
<linearGradient id="paint4_linear_96_17821" x1="16654.7" y1="22195.7" x2="16654.7" y2="17905.3" gradientUnits="userSpaceOnUse">
<stop stop-color="#808080" stop-opacity="0.25"/>
<stop offset="0.54" stop-color="#808080" stop-opacity="0.12"/>
<stop offset="1" stop-color="#808080" stop-opacity="0.1"/>
</linearGradient>
<linearGradient id="paint5_linear_96_17821" x1="30054.8" y1="22195.7" x2="30054.8" y2="17905.3" gradientUnits="userSpaceOnUse">
<stop stop-color="#808080" stop-opacity="0.25"/>
<stop offset="0.54" stop-color="#808080" stop-opacity="0.12"/>
<stop offset="1" stop-color="#808080" stop-opacity="0.1"/>
</linearGradient>
<linearGradient id="paint6_linear_96_17821" x1="146921" y1="57332.4" x2="146921" y2="13416" gradientUnits="userSpaceOnUse">
<stop stop-color="#808080" stop-opacity="0.25"/>
<stop offset="0.54" stop-color="#808080" stop-opacity="0.12"/>
<stop offset="1" stop-color="#808080" stop-opacity="0.1"/>
</linearGradient>
<linearGradient id="paint7_linear_96_17821" x1="28541.6" y1="49993.3" x2="28541.6" y2="38002.3" gradientUnits="userSpaceOnUse">
<stop stop-color="#808080" stop-opacity="0.25"/>
<stop offset="0.54" stop-color="#808080" stop-opacity="0.12"/>
<stop offset="1" stop-color="#808080" stop-opacity="0.1"/>
</linearGradient>
<linearGradient id="paint8_linear_96_17821" x1="6103.01" y1="6707.36" x2="6103.01" y2="6455.24" gradientUnits="userSpaceOnUse">
<stop stop-color="#808080" stop-opacity="0.25"/>
<stop offset="0.54" stop-color="#808080" stop-opacity="0.12"/>
<stop offset="1" stop-color="#808080" stop-opacity="0.1"/>
</linearGradient>
<linearGradient id="paint9_linear_96_17821" x1="34515" y1="15204" x2="34515" y2="14195.5" gradientUnits="userSpaceOnUse">
<stop stop-color="#808080" stop-opacity="0.25"/>
<stop offset="0.54" stop-color="#808080" stop-opacity="0.12"/>
<stop offset="1" stop-color="#808080" stop-opacity="0.1"/>
</linearGradient>
<clipPath id="clip0_96_17821">
<rect width="268" height="271" fill="white"/>
</clipPath>
</defs>
</svg>
