<svg width="20" height="20" viewBox="0 0 20 20" fill="none" xmlns="http://www.w3.org/2000/svg">
<path d="M9.98347 0C4.46281 0 0 4.46281 0 9.98347C0 15.5041 4.46281 20 9.98347 20C15.5041 20 20 15.5041 20 9.98347C20 4.46281 15.5041 0 9.98347 0ZM9.98347 18.5124C5.28926 18.5124 1.4876 14.6777 1.4876 9.98347C1.4876 5.28926 5.28926 1.4876 9.98347 1.4876C14.6777 1.4876 18.5124 5.32231 18.5124 10.0165C18.5124 14.6777 14.6777 18.5124 9.98347 18.5124Z" fill="black"/>
<path d="M10.5784 3.40461C9.61968 3.23932 8.62795 3.50378 7.90068 4.13188C7.1734 4.75998 6.74365 5.65254 6.74365 6.64428C6.74365 7.00791 6.80977 7.37155 6.942 7.73518C7.07423 8.13188 7.50398 8.33023 7.90068 8.19799C8.29737 8.06576 8.49572 7.63601 8.36349 7.23932C8.29737 7.04097 8.26431 6.84262 8.26431 6.64428C8.26431 6.11535 8.49572 5.61948 8.89241 5.2889C9.28911 4.95832 9.81803 4.79304 10.38 4.89221C11.0742 5.02444 11.6693 5.61948 11.8015 6.3137C11.9337 7.14014 11.504 7.96659 10.7437 8.29717C9.88415 8.6608 9.32216 9.52031 9.32216 10.512V12.5616C9.32216 12.9583 9.65274 13.322 10.0825 13.322C10.4792 13.322 10.8428 12.9914 10.8428 12.5616V10.512C10.8428 10.1484 11.0412 9.81783 11.3387 9.6856C12.7602 9.09056 13.5866 7.60295 13.3222 6.08229C12.9585 4.72692 11.9007 3.63601 10.5784 3.40461Z" fill="black"/>
<path d="M10.0167 14.5459H9.91756C9.52086 14.5459 9.15723 14.8765 9.15723 15.3062C9.15723 15.736 9.4878 16.0666 9.91756 16.0666H10.0167C10.4134 16.0666 10.744 15.736 10.744 15.3062C10.744 14.8765 10.4465 14.5459 10.0167 14.5459Z" fill="black"/>
</svg>
