<svg width="18" height="18" viewBox="0 0 18 18" fill="none" xmlns="http://www.w3.org/2000/svg">
<g clip-path="url(#clip0_4101_16257)">
<path d="M8.99961 0.506248C4.30273 0.506248 0.505859 4.30312 0.505859 9C0.505859 13.6969 4.30273 17.5219 8.99961 17.5219C13.6965 17.5219 17.5215 13.6969 17.5215 9C17.5215 4.30312 13.6965 0.506248 8.99961 0.506248ZM8.99961 16.2562C5.00586 16.2562 1.77148 12.9937 1.77148 9C1.77148 5.00625 5.00586 1.77187 8.99961 1.77187C12.9934 1.77187 16.2559 5.03437 16.2559 9.02812C16.2559 12.9937 12.9934 16.2562 8.99961 16.2562Z" fill="white"/>
<path d="M9.50566 3.40313C8.69004 3.2625 7.84629 3.4875 7.22754 4.02188C6.60879 4.55625 6.24316 5.31563 6.24316 6.15938C6.24316 6.46875 6.29941 6.77813 6.41191 7.0875C6.52441 7.425 6.89004 7.59375 7.22754 7.48125C7.56504 7.36875 7.73379 7.00313 7.62129 6.66563C7.56504 6.49688 7.53691 6.32813 7.53691 6.15938C7.53691 5.70938 7.73379 5.2875 8.07129 5.00625C8.40879 4.725 8.85879 4.58438 9.33691 4.66875C9.92754 4.78125 10.4338 5.2875 10.5463 5.87813C10.6588 6.58125 10.2932 7.28438 9.64629 7.56563C8.91504 7.875 8.43691 8.60625 8.43691 9.45V11.1938C8.43691 11.5313 8.71816 11.8406 9.08379 11.8406C9.42129 11.8406 9.73066 11.5594 9.73066 11.1938V9.45C9.73066 9.14063 9.89941 8.85938 10.1525 8.74688C11.3619 8.24063 12.065 6.975 11.84 5.68125C11.5307 4.52813 10.6307 3.6 9.50566 3.40313Z" fill="white"/>
<path d="M9.02812 12.8812H8.94375C8.60625 12.8812 8.29688 13.1625 8.29688 13.5281C8.29688 13.8937 8.57812 14.175 8.94375 14.175H9.02812C9.36562 14.175 9.64687 13.8937 9.64687 13.5281C9.64687 13.1625 9.39375 12.8812 9.02812 12.8812Z" fill="white"/>
</g>
<defs>
<clipPath id="clip0_4101_16257">
<rect width="18" height="18" fill="white"/>
</clipPath>
</defs>
</svg>
