<svg width="18" height="18" viewBox="0 0 18 18" fill="none" xmlns="http://www.w3.org/2000/svg">
<g clip-path="url(#clip0_4101_15506)">
<path d="M9 11.25C10.2426 11.25 11.25 10.2426 11.25 9C11.25 7.75736 10.2426 6.75 9 6.75C7.75736 6.75 6.75 7.75736 6.75 9C6.75 10.2426 7.75736 11.25 9 11.25Z" stroke="white" stroke-width="2" stroke-linecap="round" stroke-linejoin="round"/>
<path d="M14.55 11.25C14.4502 11.4762 14.4204 11.7272 14.4645 11.9705C14.5086 12.2138 14.6246 12.4383 14.7975 12.615L14.8425 12.66C14.982 12.7993 15.0926 12.9648 15.1681 13.1469C15.2436 13.329 15.2824 13.5241 15.2824 13.7213C15.2824 13.9184 15.2436 14.1136 15.1681 14.2957C15.0926 14.4778 14.982 14.6432 14.8425 14.7825C14.7032 14.922 14.5378 15.0326 14.3557 15.1081C14.1736 15.1836 13.9784 15.2224 13.7812 15.2224C13.5841 15.2224 13.3889 15.1836 13.2068 15.1081C13.0247 15.0326 12.8593 14.922 12.72 14.7825L12.675 14.7375C12.4982 14.5646 12.2737 14.4486 12.0304 14.4045C11.7871 14.3604 11.5362 14.3902 11.31 14.49C11.0882 14.5851 10.899 14.7429 10.7657 14.9442C10.6325 15.1454 10.561 15.3812 10.56 15.6225V15.75C10.56 16.1478 10.402 16.5294 10.1207 16.8107C9.83936 17.092 9.45782 17.25 9.06 17.25C8.66218 17.25 8.28064 17.092 7.99934 16.8107C7.71804 16.5294 7.56 16.1478 7.56 15.75V15.6825C7.55419 15.4343 7.47384 15.1935 7.32938 14.9915C7.18493 14.7896 6.98305 14.6357 6.75 14.55C6.52379 14.4502 6.27286 14.4204 6.02956 14.4645C5.78626 14.5086 5.56176 14.6246 5.385 14.7975L5.34 14.8425C5.20069 14.982 5.03526 15.0926 4.85316 15.1681C4.67106 15.2436 4.47587 15.2824 4.27875 15.2824C4.08163 15.2824 3.88644 15.2436 3.70434 15.1681C3.52224 15.0926 3.35681 14.982 3.2175 14.8425C3.07804 14.7032 2.9674 14.5378 2.89191 14.3557C2.81642 14.1736 2.77757 13.9784 2.77757 13.7813C2.77757 13.5841 2.81642 13.389 2.89191 13.2069C2.9674 13.0248 3.07804 12.8593 3.2175 12.72L3.2625 12.675C3.4354 12.4983 3.55139 12.2738 3.5955 12.0305C3.63962 11.7872 3.60984 11.5362 3.51 11.31C3.41493 11.0882 3.25707 10.899 3.05585 10.7657C2.85463 10.6325 2.61884 10.561 2.3775 10.56H2.25C1.85218 10.56 1.47064 10.402 1.18934 10.1207C0.908035 9.83937 0.75 9.45784 0.75 9.06002C0.75 8.66219 0.908035 8.28066 1.18934 7.99936C1.47064 7.71805 1.85218 7.56002 2.25 7.56002H2.3175C2.56575 7.55421 2.8065 7.47385 3.00847 7.3294C3.21045 7.18494 3.36429 6.98307 3.45 6.75002C3.54984 6.5238 3.57962 6.27287 3.5355 6.02957C3.49139 5.78628 3.3754 5.56177 3.2025 5.38502L3.1575 5.34002C3.01804 5.20071 2.9074 5.03527 2.83191 4.85318C2.75642 4.67108 2.71757 4.47589 2.71757 4.27877C2.71757 4.08164 2.75642 3.88645 2.83191 3.70435C2.9074 3.52226 3.01804 3.35682 3.1575 3.21752C3.29681 3.07805 3.46224 2.96741 3.64434 2.89193C3.82644 2.81644 4.02163 2.77759 4.21875 2.77759C4.41587 2.77759 4.61106 2.81644 4.79316 2.89193C4.97526 2.96741 5.14069 3.07805 5.28 3.21752L5.325 3.26252C5.50176 3.43542 5.72626 3.5514 5.96956 3.59552C6.21285 3.63963 6.46379 3.60985 6.69 3.51002H6.75C6.97183 3.41494 7.16101 3.25708 7.29427 3.05586C7.42753 2.85465 7.49904 2.61886 7.5 2.37752V2.25002C7.5 1.85219 7.65804 1.47066 7.93934 1.18936C8.22064 0.908051 8.60218 0.750015 9 0.750015C9.39782 0.750015 9.77936 0.908051 10.0607 1.18936C10.342 1.47066 10.5 1.85219 10.5 2.25002V2.31752C10.501 2.55886 10.5725 2.79465 10.7057 2.99586C10.839 3.19708 11.0282 3.35494 11.25 3.45002C11.4762 3.54985 11.7271 3.57963 11.9704 3.53552C12.2137 3.4914 12.4382 3.37542 12.615 3.20252L12.66 3.15752C12.7993 3.01805 12.9647 2.90741 13.1468 2.83193C13.3289 2.75644 13.5241 2.71759 13.7213 2.71759C13.9184 2.71759 14.1136 2.75644 14.2957 2.83193C14.4778 2.90741 14.6432 3.01805 14.7825 3.15752C14.922 3.29682 15.0326 3.46226 15.1081 3.64435C15.1836 3.82645 15.2224 4.02164 15.2224 4.21877C15.2224 4.41589 15.1836 4.61108 15.1081 4.79318C15.0326 4.97527 14.922 5.14071 14.7825 5.28002L14.7375 5.32502C14.5646 5.50177 14.4486 5.72628 14.4045 5.96957C14.3604 6.21287 14.3902 6.4638 14.49 6.69002V6.75002C14.5851 6.97184 14.7429 7.16103 14.9442 7.29428C15.1454 7.42754 15.3812 7.49905 15.6225 7.50002H15.75C16.1478 7.50002 16.5294 7.65805 16.8107 7.93936C17.092 8.22066 17.25 8.60219 17.25 9.00002C17.25 9.39784 17.092 9.77937 16.8107 10.0607C16.5294 10.342 16.1478 10.5 15.75 10.5H15.6825C15.4412 10.501 15.2054 10.5725 15.0042 10.7057C14.8029 10.839 14.6451 11.0282 14.55 11.25V11.25Z" stroke="white" stroke-width="2" stroke-linecap="round" stroke-linejoin="round"/>
</g>
<defs>
<clipPath id="clip0_4101_15506">
<rect width="18" height="18" fill="white"/>
</clipPath>
</defs>
</svg>
