<svg width="24" height="24" viewBox="0 0 24 24" fill="none" xmlns="http://www.w3.org/2000/svg">
<path d="M18.3377 3.3H15.4502V2.6625C15.4502 1.5375 14.5502 0.637501 13.4252 0.637501H10.5377C9.4127 0.637501 8.5127 1.5375 8.5127 2.6625V3.3H5.6252C4.5377 3.3 3.6377 4.2 3.6377 5.2875V6.4125C3.6377 7.2375 4.1252 7.9125 4.8377 8.2125L5.4377 21.1875C5.5127 22.425 6.4877 23.3625 7.7252 23.3625H16.1627C17.4002 23.3625 18.4127 22.3875 18.4502 21.1875L19.1252 8.175C19.8377 7.875 20.3252 7.1625 20.3252 6.375V5.25C20.3252 4.2 19.4252 3.3 18.3377 3.3ZM10.2377 2.6625C10.2377 2.475 10.3877 2.325 10.5752 2.325H13.4627C13.6502 2.325 13.8002 2.475 13.8002 2.6625V3.3H10.2752V2.6625H10.2377ZM5.3627 5.2875C5.3627 5.1375 5.4752 4.9875 5.6627 4.9875H18.3377C18.4877 4.9875 18.6377 5.1 18.6377 5.2875V6.4125C18.6377 6.5625 18.5252 6.7125 18.3377 6.7125H5.6627C5.5127 6.7125 5.3627 6.6 5.3627 6.4125V5.2875ZM16.2002 21.675H7.8002C7.4627 21.675 7.2002 21.4125 7.2002 21.1125L6.6002 8.4H17.4377L16.8377 21.1125C16.8002 21.4125 16.5377 21.675 16.2002 21.675Z" fill="black"/>
<path d="M12.0002 12.15C11.5502 12.15 11.1377 12.525 11.1377 13.0125V17.775C11.1377 18.225 11.5127 18.6375 12.0002 18.6375C12.4502 18.6375 12.8627 18.2625 12.8627 17.775V13.0125C12.8627 12.525 12.4502 12.15 12.0002 12.15Z" fill="black"/>
<path d="M14.9999 12.9C14.5124 12.8625 14.1374 13.2 14.0999 13.6875L13.8749 16.9875C13.8374 17.4375 14.1749 17.85 14.6624 17.8875C14.6999 17.8875 14.6999 17.8875 14.7374 17.8875C15.1874 17.8875 15.5624 17.55 15.5624 17.1L15.7874 13.8C15.7874 13.3125 15.4499 12.9375 14.9999 12.9Z" fill="black"/>
<path d="M8.96294 12.9C8.51294 12.9375 8.13794 13.35 8.17544 13.8L8.43794 17.1C8.47544 17.55 8.85044 17.8875 9.26294 17.8875C9.30044 17.8875 9.30044 17.8875 9.33794 17.8875C9.78794 17.85 10.1629 17.4375 10.1254 16.9875L9.86294 13.6875C9.86294 13.2 9.45044 12.8625 8.96294 12.9Z" fill="black"/>
</svg>
