<svg width="4" height="16" viewBox="0 0 4 16" fill="none" xmlns="http://www.w3.org/2000/svg">
<path d="M3.20117 10.2637H0.818359L0.320312 0.722656H3.69922L3.20117 10.2637ZM0.28125 13.6035C0.28125 12.9915 0.447266 12.5618 0.779297 12.3145C1.11784 12.0671 1.52474 11.9434 2 11.9434C2.46224 11.9434 2.85938 12.0671 3.19141 12.3145C3.52995 12.5618 3.69922 12.9915 3.69922 13.6035C3.69922 14.1895 3.52995 14.6126 3.19141 14.873C2.85938 15.1335 2.46224 15.2637 2 15.2637C1.52474 15.2637 1.11784 15.1335 0.779297 14.873C0.447266 14.6126 0.28125 14.1895 0.28125 13.6035Z" fill="#3C3C43" fill-opacity="0.6"/>
</svg>
