<svg width="24" height="20" viewBox="0 0 24 20" fill="none" xmlns="http://www.w3.org/2000/svg">
<path d="M19.9125 3.21875H19.8375C19.575 3.21875 19.3125 3.21875 19.05 3.21875V2.5C19.05 1.4375 18 0.53125 16.6875 0.53125H5.3625C4.05 0.5625 3 1.4375 3 2.5V13.1875C3 13.5938 3.1875 13.9688 3.525 14.2812L9 18.9688C9.3375 19.2812 9.825 19.4375 10.35 19.4375H17.2125C18.225 19.4375 19.0875 18.75 19.0875 17.875V17.5938L20.8875 14.5625C20.9625 14.4687 20.9625 14.375 20.9625 14.25L21 4.125C21 3.65625 20.5125 3.25 19.9125 3.21875ZM19.3125 5.75H17.2125V4.59375C17.925 4.59375 18.6 4.59375 19.3125 4.59375V5.75ZM8.925 16.875L5.85 14.25H8.925V16.875ZM17.2125 18.0625H10.6125V13.7188C10.6125 13.2188 10.125 12.8437 9.5625 12.8437H4.6875V2.5C4.6875 2.1875 4.9875 1.9375 5.3625 1.9375H16.7625C17.1375 1.9375 17.4375 2.1875 17.4375 2.5V3.1875C17.175 3.1875 16.95 3.1875 16.6875 3.1875C16.05 3.1875 15.5625 3.59375 15.5625 4.09375L15.525 14.25C15.525 14.375 15.5625 14.4687 15.6 14.5625L17.4375 17.5938V17.875C17.4 17.9688 17.325 18.0625 17.2125 18.0625ZM18.225 15.875L17.175 14.0937V7.15625H19.275V14.0937L18.225 15.875Z" fill="#4B5A6F"/>
</svg>
