<svg width="22" height="22" viewBox="0 0 22 22" fill="none" xmlns="http://www.w3.org/2000/svg">
<path d="M11.0002 13.7502C11.7427 13.7502 12.3752 13.4752 12.9343 12.9343C13.4752 12.3752 13.7502 11.7427 13.7502 11.0002C13.7502 10.2577 13.4752 9.62516 12.9343 9.066C12.3752 8.52516 11.7427 8.25016 11.0002 8.25016C10.2577 8.25016 9.62516 8.52516 9.066 9.066C8.52516 9.62516 8.25016 10.2577 8.25016 11.0002C8.25016 11.7427 8.52516 12.3752 9.066 12.9343C9.62516 13.4752 10.2577 13.7502 11.0002 13.7502ZM11.0002 1.8335C13.521 1.8335 15.6752 2.75016 17.4627 4.53766C19.2502 6.32516 20.1668 8.47933 20.1668 11.0002V12.3293C20.1668 13.246 19.846 14.0252 19.2502 14.6668C18.6085 15.281 17.8752 15.5835 16.9585 15.5835C15.8585 15.5835 14.951 15.1252 14.2635 14.2085C13.3468 15.1252 12.2652 15.5835 11.0002 15.5835C9.74433 15.5835 8.66266 15.1252 7.75516 14.2452C6.87516 13.3377 6.41683 12.2652 6.41683 11.0002C6.41683 9.74433 6.87516 8.66266 7.75516 7.75516C8.66266 6.87516 9.74433 6.41683 11.0002 6.41683C12.2652 6.41683 13.3377 6.87516 14.2452 7.75516C15.1252 8.66266 15.5835 9.74433 15.5835 11.0002V12.3293C15.5835 12.7052 15.7302 13.0352 16.0052 13.3193C16.2802 13.6035 16.601 13.7502 16.9585 13.7502C17.3435 13.7502 17.6643 13.6035 17.9393 13.3193C18.2143 13.0352 18.3335 12.7052 18.3335 12.3293V11.0002C18.3335 8.99266 17.6277 7.26933 16.1793 5.821C14.731 4.37266 13.0077 3.66683 11.0002 3.66683C8.99266 3.66683 7.26933 4.37266 5.821 5.821C4.37266 7.26933 3.66683 8.99266 3.66683 11.0002C3.66683 13.0077 4.37266 14.731 5.821 16.1793C7.26933 17.6277 8.99266 18.3335 11.0002 18.3335H15.5835V20.1668H11.0002C8.47933 20.1668 6.32516 19.2502 4.53766 17.4627C2.75016 15.6752 1.8335 13.521 1.8335 11.0002C1.8335 8.47933 2.75016 6.32516 4.53766 4.53766C6.32516 2.75016 8.47933 1.8335 11.0002 1.8335Z" fill="#737D8C"/>
</svg>
