<svg width="20" height="20" viewBox="0 0 20 20" fill="none" xmlns="http://www.w3.org/2000/svg">
<path d="M16.6667 8.33341V5.83341C16.6667 5.39139 16.4912 4.96746 16.1786 4.6549C15.866 4.34234 15.4421 4.16675 15.0001 4.16675H5.00008C4.55805 4.16675 4.13413 4.34234 3.82157 4.6549C3.50901 4.96746 3.33341 5.39139 3.33341 5.83341V8.33341C2.89139 8.33341 2.46746 8.50901 2.1549 8.82157C1.84234 9.13413 1.66675 9.55805 1.66675 10.0001V14.1667H2.77508L3.33341 15.8334H4.16675L4.72508 14.1667H15.2751L15.8334 15.8334H16.6667L17.2251 14.1667H18.3334V10.0001C18.3334 9.55805 18.1578 9.13413 17.8453 8.82157C17.5327 8.50901 17.1088 8.33341 16.6667 8.33341ZM10.8334 5.83341H15.0001V8.33341H10.8334M5.00008 5.83341H9.16675V8.33341H5.00008M16.6667 12.5001H3.33341V10.0001H16.6667V12.5001Z" fill="#737D8C"/>
</svg>
