<svg width="187" height="187" viewBox="0 0 187 187" fill="none" xmlns="http://www.w3.org/2000/svg">
<circle cx="3.22414" cy="3.22414" r="2.72414" stroke="#1252AE" stroke-opacity="0.2"/>
<circle cx="3.22414" cy="16.1207" r="2.72414" stroke="#1252AE" stroke-opacity="0.2"/>
<circle cx="3.22414" cy="29.0172" r="2.72414" stroke="#1252AE" stroke-opacity="0.2"/>
<circle cx="3.22414" cy="41.9138" r="2.72414" stroke="#1252AE" stroke-opacity="0.2"/>
<circle cx="3.22414" cy="54.8103" r="2.72414" stroke="#1252AE" stroke-opacity="0.2"/>
<circle cx="3.22414" cy="67.7069" r="2.72414" stroke="#1252AE" stroke-opacity="0.2"/>
<circle cx="3.22414" cy="80.6034" r="2.72414" stroke="#1252AE" stroke-opacity="0.2"/>
<circle cx="3.22414" cy="93.5" r="2.72414" stroke="#1252AE" stroke-opacity="0.2"/>
<circle cx="3.22414" cy="106.396" r="2.72414" stroke="#1252AE" stroke-opacity="0.2"/>
<circle cx="3.22414" cy="119.293" r="2.72414" stroke="#1252AE" stroke-opacity="0.2"/>
<circle cx="3.22414" cy="132.19" r="2.72414" stroke="#1252AE" stroke-opacity="0.2"/>
<circle cx="3.22414" cy="145.086" r="2.72414" stroke="#1252AE" stroke-opacity="0.2"/>
<circle cx="3.22414" cy="157.983" r="2.72414" stroke="#1252AE" stroke-opacity="0.2"/>
<circle cx="3.22414" cy="170.879" r="2.72414" stroke="#1252AE" stroke-opacity="0.2"/>
<circle cx="3.22414" cy="183.776" r="2.72414" stroke="#1252AE" stroke-opacity="0.2"/>
<circle cx="16.1206" cy="3.22414" r="2.72414" stroke="#1252AE" stroke-opacity="0.2"/>
<circle cx="16.1206" cy="16.1207" r="2.72414" stroke="#1252AE" stroke-opacity="0.2"/>
<circle cx="16.1206" cy="29.0172" r="2.72414" stroke="#1252AE" stroke-opacity="0.2"/>
<circle cx="16.1206" cy="41.9138" r="2.72414" stroke="#1252AE" stroke-opacity="0.2"/>
<circle cx="16.1206" cy="54.8103" r="2.72414" stroke="#1252AE" stroke-opacity="0.2"/>
<circle cx="16.1206" cy="67.7069" r="2.72414" stroke="#1252AE" stroke-opacity="0.2"/>
<circle cx="16.1206" cy="80.6034" r="2.72414" stroke="#1252AE" stroke-opacity="0.2"/>
<circle cx="16.1206" cy="93.5" r="2.72414" stroke="#1252AE" stroke-opacity="0.2"/>
<circle cx="16.1206" cy="106.396" r="2.72414" stroke="#1252AE" stroke-opacity="0.2"/>
<circle cx="16.1206" cy="119.293" r="2.72414" stroke="#1252AE" stroke-opacity="0.2"/>
<circle cx="16.1206" cy="132.19" r="2.72414" stroke="#1252AE" stroke-opacity="0.2"/>
<circle cx="16.1206" cy="145.086" r="2.72414" stroke="#1252AE" stroke-opacity="0.2"/>
<circle cx="16.1206" cy="157.983" r="2.72414" stroke="#1252AE" stroke-opacity="0.2"/>
<circle cx="16.1206" cy="170.879" r="2.72414" stroke="#1252AE" stroke-opacity="0.2"/>
<circle cx="16.1206" cy="183.776" r="2.72414" stroke="#1252AE" stroke-opacity="0.2"/>
<circle cx="29.0171" cy="3.22414" r="2.72414" stroke="#1252AE" stroke-opacity="0.2"/>
<circle cx="29.0171" cy="16.1207" r="2.72414" stroke="#1252AE" stroke-opacity="0.2"/>
<circle cx="29.0171" cy="29.0172" r="2.72414" stroke="#1252AE" stroke-opacity="0.2"/>
<circle cx="29.0171" cy="41.9138" r="2.72414" stroke="#1252AE" stroke-opacity="0.2"/>
<circle cx="29.0171" cy="54.8103" r="2.72414" stroke="#1252AE" stroke-opacity="0.2"/>
<circle cx="29.0171" cy="67.7069" r="2.72414" stroke="#1252AE" stroke-opacity="0.2"/>
<circle cx="29.0171" cy="80.6034" r="2.72414" stroke="#1252AE" stroke-opacity="0.2"/>
<circle cx="29.0171" cy="93.5" r="2.72414" stroke="#1252AE" stroke-opacity="0.2"/>
<circle cx="29.0171" cy="106.396" r="2.72414" stroke="#1252AE" stroke-opacity="0.2"/>
<circle cx="29.0171" cy="119.293" r="2.72414" stroke="#1252AE" stroke-opacity="0.2"/>
<circle cx="29.0171" cy="132.19" r="2.72414" stroke="#1252AE" stroke-opacity="0.2"/>
<circle cx="29.0171" cy="145.086" r="2.72414" stroke="#1252AE" stroke-opacity="0.2"/>
<circle cx="29.0171" cy="157.983" r="2.72414" stroke="#1252AE" stroke-opacity="0.2"/>
<circle cx="29.0171" cy="170.879" r="2.72414" stroke="#1252AE" stroke-opacity="0.2"/>
<circle cx="29.0171" cy="183.776" r="2.72414" stroke="#1252AE" stroke-opacity="0.2"/>
<circle cx="41.9136" cy="3.22414" r="2.72414" stroke="#1252AE" stroke-opacity="0.2"/>
<circle cx="41.9136" cy="16.1207" r="2.72414" stroke="#1252AE" stroke-opacity="0.2"/>
<circle cx="41.9136" cy="29.0172" r="2.72414" stroke="#1252AE" stroke-opacity="0.2"/>
<circle cx="41.9136" cy="41.9138" r="2.72414" stroke="#1252AE" stroke-opacity="0.2"/>
<circle cx="41.9136" cy="54.8103" r="2.72414" stroke="#1252AE" stroke-opacity="0.2"/>
<circle cx="41.9136" cy="67.7069" r="2.72414" stroke="#1252AE" stroke-opacity="0.2"/>
<circle cx="41.9136" cy="80.6034" r="2.72414" stroke="#1252AE" stroke-opacity="0.2"/>
<circle cx="41.9136" cy="93.5" r="2.72414" stroke="#1252AE" stroke-opacity="0.2"/>
<circle cx="41.9136" cy="106.396" r="2.72414" stroke="#1252AE" stroke-opacity="0.2"/>
<circle cx="41.9136" cy="119.293" r="2.72414" stroke="#1252AE" stroke-opacity="0.2"/>
<circle cx="41.9136" cy="132.19" r="2.72414" stroke="#1252AE" stroke-opacity="0.2"/>
<circle cx="41.9136" cy="145.086" r="2.72414" stroke="#1252AE" stroke-opacity="0.2"/>
<circle cx="41.9136" cy="157.983" r="2.72414" stroke="#1252AE" stroke-opacity="0.2"/>
<circle cx="41.9136" cy="170.879" r="2.72414" stroke="#1252AE" stroke-opacity="0.2"/>
<circle cx="41.9136" cy="183.776" r="2.72414" stroke="#1252AE" stroke-opacity="0.2"/>
<circle cx="54.8101" cy="3.22414" r="2.72414" stroke="#1252AE" stroke-opacity="0.2"/>
<circle cx="54.8101" cy="16.1207" r="2.72414" stroke="#1252AE" stroke-opacity="0.2"/>
<circle cx="54.8101" cy="29.0172" r="2.72414" stroke="#1252AE" stroke-opacity="0.2"/>
<circle cx="54.8101" cy="41.9138" r="2.72414" stroke="#1252AE" stroke-opacity="0.2"/>
<circle cx="54.8101" cy="54.8103" r="2.72414" stroke="#1252AE" stroke-opacity="0.2"/>
<circle cx="54.8101" cy="67.7069" r="2.72414" stroke="#1252AE" stroke-opacity="0.2"/>
<circle cx="54.8101" cy="80.6034" r="2.72414" stroke="#1252AE" stroke-opacity="0.2"/>
<circle cx="54.8101" cy="93.5" r="2.72414" stroke="#1252AE" stroke-opacity="0.2"/>
<circle cx="54.8101" cy="106.396" r="2.72414" stroke="#1252AE" stroke-opacity="0.2"/>
<circle cx="54.8101" cy="119.293" r="2.72414" stroke="#1252AE" stroke-opacity="0.2"/>
<circle cx="54.8101" cy="132.19" r="2.72414" stroke="#1252AE" stroke-opacity="0.2"/>
<circle cx="54.8101" cy="145.086" r="2.72414" stroke="#1252AE" stroke-opacity="0.2"/>
<circle cx="54.8101" cy="157.983" r="2.72414" stroke="#1252AE" stroke-opacity="0.2"/>
<circle cx="54.8101" cy="170.879" r="2.72414" stroke="#1252AE" stroke-opacity="0.2"/>
<circle cx="54.8101" cy="183.776" r="2.72414" stroke="#1252AE" stroke-opacity="0.2"/>
<circle cx="67.7066" cy="3.22414" r="2.72414" stroke="#1252AE" stroke-opacity="0.2"/>
<circle cx="67.7066" cy="16.1207" r="2.72414" stroke="#1252AE" stroke-opacity="0.2"/>
<circle cx="67.7066" cy="29.0172" r="2.72414" stroke="#1252AE" stroke-opacity="0.2"/>
<circle cx="67.7066" cy="41.9138" r="2.72414" stroke="#1252AE" stroke-opacity="0.2"/>
<circle cx="67.7066" cy="54.8103" r="2.72414" stroke="#1252AE" stroke-opacity="0.2"/>
<circle cx="67.7066" cy="67.7069" r="2.72414" stroke="#1252AE" stroke-opacity="0.2"/>
<circle cx="67.7066" cy="80.6034" r="2.72414" stroke="#1252AE" stroke-opacity="0.2"/>
<circle cx="67.7066" cy="93.5" r="2.72414" stroke="#1252AE" stroke-opacity="0.2"/>
<circle cx="67.7066" cy="106.396" r="2.72414" stroke="#1252AE" stroke-opacity="0.2"/>
<circle cx="67.7066" cy="119.293" r="2.72414" stroke="#1252AE" stroke-opacity="0.2"/>
<circle cx="67.7066" cy="132.19" r="2.72414" stroke="#1252AE" stroke-opacity="0.2"/>
<circle cx="67.7066" cy="145.086" r="2.72414" stroke="#1252AE" stroke-opacity="0.2"/>
<circle cx="67.7066" cy="157.983" r="2.72414" stroke="#1252AE" stroke-opacity="0.2"/>
<circle cx="67.7066" cy="170.879" r="2.72414" stroke="#1252AE" stroke-opacity="0.2"/>
<circle cx="67.7066" cy="183.776" r="2.72414" stroke="#1252AE" stroke-opacity="0.2"/>
<circle cx="80.603" cy="3.22414" r="2.72414" stroke="#1252AE" stroke-opacity="0.2"/>
<circle cx="80.603" cy="16.1207" r="2.72414" stroke="#1252AE" stroke-opacity="0.2"/>
<circle cx="80.603" cy="29.0172" r="2.72414" stroke="#1252AE" stroke-opacity="0.2"/>
<circle cx="80.603" cy="41.9138" r="2.72414" stroke="#1252AE" stroke-opacity="0.2"/>
<circle cx="80.603" cy="54.8103" r="2.72414" stroke="#1252AE" stroke-opacity="0.2"/>
<circle cx="80.603" cy="67.7069" r="2.72414" stroke="#1252AE" stroke-opacity="0.2"/>
<circle cx="80.603" cy="80.6034" r="2.72414" stroke="#1252AE" stroke-opacity="0.2"/>
<circle cx="80.603" cy="93.5" r="2.72414" stroke="#1252AE" stroke-opacity="0.2"/>
<circle cx="80.603" cy="106.396" r="2.72414" stroke="#1252AE" stroke-opacity="0.2"/>
<circle cx="80.603" cy="119.293" r="2.72414" stroke="#1252AE" stroke-opacity="0.2"/>
<circle cx="80.603" cy="132.19" r="2.72414" stroke="#1252AE" stroke-opacity="0.2"/>
<circle cx="80.603" cy="145.086" r="2.72414" stroke="#1252AE" stroke-opacity="0.2"/>
<circle cx="80.603" cy="157.983" r="2.72414" stroke="#1252AE" stroke-opacity="0.2"/>
<circle cx="80.603" cy="170.879" r="2.72414" stroke="#1252AE" stroke-opacity="0.2"/>
<circle cx="80.603" cy="183.776" r="2.72414" stroke="#1252AE" stroke-opacity="0.2"/>
<circle cx="93.4995" cy="3.22414" r="2.72414" stroke="#1252AE" stroke-opacity="0.2"/>
<circle cx="93.4995" cy="16.1207" r="2.72414" stroke="#1252AE" stroke-opacity="0.2"/>
<circle cx="93.4995" cy="29.0172" r="2.72414" stroke="#1252AE" stroke-opacity="0.2"/>
<circle cx="93.4995" cy="41.9138" r="2.72414" stroke="#1252AE" stroke-opacity="0.2"/>
<circle cx="93.4995" cy="54.8103" r="2.72414" stroke="#1252AE" stroke-opacity="0.2"/>
<circle cx="93.4995" cy="67.7069" r="2.72414" stroke="#1252AE" stroke-opacity="0.2"/>
<circle cx="93.4995" cy="80.6034" r="2.72414" stroke="#1252AE" stroke-opacity="0.2"/>
<circle cx="93.4995" cy="93.5" r="2.72414" stroke="#1252AE" stroke-opacity="0.2"/>
<circle cx="93.4995" cy="106.396" r="2.72414" stroke="#1252AE" stroke-opacity="0.2"/>
<circle cx="93.4995" cy="119.293" r="2.72414" stroke="#1252AE" stroke-opacity="0.2"/>
<circle cx="93.4995" cy="132.19" r="2.72414" stroke="#1252AE" stroke-opacity="0.2"/>
<circle cx="93.4995" cy="145.086" r="2.72414" stroke="#1252AE" stroke-opacity="0.2"/>
<circle cx="93.4995" cy="157.983" r="2.72414" stroke="#1252AE" stroke-opacity="0.2"/>
<circle cx="93.4995" cy="170.879" r="2.72414" stroke="#1252AE" stroke-opacity="0.2"/>
<circle cx="93.4995" cy="183.776" r="2.72414" stroke="#1252AE" stroke-opacity="0.2"/>
<circle cx="106.397" cy="3.22414" r="2.72414" stroke="#1252AE" stroke-opacity="0.2"/>
<circle cx="106.397" cy="16.1207" r="2.72414" stroke="#1252AE" stroke-opacity="0.2"/>
<circle cx="106.397" cy="29.0172" r="2.72414" stroke="#1252AE" stroke-opacity="0.2"/>
<circle cx="106.397" cy="41.9138" r="2.72414" stroke="#1252AE" stroke-opacity="0.2"/>
<circle cx="106.397" cy="54.8103" r="2.72414" stroke="#1252AE" stroke-opacity="0.2"/>
<circle cx="106.397" cy="67.7069" r="2.72414" stroke="#1252AE" stroke-opacity="0.2"/>
<circle cx="106.397" cy="80.6034" r="2.72414" stroke="#1252AE" stroke-opacity="0.2"/>
<circle cx="106.397" cy="93.5" r="2.72414" stroke="#1252AE" stroke-opacity="0.2"/>
<circle cx="106.397" cy="106.396" r="2.72414" stroke="#1252AE" stroke-opacity="0.2"/>
<circle cx="106.397" cy="119.293" r="2.72414" stroke="#1252AE" stroke-opacity="0.2"/>
<circle cx="106.397" cy="132.19" r="2.72414" stroke="#1252AE" stroke-opacity="0.2"/>
<circle cx="106.397" cy="145.086" r="2.72414" stroke="#1252AE" stroke-opacity="0.2"/>
<circle cx="106.397" cy="157.983" r="2.72414" stroke="#1252AE" stroke-opacity="0.2"/>
<circle cx="106.397" cy="170.879" r="2.72414" stroke="#1252AE" stroke-opacity="0.2"/>
<circle cx="106.397" cy="183.776" r="2.72414" stroke="#1252AE" stroke-opacity="0.2"/>
<circle cx="119.293" cy="3.22414" r="2.72414" stroke="#1252AE" stroke-opacity="0.2"/>
<circle cx="119.293" cy="16.1207" r="2.72414" stroke="#1252AE" stroke-opacity="0.2"/>
<circle cx="119.293" cy="29.0172" r="2.72414" stroke="#1252AE" stroke-opacity="0.2"/>
<circle cx="119.293" cy="41.9138" r="2.72414" stroke="#1252AE" stroke-opacity="0.2"/>
<circle cx="119.293" cy="54.8103" r="2.72414" stroke="#1252AE" stroke-opacity="0.2"/>
<circle cx="119.293" cy="67.7069" r="2.72414" stroke="#1252AE" stroke-opacity="0.2"/>
<circle cx="119.293" cy="80.6034" r="2.72414" stroke="#1252AE" stroke-opacity="0.2"/>
<circle cx="119.293" cy="93.5" r="2.72414" stroke="#1252AE" stroke-opacity="0.2"/>
<circle cx="119.293" cy="106.396" r="2.72414" stroke="#1252AE" stroke-opacity="0.2"/>
<circle cx="119.293" cy="119.293" r="2.72414" stroke="#1252AE" stroke-opacity="0.2"/>
<circle cx="119.293" cy="132.19" r="2.72414" stroke="#1252AE" stroke-opacity="0.2"/>
<circle cx="119.293" cy="145.086" r="2.72414" stroke="#1252AE" stroke-opacity="0.2"/>
<circle cx="119.293" cy="157.983" r="2.72414" stroke="#1252AE" stroke-opacity="0.2"/>
<circle cx="119.293" cy="170.879" r="2.72414" stroke="#1252AE" stroke-opacity="0.2"/>
<circle cx="119.293" cy="183.776" r="2.72414" stroke="#1252AE" stroke-opacity="0.2"/>
<circle cx="132.19" cy="3.22414" r="2.72414" stroke="#1252AE" stroke-opacity="0.2"/>
<circle cx="132.19" cy="16.1207" r="2.72414" stroke="#1252AE" stroke-opacity="0.2"/>
<circle cx="132.19" cy="29.0172" r="2.72414" stroke="#1252AE" stroke-opacity="0.2"/>
<circle cx="132.19" cy="41.9138" r="2.72414" stroke="#1252AE" stroke-opacity="0.2"/>
<circle cx="132.19" cy="54.8103" r="2.72414" stroke="#1252AE" stroke-opacity="0.2"/>
<circle cx="132.19" cy="67.7069" r="2.72414" stroke="#1252AE" stroke-opacity="0.2"/>
<circle cx="132.19" cy="80.6034" r="2.72414" stroke="#1252AE" stroke-opacity="0.2"/>
<circle cx="132.19" cy="93.5" r="2.72414" stroke="#1252AE" stroke-opacity="0.2"/>
<circle cx="132.19" cy="106.396" r="2.72414" stroke="#1252AE" stroke-opacity="0.2"/>
<circle cx="132.19" cy="119.293" r="2.72414" stroke="#1252AE" stroke-opacity="0.2"/>
<circle cx="132.19" cy="132.19" r="2.72414" stroke="#1252AE" stroke-opacity="0.2"/>
<circle cx="132.19" cy="145.086" r="2.72414" stroke="#1252AE" stroke-opacity="0.2"/>
<circle cx="132.19" cy="157.983" r="2.72414" stroke="#1252AE" stroke-opacity="0.2"/>
<circle cx="132.19" cy="170.879" r="2.72414" stroke="#1252AE" stroke-opacity="0.2"/>
<circle cx="132.19" cy="183.776" r="2.72414" stroke="#1252AE" stroke-opacity="0.2"/>
<circle cx="145.086" cy="3.22414" r="2.72414" stroke="#1252AE" stroke-opacity="0.2"/>
<circle cx="145.086" cy="16.1207" r="2.72414" stroke="#1252AE" stroke-opacity="0.2"/>
<circle cx="145.086" cy="29.0172" r="2.72414" stroke="#1252AE" stroke-opacity="0.2"/>
<circle cx="145.086" cy="41.9138" r="2.72414" stroke="#1252AE" stroke-opacity="0.2"/>
<circle cx="145.086" cy="54.8103" r="2.72414" stroke="#1252AE" stroke-opacity="0.2"/>
<circle cx="145.086" cy="67.7069" r="2.72414" stroke="#1252AE" stroke-opacity="0.2"/>
<circle cx="145.086" cy="80.6034" r="2.72414" stroke="#1252AE" stroke-opacity="0.2"/>
<circle cx="145.086" cy="93.5" r="2.72414" stroke="#1252AE" stroke-opacity="0.2"/>
<circle cx="145.086" cy="106.396" r="2.72414" stroke="#1252AE" stroke-opacity="0.2"/>
<circle cx="145.086" cy="119.293" r="2.72414" stroke="#1252AE" stroke-opacity="0.2"/>
<circle cx="145.086" cy="132.19" r="2.72414" stroke="#1252AE" stroke-opacity="0.2"/>
<circle cx="145.086" cy="145.086" r="2.72414" stroke="#1252AE" stroke-opacity="0.2"/>
<circle cx="145.086" cy="157.983" r="2.72414" stroke="#1252AE" stroke-opacity="0.2"/>
<circle cx="145.086" cy="170.879" r="2.72414" stroke="#1252AE" stroke-opacity="0.2"/>
<circle cx="145.086" cy="183.776" r="2.72414" stroke="#1252AE" stroke-opacity="0.2"/>
<circle cx="157.983" cy="3.22414" r="2.72414" stroke="#1252AE" stroke-opacity="0.2"/>
<circle cx="157.983" cy="16.1207" r="2.72414" stroke="#1252AE" stroke-opacity="0.2"/>
<circle cx="157.983" cy="29.0172" r="2.72414" stroke="#1252AE" stroke-opacity="0.2"/>
<circle cx="157.983" cy="41.9138" r="2.72414" stroke="#1252AE" stroke-opacity="0.2"/>
<circle cx="157.983" cy="54.8103" r="2.72414" stroke="#1252AE" stroke-opacity="0.2"/>
<circle cx="157.983" cy="67.7069" r="2.72414" stroke="#1252AE" stroke-opacity="0.2"/>
<circle cx="157.983" cy="80.6034" r="2.72414" stroke="#1252AE" stroke-opacity="0.2"/>
<circle cx="157.983" cy="93.5" r="2.72414" stroke="#1252AE" stroke-opacity="0.2"/>
<circle cx="157.983" cy="106.396" r="2.72414" stroke="#1252AE" stroke-opacity="0.2"/>
<circle cx="157.983" cy="119.293" r="2.72414" stroke="#1252AE" stroke-opacity="0.2"/>
<circle cx="157.983" cy="132.19" r="2.72414" stroke="#1252AE" stroke-opacity="0.2"/>
<circle cx="157.983" cy="145.086" r="2.72414" stroke="#1252AE" stroke-opacity="0.2"/>
<circle cx="157.983" cy="157.983" r="2.72414" stroke="#1252AE" stroke-opacity="0.2"/>
<circle cx="157.983" cy="170.879" r="2.72414" stroke="#1252AE" stroke-opacity="0.2"/>
<circle cx="157.983" cy="183.776" r="2.72414" stroke="#1252AE" stroke-opacity="0.2"/>
<circle cx="170.879" cy="3.22414" r="2.72414" stroke="#1252AE" stroke-opacity="0.2"/>
<circle cx="170.879" cy="16.1207" r="2.72414" stroke="#1252AE" stroke-opacity="0.2"/>
<circle cx="170.879" cy="29.0172" r="2.72414" stroke="#1252AE" stroke-opacity="0.2"/>
<circle cx="170.879" cy="41.9138" r="2.72414" stroke="#1252AE" stroke-opacity="0.2"/>
<circle cx="170.879" cy="54.8103" r="2.72414" stroke="#1252AE" stroke-opacity="0.2"/>
<circle cx="170.879" cy="67.7069" r="2.72414" stroke="#1252AE" stroke-opacity="0.2"/>
<circle cx="170.879" cy="80.6034" r="2.72414" stroke="#1252AE" stroke-opacity="0.2"/>
<circle cx="170.879" cy="93.5" r="2.72414" stroke="#1252AE" stroke-opacity="0.2"/>
<circle cx="170.879" cy="106.396" r="2.72414" stroke="#1252AE" stroke-opacity="0.2"/>
<circle cx="170.879" cy="119.293" r="2.72414" stroke="#1252AE" stroke-opacity="0.2"/>
<circle cx="170.879" cy="132.19" r="2.72414" stroke="#1252AE" stroke-opacity="0.2"/>
<circle cx="170.879" cy="145.086" r="2.72414" stroke="#1252AE" stroke-opacity="0.2"/>
<circle cx="170.879" cy="157.983" r="2.72414" stroke="#1252AE" stroke-opacity="0.2"/>
<circle cx="170.879" cy="170.879" r="2.72414" stroke="#1252AE" stroke-opacity="0.2"/>
<circle cx="170.879" cy="183.776" r="2.72414" stroke="#1252AE" stroke-opacity="0.2"/>
<circle cx="183.776" cy="3.22414" r="2.72414" stroke="#1252AE" stroke-opacity="0.2"/>
<circle cx="183.776" cy="16.1207" r="2.72414" stroke="#1252AE" stroke-opacity="0.2"/>
<circle cx="183.776" cy="29.0172" r="2.72414" stroke="#1252AE" stroke-opacity="0.2"/>
<circle cx="183.776" cy="41.9138" r="2.72414" stroke="#1252AE" stroke-opacity="0.2"/>
<circle cx="183.776" cy="54.8103" r="2.72414" stroke="#1252AE" stroke-opacity="0.2"/>
<circle cx="183.776" cy="67.7069" r="2.72414" stroke="#1252AE" stroke-opacity="0.2"/>
<circle cx="183.776" cy="80.6034" r="2.72414" stroke="#1252AE" stroke-opacity="0.2"/>
<circle cx="183.776" cy="93.5" r="2.72414" stroke="#1252AE" stroke-opacity="0.2"/>
<circle cx="183.776" cy="106.396" r="2.72414" stroke="#1252AE" stroke-opacity="0.2"/>
<circle cx="183.776" cy="119.293" r="2.72414" stroke="#1252AE" stroke-opacity="0.2"/>
<circle cx="183.776" cy="132.19" r="2.72414" stroke="#1252AE" stroke-opacity="0.2"/>
<circle cx="183.776" cy="145.086" r="2.72414" stroke="#1252AE" stroke-opacity="0.2"/>
<circle cx="183.776" cy="157.983" r="2.72414" stroke="#1252AE" stroke-opacity="0.2"/>
<circle cx="183.776" cy="170.879" r="2.72414" stroke="#1252AE" stroke-opacity="0.2"/>
<circle cx="183.776" cy="183.776" r="2.72414" stroke="#1252AE" stroke-opacity="0.2"/>
</svg>
