<svg width="122" height="122" viewBox="0 0 122 122" fill="none" xmlns="http://www.w3.org/2000/svg">
<path d="M61.6796 15.7174C58.2324 19.1646 57.8494 27.2079 61.6796 31.0381L31.0383 61.6794C27.2081 57.8492 19.1648 58.2322 15.7176 61.6794L0.396973 77L34.8684 111.471C38.6986 115.302 46.3589 115.302 50.1891 111.471L58.6154 103.045C67.8078 109.173 79.2983 110.705 92.3209 99.981L100.288 107.948C90.559 121.2 99.9812 130.622 99.9812 130.622L130.622 99.981C130.622 99.981 121.2 90.5588 107.948 100.287L99.9812 92.3207C110.706 79.2981 109.174 67.8076 103.045 58.6152L111.472 50.1889C115.302 46.3587 115.302 38.6984 111.472 34.8682L77.0002 0.396759L61.6796 15.7174ZM50.1891 96.1508L42.5288 103.811L15.7176 77L23.3779 69.3397L50.1891 96.1508ZM90.4058 59.7643C97.798 67.1565 101.59 75.3913 88.4907 88.4905C75.4298 101.551 67.1567 97.7978 59.7645 90.4056L38.6986 69.3397L69.3399 38.6984L90.4058 59.7643ZM103.811 42.5285L96.151 50.1889L69.3399 23.3777L77.0002 15.7174L103.811 42.5285Z" fill="#1252AE" fill-opacity="0.06"/>
</svg>
