<svg width="40" height="39" viewBox="0 0 40 39" fill="none" xmlns="http://www.w3.org/2000/svg">
<rect width="40" height="38.3333" rx="19.1667" fill="#1252AE" fill-opacity="0.15"/>
<path d="M26.4501 28.6751C22.5126 28.6751 19.0626 26.2001 17.5626 22.7126H23.1126C23.5626 22.7126 23.9376 22.3376 23.9376 21.8876C23.9376 21.4376 23.5626 21.0626 23.1126 21.0626H17.0001C16.8501 20.425 16.7751 19.75 16.7751 19.0375C16.7751 18.6625 16.8126 18.325 16.8501 17.9875H23.1126C23.5626 17.9875 23.9376 17.6125 23.9376 17.1625C23.9376 16.7126 23.5626 16.3375 23.1126 16.3375H17.1876C18.4251 12.2875 22.1751 9.32505 26.4501 9.32505C26.9001 9.32505 27.2751 8.95005 27.2751 8.50005C27.2751 8.05005 26.9001 7.67505 26.4501 7.67505C21.2376 7.67505 16.7376 11.3875 15.4626 16.2626H13.5501C13.1001 16.2626 12.7251 16.6375 12.7251 17.0876C12.7251 17.5375 13.1001 17.9125 13.5501 17.9125H15.1626C15.1251 18.2875 15.0876 18.625 15.0876 19C15.0876 19.675 15.1626 20.3501 15.2751 21.0251H13.5501C13.1001 21.0251 12.7251 21.4 12.7251 21.85C12.7251 22.3 13.1001 22.675 13.5501 22.675H15.7251C17.3001 27.0625 21.5751 30.3251 26.4126 30.3251C26.8626 30.3251 27.2376 29.9501 27.2376 29.5001C27.2376 29.0501 26.9001 28.6751 26.4501 28.6751Z" fill="#1252AE"/>
</svg>
