<svg width="32" height="32" viewBox="0 0 32 32" fill="none" xmlns="http://www.w3.org/2000/svg">
<rect width="32" height="32" rx="4" fill="#2A323C" fill-opacity="0.1"/>
<path d="M16.0001 7.7002C11.4167 7.7002 7.66675 11.4419 7.66675 16.0502C7.66675 20.2169 10.7167 23.6752 14.7001 24.3002V18.4669H12.5834V16.0502H14.7001V14.2085C14.7001 12.1169 15.9417 10.9669 17.8501 10.9669C18.7584 10.9669 19.7084 11.1252 19.7084 11.1252V13.1835H18.6584C17.6251 13.1835 17.3001 13.8252 17.3001 14.4835V16.0502H19.6167L19.2417 18.4669H17.3001V24.3002C19.2638 23.9901 21.0519 22.9881 22.3417 21.4752C23.6315 19.9624 24.3379 18.0382 24.3334 16.0502C24.3334 11.4419 20.5834 7.7002 16.0001 7.7002Z" fill="#5B687C"/>
</svg>
