<svg width="32" height="32" viewBox="0 0 32 32" fill="none" xmlns="http://www.w3.org/2000/svg">
<rect width="32" height="32" rx="4" fill="#2A323C" fill-opacity="0.1"/>
<path d="M12.5001 7.6665H19.5001C22.1667 7.6665 24.3334 9.83317 24.3334 12.4998V19.4998C24.3334 20.7817 23.8242 22.0111 22.9178 22.9175C22.0113 23.8239 20.782 24.3332 19.5001 24.3332H12.5001C9.83341 24.3332 7.66675 22.1665 7.66675 19.4998V12.4998C7.66675 11.218 8.17597 9.98858 9.0824 9.08215C9.98882 8.17573 11.2182 7.6665 12.5001 7.6665ZM12.3334 9.33317C11.5378 9.33317 10.7747 9.64924 10.2121 10.2119C9.64949 10.7745 9.33341 11.5375 9.33341 12.3332V19.6665C9.33341 21.3248 10.6751 22.6665 12.3334 22.6665H19.6667C20.4624 22.6665 21.2255 22.3504 21.7881 21.7878C22.3507 21.2252 22.6667 20.4622 22.6667 19.6665V12.3332C22.6667 10.6748 21.3251 9.33317 19.6667 9.33317H12.3334ZM20.3751 10.5832C20.6513 10.5832 20.9163 10.6929 21.1117 10.8883C21.307 11.0836 21.4167 11.3486 21.4167 11.6248C21.4167 11.9011 21.307 12.1661 21.1117 12.3614C20.9163 12.5568 20.6513 12.6665 20.3751 12.6665C20.0988 12.6665 19.8339 12.5568 19.6385 12.3614C19.4432 12.1661 19.3334 11.9011 19.3334 11.6248C19.3334 11.3486 19.4432 11.0836 19.6385 10.8883C19.8339 10.6929 20.0988 10.5832 20.3751 10.5832ZM16.0001 11.8332C17.1052 11.8332 18.165 12.2722 18.9464 13.0536C19.7278 13.835 20.1667 14.8948 20.1667 15.9998C20.1667 17.1049 19.7278 18.1647 18.9464 18.9461C18.165 19.7275 17.1052 20.1665 16.0001 20.1665C14.895 20.1665 13.8352 19.7275 13.0538 18.9461C12.2724 18.1647 11.8334 17.1049 11.8334 15.9998C11.8334 14.8948 12.2724 13.835 13.0538 13.0536C13.8352 12.2722 14.895 11.8332 16.0001 11.8332ZM16.0001 13.4998C15.337 13.4998 14.7012 13.7632 14.2323 14.2321C13.7635 14.7009 13.5001 15.3368 13.5001 15.9998C13.5001 16.6629 13.7635 17.2988 14.2323 17.7676C14.7012 18.2364 15.337 18.4998 16.0001 18.4998C16.6631 18.4998 17.299 18.2364 17.7678 17.7676C18.2367 17.2988 18.5001 16.6629 18.5001 15.9998C18.5001 15.3368 18.2367 14.7009 17.7678 14.2321C17.299 13.7632 16.6631 13.4998 16.0001 13.4998Z" fill="#5B687C"/>
</svg>
