<svg width="22" height="22" viewBox="0 0 22 22" fill="none" xmlns="http://www.w3.org/2000/svg">
<path d="M10.9998 15.5832C9.98234 15.5832 9.1665 14.7582 9.1665 13.7498C9.1665 12.7323 9.98234 11.9165 10.9998 11.9165C11.4861 11.9165 11.9524 12.1097 12.2962 12.4535C12.64 12.7973 12.8332 13.2636 12.8332 13.7498C12.8332 14.2361 12.64 14.7024 12.2962 15.0462C11.9524 15.39 11.4861 15.5832 10.9998 15.5832ZM16.4998 18.3332V9.1665H5.49984V18.3332H16.4998ZM16.4998 7.33317C16.9861 7.33317 17.4524 7.52633 17.7962 7.87014C18.14 8.21396 18.3332 8.68027 18.3332 9.1665V18.3332C18.3332 18.8194 18.14 19.2857 17.7962 19.6295C17.4524 19.9734 16.9861 20.1665 16.4998 20.1665H5.49984C4.48234 20.1665 3.6665 19.3415 3.6665 18.3332V9.1665C3.6665 8.149 4.48234 7.33317 5.49984 7.33317H6.4165V5.49984C6.4165 4.28426 6.89939 3.11847 7.75893 2.25893C8.61847 1.39939 9.78426 0.916504 10.9998 0.916504C11.6017 0.916504 12.1977 1.03506 12.7538 1.26539C13.3099 1.49572 13.8151 1.83333 14.2407 2.25893C14.6663 2.68453 15.004 3.1898 15.2343 3.74587C15.4646 4.30195 15.5832 4.89795 15.5832 5.49984V7.33317H16.4998ZM10.9998 2.74984C10.2705 2.74984 9.57102 3.03957 9.05529 3.55529C8.53957 4.07102 8.24984 4.77049 8.24984 5.49984V7.33317H13.7498V5.49984C13.7498 4.77049 13.4601 4.07102 12.9444 3.55529C12.4287 3.03957 11.7292 2.74984 10.9998 2.74984Z" fill="#737D8C"/>
</svg>
