<svg width="100" height="100" viewBox="0 0 100 100" fill="none" xmlns="http://www.w3.org/2000/svg">
<path d="M85.641 24.3587C77.5144 16.2321 66.4924 11.6667 54.9997 11.6667C43.507 11.6667 32.485 16.2321 24.3584 24.3587C16.2318 32.4853 11.6664 43.5073 11.6664 55C11.6664 66.4927 16.2318 77.5147 24.3584 85.6413C32.485 93.7679 43.507 98.3333 54.9997 98.3333C66.4924 98.3333 77.5144 93.7679 85.641 85.6413C93.7676 77.5147 98.3331 66.4927 98.3331 55C98.3331 43.5073 93.7676 32.4853 85.641 24.3587ZM93.3013 16.6984C103.46 26.8566 109.166 40.6341 109.166 55C109.166 69.3659 103.46 83.1434 93.3013 93.3016C88.2715 98.3315 82.3002 102.321 75.7284 105.043C69.1566 107.766 62.113 109.167 54.9997 109.167C40.6338 109.167 26.8563 103.46 16.6981 93.3016C6.53988 83.1434 0.833053 69.3659 0.833053 55C0.833053 40.6341 6.53988 26.8566 16.6981 16.6984C21.7279 11.6685 27.6992 7.67865 34.271 4.95652C40.8428 2.23439 47.8865 0.833333 54.9997 0.833329C62.113 0.83333 69.1566 2.23439 75.7284 4.95652C82.3002 7.67865 88.2715 11.6685 93.3013 16.6984ZM37.764 53.0849C40.8281 56.149 40.8281 61.5113 37.764 64.5754C34.6999 67.6395 29.3376 67.6395 26.2735 64.5754C23.2094 61.5113 23.2094 56.149 26.2735 53.0849C29.3376 50.0208 34.6999 50.0208 37.764 53.0849ZM64.5751 26.2738C67.6393 29.3379 67.6393 34.7001 64.5751 37.7643C61.511 40.8284 56.1488 40.8284 53.0846 37.7643C50.0205 34.7001 50.0205 29.3379 53.0846 26.2738C56.1488 23.2097 61.511 23.2097 64.5751 26.2738ZM75.0315 75.0317C68.3287 81.7345 59.6342 84.837 52.0505 84.1475L52.0505 73.2699C56.5318 74.304 62.5834 72.1591 67.3711 67.3714C72.1588 62.5837 74.3037 56.5321 73.2696 52.0508H84.1473C84.8367 59.6345 81.7342 68.329 75.0315 75.0317Z" fill="#1252AE" fill-opacity="0.06"/>
</svg>
