<svg width="32" height="32" viewBox="0 0 32 32" fill="none" xmlns="http://www.w3.org/2000/svg">
<rect width="32" height="32" rx="4" fill="#2A323C" fill-opacity="0.1"/>
<path d="M16.0333 7.6665C11.4833 7.6665 7.77492 11.3748 7.77492 15.9248C7.77492 17.3832 8.15825 18.7998 8.87492 20.0498L7.70825 24.3332L12.0833 23.1832C13.2916 23.8415 14.6499 24.1915 16.0333 24.1915C20.5833 24.1915 24.2916 20.4832 24.2916 15.9332C24.2916 13.7248 23.4333 11.6498 21.8749 10.0915C20.3166 8.52484 18.2416 7.6665 16.0333 7.6665ZM16.0416 9.05817C17.8749 9.05817 19.5916 9.77484 20.8916 11.0748C22.1833 12.3748 22.8999 14.0998 22.8999 15.9332C22.8999 19.7165 19.8166 22.7915 16.0333 22.7915C14.7999 22.7915 13.5916 22.4665 12.5416 21.8332L12.2916 21.6915L9.69159 22.3748L10.3833 19.8415L10.2166 19.5748C9.53325 18.4998 9.16659 17.2248 9.16659 15.9248C9.17492 12.1415 12.2499 9.05817 16.0416 9.05817ZM13.1083 12.1082C12.9749 12.1082 12.7499 12.1582 12.5583 12.3665C12.3749 12.5748 11.8333 13.0832 11.8333 14.0915C11.8333 15.1082 12.5749 16.0832 12.6666 16.2248C12.7833 16.3665 14.1333 18.4498 16.2083 19.3332C16.6999 19.5582 17.0833 19.6832 17.3833 19.7748C17.8749 19.9332 18.3249 19.9082 18.6833 19.8582C19.0833 19.7998 19.8999 19.3582 20.0749 18.8748C20.2499 18.3915 20.2499 17.9832 20.1999 17.8915C20.1416 17.8082 20.0083 17.7582 19.7999 17.6665C19.5916 17.5498 18.5749 17.0498 18.3916 16.9832C18.1999 16.9165 18.0833 16.8832 17.9249 17.0832C17.7916 17.2915 17.3916 17.7582 17.2749 17.8915C17.1499 18.0332 17.0333 18.0498 16.8333 17.9498C16.6166 17.8415 15.9499 17.6248 15.1666 16.9248C14.5499 16.3748 14.1416 15.6998 14.0166 15.4915C13.9166 15.2915 14.0083 15.1665 14.1083 15.0748C14.1999 14.9832 14.3333 14.8332 14.4166 14.7082C14.5249 14.5915 14.5583 14.4998 14.6249 14.3665C14.6916 14.2248 14.6583 14.1082 14.6083 14.0082C14.5583 13.9165 14.1416 12.8832 13.9666 12.4748C13.7999 12.0748 13.6333 12.1248 13.4999 12.1165C13.3833 12.1165 13.2499 12.1082 13.1083 12.1082Z" fill="#5B687C"/>
</svg>
